<svg width="200" height="200" viewBox="0 0 200 200" fill="none" xmlns="http://www.w3.org/2000/svg">
<style>
path { fill:black }
@media (prefers-color-scheme: dark) {
path { fill: white}
}
</style>
<path fill-rule="evenodd" clip-rule="evenodd" d="M6.53961 32.7606C0 45.5953 0 62.3969 0 96V104C0 137.603 0 154.405 6.53961 167.239C12.292 178.529 21.4708 187.708 32.7606 193.46C45.5953 200 62.3969 200 96 200H104C137.603 200 154.405 200 167.239 193.46C178.529 187.708 187.708 178.529 193.46 167.239C200 154.405 200 137.603 200 104V96C200 62.3968 200 45.5953 193.46 32.7606C187.708 21.4708 178.529 12.292 167.239 6.53961C154.405 0 137.603 0 104 0H96C62.3968 0 45.5953 0 32.7606 6.53961C21.4708 12.292 12.292 21.4708 6.53961 32.7606ZM98.9134 74.9931L72.3504 92.7576C70.0042 92.6738 67.5741 92.1711 65.3954 91.1655L39 78.5125L96.4834 46L159.916 75.1607L136.454 90.2438C133.605 92.0035 130.253 93.009 126.901 93.009L98.9134 74.9931ZM48.8878 117.393L105.952 144.711L151.118 115.634L160 119.656L105.449 154.766L39 123.008L48.8878 117.393ZM105.952 129.041L48.8878 101.807L39 107.338L105.449 139.096L160 104.07L151.118 99.964L105.952 129.041ZM127.152 97.9529C131.426 97.9529 135.699 96.696 139.303 94.3497L153.38 85.3837L160 88.4003L105.449 123.427L39 91.7521L46.5415 87.4785L63.3843 95.5229C66.401 96.9474 69.7528 97.7015 73.0208 97.7015L127.069 97.9529H127.152Z" fill="black"/>
</svg>
