<svg width="200" height="200" viewBox="0 0 200 200" fill="none" xmlns="http://www.w3.org/2000/svg">
<rect x="2.5" y="2.5" width="195" height="195" rx="57.5" fill="black" stroke="white" stroke-width="5"/>
<path d="M72.3504 92.7576L98.9134 74.9931L126.901 93.009C130.253 93.009 133.605 92.0035 136.454 90.2438L159.916 75.1607L96.4834 46L39 78.5125L65.3954 91.1655C67.5741 92.1711 70.0042 92.6738 72.3504 92.7576V92.7576ZM105.952 144.711L48.8878 117.393L39 123.008L105.449 154.766L160 119.656L151.118 115.634L105.952 144.711Z" fill="white"/>
<path d="M105.952 129.041L48.8878 101.807L39 107.338L105.449 139.096L160 104.07L151.118 99.964L105.952 129.041Z" fill="white"/>
<path d="M139.303 94.3497C135.699 96.696 131.426 97.9529 127.152 97.9529H127.069L73.0208 97.7015C69.7528 97.7015 66.401 96.9474 63.3844 95.5229L46.5416 87.4785L39 91.7521L105.449 123.427L160 88.4003L153.38 85.3837L139.303 94.3497V94.3497Z" fill="white"/>
</svg>
