<?xml version="1.0" standalone="no"?>
<!DOCTYPE svg PUBLIC "-//W3C//DTD SVG 20010904//EN"
 "http://www.w3.org/TR/2001/REC-SVG-20010904/DTD/svg10.dtd">
<svg version="1.0" xmlns="http://www.w3.org/2000/svg"
 width="959.000000pt" height="959.000000pt" viewBox="0 0 959.000000 959.000000"
 preserveAspectRatio="xMidYMid meet">

<g transform="translate(0.000000,959.000000) scale(0.100000,-0.100000)"
fill="#000000" stroke="none">
<path d="M5760 8415 c-14 -8 -33 -14 -42 -15 -10 0 -18 -4 -18 -10 0 -5 -4
-10 -10 -10 -5 0 -10 7 -10 15 0 8 5 15 12 15 6 0 8 3 5 7 -7 7 -20 2 -98 -36
-25 -12 -52 -19 -61 -16 -8 3 -39 -8 -67 -24 -29 -17 -56 -31 -62 -31 -5 0
-29 -20 -53 -45 -25 -25 -53 -45 -64 -45 -10 0 -42 -23 -71 -50 -55 -53 -117
-90 -150 -90 -11 0 -22 -4 -25 -9 -3 -4 -16 -6 -30 -4 -16 3 -31 -2 -45 -16
-12 -12 -26 -19 -32 -15 -17 10 -59 -5 -59 -21 0 -8 -6 -15 -14 -15 -14 0 -86
-61 -86 -73 0 -3 -15 -21 -32 -40 -26 -27 -44 -36 -83 -42 -57 -8 -180 -9
-193 -1 -4 2 -24 1 -44 -3 -20 -5 -40 -5 -45 0 -8 8 -341 20 -598 22 -114 0
-214 -10 -232 -25 -7 -6 -19 -8 -28 -5 -8 4 -22 -1 -31 -10 -12 -12 -20 -14
-32 -6 -12 7 -32 6 -66 -3 -28 -7 -52 -12 -54 -9 -2 2 -24 -5 -49 -16 -31 -13
-49 -16 -57 -10 -15 13 -56 3 -56 -14 0 -7 -17 -12 -47 -13 -31 0 -51 -6 -59
-16 -6 -9 -20 -16 -31 -16 -11 0 -34 -13 -51 -30 -18 -16 -35 -30 -40 -30 -16
0 -100 -86 -107 -110 -5 -14 -6 -26 -4 -27 2 -1 -4 -8 -13 -15 -20 -15 -14
-58 8 -58 27 0 14 -26 -18 -35 -56 -17 -65 -108 -12 -121 14 -4 22 -10 17 -14
-14 -12 -100 -30 -147 -30 -34 0 -45 -4 -48 -17 -2 -14 -16 -18 -66 -19 -66
-3 -141 -30 -142 -51 0 -7 -4 -13 -8 -13 -10 0 -45 -27 -80 -62 -13 -13 -35
-44 -50 -71 -21 -37 -34 -48 -60 -53 -18 -4 -35 -10 -38 -15 -3 -5 -14 -9 -25
-9 -11 0 -22 -7 -25 -15 -4 -8 -15 -15 -26 -15 -28 0 -164 -142 -190 -198 -12
-26 -27 -54 -33 -62 -25 -30 -27 -58 -6 -77 17 -16 19 -24 11 -58 -9 -39 -5
-48 25 -58 6 -2 4 -11 -4 -20 -9 -11 -10 -17 -2 -17 6 0 2 -9 -9 -20 -11 -11
-20 -27 -20 -35 0 -8 -3 -15 -7 -15 -32 -1 -39 -50 -7 -50 8 0 14 -9 14 -20 0
-21 -24 -28 -35 -10 -9 15 -35 12 -35 -4 0 -7 9 -16 20 -19 23 -6 27 -27 6
-27 -8 0 -26 -15 -40 -33 -27 -35 -114 -74 -142 -63 -9 3 -20 3 -25 0 -12 -7
33 -44 53 -44 8 0 15 -7 15 -15 0 -9 -3 -14 -6 -13 -3 2 -23 10 -44 18 -20 8
-37 20 -37 27 0 15 -28 17 -49 4 -7 -5 -10 -14 -6 -21 5 -9 2 -10 -12 -6 -28
9 -70 -9 -78 -33 -3 -12 -15 -21 -25 -21 -11 0 -27 -11 -36 -25 -9 -14 -23
-25 -31 -25 -12 0 -14 -11 -11 -49 3 -50 -6 -60 -29 -31 -11 13 -12 13 -13 -1
0 -9 9 -28 21 -43 15 -19 16 -24 5 -20 -11 4 -16 1 -16 -10 0 -9 11 -21 25
-26 20 -7 25 -17 25 -42 0 -31 4 -35 62 -62 34 -15 77 -30 94 -33 41 -7 105
-58 97 -78 -6 -18 1 -19 27 -5 28 15 38 -9 12 -29 -18 -15 -32 -38 -84 -136
-9 -17 -33 -45 -54 -61 -69 -53 -129 -118 -177 -190 -26 -40 -47 -76 -47 -82
0 -6 -7 -15 -16 -20 -9 -5 -16 -21 -16 -36 0 -14 -4 -26 -8 -26 -4 0 -11 -16
-14 -35 -4 -19 -13 -38 -20 -42 -17 -11 -27 -41 -16 -48 12 -7 7 -42 -14 -89
-11 -27 -13 -43 -6 -50 17 -17 11 -43 -13 -51 -19 -6 -19 -8 -4 -12 22 -6 22
-9 -8 -45 -14 -17 -25 -38 -23 -47 3 -17 66 -32 111 -27 22 3 25 1 17 -15 -13
-23 -27 -32 -34 -21 -3 5 -22 8 -43 7 -30 -2 -39 -7 -41 -24 -2 -11 -13 -27
-24 -35 -12 -9 -17 -19 -12 -27 5 -9 2 -10 -10 -6 -25 10 -54 -29 -54 -71 0
-20 -11 -49 -27 -72 l-28 -40 28 -54 c17 -34 24 -59 19 -68 -5 -7 -10 -29 -11
-48 -1 -22 1 -30 6 -21 5 7 14 10 20 6 9 -5 9 -10 0 -21 -9 -11 -8 -20 6 -40
15 -24 16 -28 1 -42 -14 -14 -13 -18 7 -38 62 -64 61 -63 43 -70 -9 -4 -32 -4
-51 -1 -30 5 -35 3 -35 -14 0 -21 -22 -35 -40 -24 -8 5 -8 11 1 21 9 11 8 14
-8 14 -25 0 -53 -34 -53 -65 0 -18 -5 -25 -20 -25 -13 0 -22 -9 -26 -26 -9
-33 7 -49 34 -35 27 14 32 14 32 -3 0 -8 6 -17 13 -19 6 -3 0 -6 -15 -6 -16
-1 -28 -5 -28 -10 0 -23 14 -41 30 -41 27 0 50 -11 50 -24 0 -6 7 -19 14 -29
12 -16 18 -17 36 -7 30 16 46 0 31 -29 -10 -19 -8 -22 16 -31 15 -6 35 -14 43
-19 69 -44 179 -92 201 -88 14 3 32 1 40 -4 10 -6 4 -9 -18 -9 -22 0 -33 -5
-33 -14 0 -9 -16 -16 -47 -21 -57 -8 -101 -29 -84 -39 16 -10 4 -26 -20 -26
-11 0 -19 7 -19 16 0 11 -6 14 -20 10 -11 -3 -30 -9 -42 -12 -46 -11 -68 -27
-68 -50 0 -12 -7 -24 -15 -28 -8 -3 -15 -15 -15 -26 0 -15 -7 -20 -24 -20 -45
0 -56 -10 -56 -50 0 -22 -5 -42 -11 -46 -7 -4 -9 -21 -5 -43 4 -20 6 -46 6
-58 0 -13 8 -24 20 -28 23 -7 25 -17 8 -46 -11 -18 -10 -23 9 -36 23 -16 31
-43 13 -43 -5 0 -10 -9 -10 -21 0 -15 -5 -19 -15 -15 -23 8 -19 -30 5 -47 19
-13 19 -14 -6 -27 -21 -12 -25 -20 -21 -50 6 -51 25 -84 41 -70 8 5 21 8 30 4
12 -5 16 0 16 16 0 18 4 21 23 16 12 -3 25 -6 30 -6 4 0 7 -5 7 -10 0 -6 -8
-10 -17 -8 -11 2 -19 -6 -23 -22 -5 -21 -11 -25 -38 -22 -23 3 -32 -1 -32 -12
0 -8 -9 -18 -20 -21 -11 -3 -20 -15 -20 -26 0 -23 34 -59 55 -59 8 0 15 -4 15
-10 0 -5 -6 -10 -13 -10 -8 0 -20 -11 -27 -25 -11 -20 -11 -27 1 -41 7 -9 14
-33 16 -53 2 -44 17 -113 27 -130 5 -7 16 -11 27 -8 10 3 25 -3 34 -13 16 -18
15 -19 -18 -25 -20 -4 -41 -4 -48 1 -8 5 -11 2 -6 -8 3 -9 1 -20 -5 -26 -6 -6
-5 -20 6 -40 14 -26 14 -31 1 -42 -8 -7 -15 -21 -15 -32 0 -16 5 -19 21 -15
16 4 19 2 14 -10 -3 -9 0 -20 7 -24 9 -6 8 -12 -5 -27 -24 -27 -21 -34 12 -27
24 5 29 3 27 -12 -1 -13 6 -18 26 -18 14 1 25 -2 23 -6 -6 -9 62 -37 120 -49
75 -16 85 -20 85 -36 0 -8 -4 -14 -10 -14 -5 0 -10 -4 -10 -10 0 -5 6 -10 13
-10 8 0 13 -10 12 -23 -1 -18 -8 -23 -41 -25 -21 -2 -47 -11 -57 -20 -15 -14
-20 -14 -27 -2 -6 9 -31 15 -75 16 -57 2 -70 -1 -88 -19 -12 -12 -34 -23 -50
-23 -38 -2 -71 -32 -56 -51 15 -17 11 -20 -25 -27 -16 -3 -29 -6 -30 -8 -16
-23 -44 -110 -40 -122 4 -9 1 -16 -6 -16 -7 0 -10 -7 -6 -15 3 -8 2 -15 -2
-15 -13 0 -6 -51 9 -61 12 -8 12 -10 -1 -19 -10 -6 -11 -10 -2 -10 7 0 12 -13
12 -30 0 -16 -5 -30 -10 -30 -6 0 -15 -11 -20 -25 -7 -19 -17 -25 -38 -25 -20
0 -33 -7 -41 -24 -10 -18 -24 -25 -64 -29 -36 -5 -58 -14 -79 -34 -15 -15 -28
-30 -28 -35 0 -17 58 -68 77 -68 14 0 22 -8 25 -25 3 -13 1 -23 -5 -22 -5 1
-12 -4 -15 -12 -3 -10 0 -12 10 -8 10 3 19 -3 27 -19 6 -13 22 -29 35 -35 13
-6 29 -22 36 -34 11 -20 9 -26 -9 -46 -11 -13 -21 -29 -21 -36 0 -7 -5 -13
-10 -13 -6 0 0 -11 14 -25 14 -14 30 -25 36 -25 14 0 13 -30 -2 -31 -7 -1 -21
0 -31 1 -16 1 -17 -2 -7 -20 6 -11 26 -29 43 -40 61 -35 125 -84 121 -92 -3
-5 -16 -8 -30 -8 -25 0 -54 -20 -54 -37 0 -5 -14 -28 -31 -51 -32 -43 -32 -47
-26 -173 1 -23 6 -35 13 -32 21 8 25 -16 5 -28 -15 -10 -17 -16 -8 -31 7 -10
20 -18 29 -18 21 0 24 -16 6 -23 -16 -5 18 -47 38 -47 8 0 28 -9 46 -20 31
-19 51 -20 411 -20 375 0 378 0 367 20 -6 11 -19 20 -30 20 -29 0 -50 11 -50
26 0 16 26 19 34 5 3 -5 15 -7 25 -4 19 5 33 45 59 168 7 35 11 40 35 40 15
-1 27 3 27 7 0 4 -3 8 -7 8 -5 0 -16 13 -25 29 -14 26 -14 32 -2 42 8 6 14 16
14 21 0 5 11 24 24 41 13 18 27 42 30 54 8 25 56 63 80 63 9 0 16 6 16 13 0
21 36 36 95 38 40 2 59 7 63 18 9 24 34 51 68 71 26 17 36 18 70 9 21 -6 46
-17 55 -25 8 -8 24 -14 34 -14 24 0 100 -37 115 -56 10 -11 9 -14 -4 -14 -25
0 -19 -19 11 -33 21 -9 27 -9 31 1 6 19 72 -48 72 -74 0 -12 6 -27 14 -34 8
-6 13 -17 10 -24 -3 -8 4 -16 15 -19 27 -7 26 -16 -4 -61 -29 -43 -30 -46 -11
-46 8 0 25 -14 37 -31 20 -29 21 -35 10 -81 -9 -42 -9 -55 5 -84 13 -26 14
-38 5 -47 -6 -6 -11 -19 -11 -29 0 -15 8 -18 47 -18 l47 0 -32 33 -32 33 64
69 c59 63 63 71 61 109 -4 58 -9 76 -24 86 -11 6 -11 8 0 12 11 4 14 29 14
103 0 67 4 100 12 102 7 3 17 19 23 37 9 29 63 73 149 121 20 11 191 13 198 2
3 -5 16 -6 29 -3 14 4 34 0 47 -8 12 -7 41 -16 64 -20 47 -7 113 -35 113 -48
0 -4 9 -8 19 -8 10 0 29 -9 42 -20 21 -17 22 -19 6 -20 -21 0 -53 -28 -43 -37
3 -3 23 0 45 7 53 17 121 -8 121 -47 0 -7 7 -13 15 -13 8 0 18 -12 21 -27 4
-15 17 -36 30 -48 22 -20 22 -21 3 -45 -20 -27 -25 -60 -9 -60 20 0 9 -21 -20
-38 -34 -19 -39 -32 -11 -32 19 0 37 -40 22 -50 -5 -3 -7 -21 -6 -40 2 -22 -8
-56 -26 -93 l-28 -57 45 0 c34 0 46 4 50 18 4 9 13 32 21 50 16 36 38 44 29 9
-3 -12 0 -34 7 -49 l12 -28 460 0 c345 0 464 3 473 12 7 7 12 26 12 43 0 17 9
47 20 68 11 20 20 42 20 49 0 14 72 127 82 128 4 0 23 11 43 24 20 14 57 32
83 42 26 9 85 32 132 51 47 20 112 42 145 50 33 8 64 21 68 29 4 8 23 14 42
14 18 0 35 5 37 11 9 28 158 20 158 -8 0 -9 3 -13 7 -9 4 4 8 14 8 23 0 8 17
21 40 28 22 8 60 35 86 62 25 26 66 63 91 80 50 37 154 94 165 91 26 -5 163
43 189 67 13 12 42 28 66 35 24 7 47 17 53 22 5 4 16 8 25 8 41 0 83 34 64 53
-9 9 -17 160 -18 347 l-1 165 33 49 c26 39 31 51 20 58 -9 7 -8 8 6 4 16 -6
18 -2 13 22 -3 16 -1 34 5 40 14 14 1 33 -17 25 -9 -3 -15 1 -15 8 0 16 92 62
102 51 18 -19 12 -46 -12 -53 -23 -6 -23 -7 8 -8 20 -1 32 -6 32 -15 0 -28 47
-64 93 -71 33 -5 44 -11 40 -21 -3 -8 -1 -20 4 -27 13 -17 14 -59 2 -73 -6 -8
-2 -17 16 -28 14 -9 25 -21 25 -27 0 -6 12 -24 27 -39 14 -16 28 -39 30 -52
11 -81 27 -88 67 -28 14 22 31 40 36 40 5 0 7 6 4 14 -14 37 150 256 192 256
16 0 142 -37 152 -45 1 -1 8 -25 16 -53 13 -51 10 -104 -11 -183 -8 -29 -8
-98 0 -105 5 -5 97 30 97 37 0 4 26 13 58 19 31 7 64 16 72 20 19 10 132 -12
177 -35 37 -19 39 -13 -31 -159 -25 -52 -48 -106 -52 -120 -3 -14 -10 -29 -15
-32 -5 -3 -9 -14 -9 -25 0 -10 -4 -19 -9 -19 -5 0 -14 -21 -20 -46 -16 -64
-51 -126 -95 -170 -30 -30 -39 -34 -51 -24 -8 7 -24 10 -34 7 -11 -2 -44 1
-74 8 -32 7 -60 9 -68 4 -23 -14 -39 -10 -39 9 0 12 -15 24 -42 36 -24 9 -51
21 -60 27 -23 12 -38 12 -38 -1 0 -5 16 -16 35 -24 20 -9 39 -26 45 -41 5 -14
14 -25 19 -25 10 0 20 -23 28 -60 6 -32 19 -40 69 -40 27 0 44 -5 47 -14 7
-18 -22 -31 -37 -16 -13 13 -56 13 -56 1 0 -6 8 -16 18 -23 9 -7 26 -39 36
-70 14 -43 24 -58 38 -58 10 0 18 -7 18 -15 0 -8 -9 -15 -20 -15 -25 0 -25 3
5 -100 17 -61 21 -88 13 -97 -8 -10 -6 -13 6 -13 13 0 14 -3 5 -18 -8 -12 -8
-35 -3 -72 l9 -55 58 -3 c46 -2 57 0 57 13 0 8 5 15 11 15 6 0 9 -7 5 -15 -5
-13 129 -15 1164 -15 l1170 0 0 1101 c0 1148 1 1115 -40 1132 -9 3 -4 6 13 6
l27 1 0 230 c0 214 -1 230 -18 230 -14 0 -17 8 -17 40 0 33 3 40 19 40 19 0
19 0 1 13 -10 8 -15 19 -11 25 3 6 -3 13 -14 17 -24 8 -25 18 -5 39 8 8 15 22
15 30 0 9 7 16 15 16 13 0 15 23 15 149 l0 149 -34 6 c-46 9 -64 31 -44 54 9
9 23 32 32 50 17 32 16 32 -10 42 -26 10 -26 11 -8 25 10 8 29 15 42 15 l22 0
0 206 0 205 -22 -7 c-13 -4 -29 -9 -35 -11 -7 -3 -13 -2 -13 2 0 10 43 44 58
45 7 0 12 13 12 33 0 25 -6 36 -31 50 -17 9 -38 17 -48 17 -9 0 -22 5 -27 10
-6 6 -60 13 -120 16 -60 4 -111 8 -113 10 -6 6 39 104 64 139 44 61 48 75 29
96 -9 10 -22 19 -28 19 -6 0 -17 9 -24 20 -8 13 -8 20 -2 20 6 0 16 13 21 30
6 16 23 35 37 42 15 7 24 16 22 20 -3 3 6 18 20 33 14 14 36 56 51 92 26 67
28 113 3 113 -19 0 -18 19 1 26 18 7 20 60 3 67 -10 4 -10 8 -1 14 12 8 11 37
-2 126 -4 28 -3 52 3 60 14 16 3 67 -14 67 -18 0 -18 10 1 24 14 10 12 18 -12
64 -21 42 -32 52 -52 52 -14 1 -37 7 -51 15 -14 8 -37 14 -51 15 -14 0 -34 7
-45 15 -23 17 -118 20 -195 4 -52 -10 -57 -9 -92 14 -21 14 -33 28 -28 31 5 4
7 34 4 69 -2 34 -5 70 -4 79 0 10 -4 20 -10 23 -5 4 -9 15 -9 26 0 10 -7 19
-15 19 -8 0 -15 -7 -15 -15 0 -20 -39 -19 -47 1 -4 11 2 23 15 33 l22 16 -35
28 c-20 16 -50 33 -68 39 -54 19 -57 29 -20 67 34 35 41 55 23 66 -14 9 -12
21 6 40 10 10 13 22 8 33 -4 9 -8 22 -8 27 -1 6 -22 9 -49 7 -41 -3 -47 -1
-47 17 0 11 19 36 45 58 48 40 63 86 25 76 -17 -5 -19 -2 -14 24 5 27 3 30
-32 41 -25 7 -42 8 -50 1 -13 -11 -47 -1 -39 11 3 5 26 19 51 32 41 20 44 23
27 35 -52 37 -61 52 -56 93 5 34 3 40 -13 40 -11 0 -26 5 -34 11 -12 8 -9 9
13 5 15 -4 27 -2 27 4 0 5 -7 10 -15 10 -19 0 -32 29 -18 39 7 4 6 11 -3 19
-8 7 -14 8 -14 2 0 -5 -9 -10 -20 -10 -24 0 -27 15 -5 24 23 9 -4 46 -33 46
-14 0 -22 5 -20 12 9 25 -132 79 -213 82 -27 0 -49 4 -49 8 0 4 -14 15 -31 25
-36 21 -59 69 -52 107 3 14 0 32 -6 40 -8 10 -9 16 -1 21 15 9 12 41 -5 55 -9
7 -13 21 -10 30 3 10 -6 39 -20 66 -17 32 -22 50 -14 54 7 5 2 16 -15 33 -23
23 -25 29 -14 47 7 11 17 20 23 20 5 0 3 6 -6 13 -20 15 -30 55 -16 60 15 5
11 47 -8 83 -8 16 -15 46 -15 66 0 27 -4 36 -13 32 -8 -3 -20 2 -27 11 -7 9
-8 15 -2 15 6 0 14 9 17 20 8 25 -31 110 -51 110 -14 0 -18 12 -14 39 2 19
-21 61 -33 61 -5 0 -31 13 -57 29 -26 16 -85 41 -131 56 -46 15 -94 31 -107
36 -15 6 -30 5 -43 -2 -11 -6 -33 -8 -48 -4 -15 3 -61 7 -102 9 -87 3 -179 25
-179 42 0 16 -70 28 -83 15 -16 -16 -31 -13 -18 3 6 7 24 16 40 19 25 5 28 10
24 29 -3 13 -10 28 -14 34 -5 6 -10 21 -12 35 -5 31 -43 52 -68 36 -22 -13
-38 -2 -21 15 17 17 15 68 -3 68 -11 0 -12 5 -6 23 8 20 4 29 -27 56 -21 17
-46 41 -58 52 -12 11 -36 24 -55 29 -19 4 -74 19 -124 32 -93 26 -115 26 -115
2 0 -22 -37 -17 -54 7 -14 21 -24 22 -176 24 -97 1 -166 7 -172 13 -6 6 -17 8
-26 4 -11 -4 -14 -1 -9 11 5 13 1 17 -19 17 -13 0 -27 7 -30 15 -4 8 -17 15
-30 15 -24 0 -32 14 -14 25 15 9 12 25 -4 25 -19 0 -29 17 -16 25 6 4 23 -7
37 -24 27 -30 53 -41 53 -22 0 5 -7 17 -16 25 -11 11 -14 25 -9 46 6 26 4 30
-15 30 -12 0 -18 5 -15 10 3 6 -4 10 -16 10 -12 0 -38 10 -58 22 -20 13 -38
22 -41 21 -3 -1 -29 9 -59 24 -36 16 -75 26 -115 28 -34 1 -72 5 -86 8 -15 4
-35 1 -50 -8z m-215 -75 c-3 -5 -15 -10 -26 -10 -10 0 -19 5 -19 10 0 6 12 10
26 10 14 0 23 -4 19 -10z m365 -237 c-27 -19 -25 -27 13 -65 19 -18 36 -40 40
-49 8 -22 -18 -57 -46 -61 -12 -2 -21 -8 -20 -14 1 -5 -13 -20 -32 -32 -31
-22 -41 -23 -196 -21 -288 4 -335 1 -373 -18 -15 -8 -26 -10 -22 -5 15 24 61
72 70 72 5 0 30 23 56 50 26 28 52 50 58 50 7 0 12 4 12 10 0 5 29 23 65 41
36 17 65 35 65 40 0 5 7 9 15 9 9 0 27 12 40 28 13 15 25 21 25 15 0 -18 55
-16 73 2 8 8 17 12 19 10 2 -2 17 -1 33 3 24 7 39 2 77 -21 46 -29 47 -31 28
-44z m1128 -155 c-7 -20 -58 -23 -58 -4 0 11 10 16 31 16 20 0 29 -4 27 -12z
m-335 -101 c13 -9 35 -13 53 -10 20 3 25 2 15 -5 -7 -5 -11 -14 -7 -20 4 -7
-4 -8 -26 -1 -18 5 -49 9 -68 9 -36 1 -86 32 -76 48 7 12 79 -1 109 -21z m157
-167 c0 -11 7 -20 15 -20 21 0 19 -16 -2 -25 -17 -6 -17 -7 0 -16 9 -6 15 -15
11 -20 -3 -6 4 -21 16 -34 22 -23 22 -25 6 -51 -14 -20 -23 -24 -41 -20 -13 3
-26 2 -30 -3 -9 -15 -66 -41 -90 -41 -13 0 -30 11 -38 24 -15 23 -15 25 6 39
13 8 23 26 25 43 1 16 11 41 22 57 18 24 19 28 5 33 -14 6 -14 9 3 24 17 16
40 24 80 29 6 0 12 -8 12 -19z m-3336 -49 c5 -7 673 -7 703 0 4 2 37 0 73 -4
36 -4 126 -12 200 -18 144 -12 181 -26 196 -72 4 -12 13 -27 21 -32 13 -10 13
-13 -1 -24 -28 -23 -327 -14 -342 10 -7 12 -54 11 -54 -1 0 -5 5 -10 10 -10
16 0 12 -17 -6 -24 -9 -3 -25 1 -37 9 -12 8 -29 15 -39 15 -10 0 -18 5 -18 10
0 6 19 10 42 10 56 0 38 15 -20 16 -26 1 -74 6 -107 12 -48 8 -66 7 -92 -5
-20 -9 -41 -12 -55 -7 -34 11 -197 13 -204 3 -3 -5 3 -9 12 -9 14 0 15 -3 6
-12 -8 -8 -15 -8 -26 1 -20 17 -287 10 -307 -7 -8 -7 -27 -21 -44 -31 -16 -10
-37 -31 -45 -47 -8 -16 -19 -32 -24 -35 -5 -4 -6 -14 -3 -23 5 -12 14 -15 34
-11 16 3 22 2 16 -1 -24 -11 -13 -22 29 -29 48 -8 78 -24 78 -41 0 -14 -59
-27 -92 -20 -77 16 -87 16 -81 0 5 -13 1 -15 -18 -9 -13 4 -28 13 -33 20 -8
10 -18 8 -48 -12 -34 -23 -40 -24 -56 -11 -18 16 -110 48 -136 48 -9 0 -16 5
-16 10 0 6 9 10 20 10 21 0 24 10 14 46 -4 15 -20 26 -52 36 -61 20 -66 38
-11 38 35 0 49 6 88 43 25 23 44 44 42 47 -3 3 6 8 20 12 90 25 109 32 113 44
4 9 15 12 36 8 17 -4 36 -2 44 5 7 6 31 12 52 13 22 0 50 9 63 20 26 19 47 23
55 9z m-634 -131 c0 -5 -2 -10 -4 -10 -3 0 -8 5 -11 10 -3 6 -1 10 4 10 6 0
11 -4 11 -10z m3059 -6 c20 -4 31 -12 31 -23 0 -9 5 -22 11 -28 8 -8 9 -20 1
-42 -9 -25 -8 -31 4 -31 7 0 14 -5 14 -10 0 -6 12 -15 26 -20 14 -6 23 -14 20
-19 -8 -13 36 -22 50 -10 18 14 51 2 57 -20 5 -19 68 -38 88 -26 5 4 32 1 59
-6 44 -11 48 -15 48 -41 -1 -39 6 -43 52 -28 60 20 72 0 20 -34 -22 -14 -40
-31 -40 -36 0 -6 -24 -8 -57 -5 -52 4 -56 3 -39 -10 18 -13 18 -15 -4 -44 -12
-17 -27 -31 -34 -31 -19 0 -37 25 -31 42 7 17 -30 66 -59 79 -11 5 -39 20 -61
33 -22 14 -58 35 -80 46 -46 24 -81 44 -221 123 -56 31 -106 57 -111 57 -6 0
-18 9 -28 20 -10 11 -24 20 -32 20 -24 0 -14 17 15 25 25 7 151 19 233 23 20
1 51 -1 68 -4z m-1209 -73 c0 -17 -18 -21 -24 -6 -3 9 0 15 9 15 8 0 15 -4 15
-9z m-1850 -11 c-19 -13 -30 -13 -30 0 0 6 10 10 23 10 18 0 19 -2 7 -10z
m2180 -20 c0 -5 -2 -10 -4 -10 -3 0 -8 5 -11 10 -3 6 -1 10 4 10 6 0 11 -4 11
-10z m-456 -45 c-4 -8 -7 -15 -9 -15 -2 0 -5 7 -9 15 -3 9 0 15 9 15 9 0 12
-6 9 -15z m2871 -9 c33 -3 79 -5 102 -5 36 -1 40 -4 36 -20 -4 -16 -1 -19 18
-14 15 4 20 3 15 -5 -4 -7 -14 -12 -23 -12 -12 0 -9 -7 11 -25 30 -28 32 -42
10 -73 -12 -17 -19 -20 -29 -12 -20 17 -123 41 -201 47 -56 4 -76 2 -96 -11
-37 -25 -118 -4 -141 35 -10 19 -12 29 -5 29 16 0 58 41 58 56 0 7 8 14 18 16
18 4 128 1 227 -6z m-2575 -66 c13 -8 13 -10 -2 -10 -9 0 -20 5 -23 10 -8 13
5 13 25 0z m3060 -11 c0 -11 -4 -17 -10 -14 -5 3 -10 13 -10 21 0 8 5 14 10
14 6 0 10 -9 10 -21z m-3585 -59 c3 -6 -4 -10 -17 -10 -18 0 -20 2 -8 10 19
12 18 12 25 0z m-231 -19 c3 -5 -1 -12 -10 -15 -22 -9 -24 -8 -24 9 0 16 25
21 34 6z m181 -20 c3 -5 1 -12 -5 -16 -5 -3 -10 1 -10 9 0 18 6 21 15 7z m557
-35 c10 -7 15 -16 11 -20 -4 -4 -1 -11 7 -16 11 -7 11 -11 1 -24 -9 -11 -10
-16 -2 -16 19 0 12 -22 -9 -27 -11 -3 -20 -13 -20 -23 0 -16 -3 -17 -25 -7
-20 10 -22 14 -11 23 8 5 12 15 8 21 -5 9 -8 88 -3 101 3 6 28 0 43 -12z
m1634 -1 c-3 -8 -1 -15 5 -15 6 0 7 -5 3 -12 -5 -8 -11 -6 -19 5 -7 10 -17 17
-24 17 -6 0 -11 5 -11 10 0 6 12 10 26 10 19 0 25 -4 20 -15z m-3716 -50 c11
-14 117 -19 305 -16 49 1 105 -14 105 -29 0 -12 -114 -20 -199 -13 -73 5 -81
4 -75 -10 5 -14 -1 -17 -31 -17 -28 0 -36 3 -32 15 4 10 -2 14 -21 15 -113 2
-147 6 -146 18 2 28 5 32 23 32 11 0 23 5 26 10 9 15 31 12 45 -5z m3385 -5
c3 -5 -3 -10 -14 -10 -12 0 -21 5 -21 10 0 6 6 10 14 10 8 0 18 -4 21 -10z
m-3497 -33 c2 -10 -3 -17 -12 -17 -18 0 -29 16 -21 31 9 14 29 6 33 -14z
m1227 -16 c3 -5 1 -12 -5 -16 -5 -3 -10 1 -10 9 0 18 6 21 15 7z m3202 -6 c8
-9 23 -13 33 -10 10 3 21 1 25 -5 3 -5 14 -10 24 -10 10 0 24 -7 31 -15 7 -8
21 -15 32 -15 22 0 35 -27 20 -42 -21 -21 -212 45 -212 73 0 14 -38 11 -43 -3
-4 -10 -7 -10 -18 0 -11 10 -10 12 3 12 8 0 21 7 28 15 16 19 57 19 77 0z
m-1192 -15 c-3 -5 -11 -10 -16 -10 -6 0 -7 5 -4 10 3 6 11 10 16 10 6 0 7 -4
4 -10z m247 -4 c10 -7 15 -15 12 -18 -3 -3 8 -15 23 -27 15 -11 34 -26 42 -33
8 -7 39 -31 68 -54 52 -39 106 -110 97 -126 -10 -16 -41 -7 -93 27 -29 19 -62
35 -73 35 -11 0 -22 8 -25 19 -3 11 -12 22 -20 25 -8 3 -39 22 -69 42 -58 39
-70 64 -29 64 20 0 25 5 25 23 0 38 13 45 42 23z m517 -37 c18 -6 43 -21 56
-33 l22 -21 -50 0 c-44 0 -53 3 -64 24 -6 14 -10 29 -7 33 6 10 5 10 43 -3z
m-1754 -59 c18 -19 17 -20 -22 -17 -22 1 -46 8 -54 16 -11 13 -11 14 2 9 9 -3
22 -2 30 3 20 12 24 11 44 -11z m-1745 -50 c0 -5 -4 -10 -9 -10 -6 0 -13 5
-16 10 -3 6 1 10 9 10 9 0 16 -4 16 -10z m-237 -27 c40 -11 13 -23 -43 -20
-64 4 -83 13 -60 27 14 9 57 6 103 -7z m-758 -3 c3 -5 1 -10 -4 -10 -6 0 -11
5 -11 10 0 6 2 10 4 10 3 0 8 -4 11 -10z m865 0 c0 -5 -7 -10 -15 -10 -8 0
-15 5 -15 10 0 6 7 10 15 10 8 0 15 -4 15 -10z m-299 -19 c-9 -6 -10 -11 -2
-15 6 -4 9 -12 5 -17 -4 -6 -14 -3 -25 7 -26 24 -24 34 9 34 19 0 23 -3 13 -9z
m4764 -21 c3 -5 1 -10 -4 -10 -6 0 -11 5 -11 10 0 6 2 10 4 10 3 0 8 -4 11
-10z m-2055 -30 c72 -20 100 -34 87 -42 -7 -4 -2 -11 15 -17 15 -6 44 -21 65
-35 21 -13 53 -27 71 -31 22 -4 37 -16 47 -36 10 -18 23 -29 36 -29 27 0 59
-18 59 -33 0 -7 21 -18 48 -26 26 -7 57 -17 69 -23 12 -6 29 -8 37 -5 9 4 16
3 16 -2 0 -19 -28 -27 -97 -30 -60 -2 -79 1 -107 18 -19 12 -50 21 -72 21 -22
0 -66 11 -99 25 -33 13 -70 25 -82 25 -13 0 -23 5 -23 10 0 6 -7 10 -15 10 -9
0 -52 18 -98 39 -45 21 -90 42 -100 45 -9 3 -16 10 -15 16 2 5 -8 16 -20 23
-13 6 -31 24 -40 39 -15 26 -15 28 3 42 24 17 146 15 215 -4z m-3132 -31 c26
-11 65 -30 87 -41 22 -12 51 -27 65 -34 14 -7 50 -14 80 -15 30 -1 60 -5 65
-9 6 -4 23 -10 39 -14 27 -7 86 -56 68 -56 -4 0 4 -6 18 -13 15 -8 24 -21 23
-33 -1 -12 11 -27 30 -39 18 -11 38 -35 46 -53 8 -17 20 -32 27 -32 13 0 94
-108 94 -125 0 -17 89 -5 103 14 11 17 58 50 136 98 92 56 83 54 186 43 58 -6
102 -16 111 -24 26 -26 25 -27 -76 -207 -29 -51 -101 -193 -128 -251 -2 -5 17
-17 43 -28 32 -14 46 -25 44 -37 -3 -32 1 -43 15 -43 26 0 64 -40 70 -75 5
-24 12 -35 24 -35 28 0 38 -17 34 -55 -3 -25 -9 -35 -22 -35 -22 0 -34 -28
-20 -45 16 -19 1 -45 -29 -50 -14 -3 -39 -10 -56 -16 -16 -6 -53 -15 -81 -19
-28 -4 -61 -13 -72 -19 -11 -6 -38 -11 -59 -11 -22 0 -47 -6 -55 -12 -17 -13
-58 -111 -58 -138 0 -8 -14 -43 -32 -78 l-33 -63 -53 3 c-28 2 -52 2 -52 1 0
-1 6 -8 13 -15 17 -17 32 -164 18 -173 -6 -3 -20 -1 -31 5 -22 12 -90 -3 -90
-20 0 -11 27 -20 43 -14 7 2 21 -2 32 -10 16 -12 18 -18 9 -33 -12 -18 -25
-19 -94 -9 -19 2 -39 5 -43 5 -4 1 -7 9 -5 18 2 12 -6 19 -26 23 -23 4 -30 11
-33 35 -2 17 -8 64 -14 105 -5 41 -12 95 -15 120 -3 25 -13 50 -21 57 -11 9
-13 22 -8 52 5 32 3 42 -8 47 -9 3 -13 12 -10 21 4 9 -2 22 -13 30 -10 8 -17
17 -16 21 2 4 1 31 -3 60 -5 44 -11 54 -35 67 -16 8 -34 15 -40 15 -7 0 -23 9
-37 20 -14 11 -35 20 -47 20 -11 0 -33 6 -47 14 -28 14 -104 29 -244 46 -177
22 -166 19 -158 49 3 14 17 39 30 54 12 16 23 39 23 52 0 25 2 26 90 45 79 18
82 19 76 29 -7 10 66 46 164 82 65 23 125 72 97 77 -10 2 -20 23 -27 58 -6 30
-16 54 -21 54 -5 0 -9 12 -8 28 0 15 -6 45 -15 67 -18 47 -21 142 -5 147 8 3
8 10 -2 26 -11 18 -11 27 0 54 7 18 15 45 18 60 3 15 13 28 24 31 10 3 19 10
19 16 0 14 -47 15 -55 1 -3 -6 -15 -5 -31 2 -20 10 -27 8 -39 -8 -8 -10 -15
-25 -15 -31 0 -13 -57 -7 -74 8 -5 4 -20 3 -34 -2 -41 -16 -79 31 -52 64 6 7
19 24 31 39 20 27 62 55 87 57 7 1 34 -8 60 -20z m2290 -16 c-10 -2 -18 -9
-18 -14 0 -5 -7 -9 -16 -9 -14 0 -14 3 -4 15 7 8 22 14 34 14 17 -1 17 -2 4
-6z m-1028 -23 c8 -5 11 -12 8 -16 -10 -9 -38 3 -38 16 0 12 10 13 30 0z
m-1513 -16 c-3 -3 -12 -4 -19 -1 -8 3 -5 6 6 6 11 1 17 -2 13 -5z m3108 -4 c3
-5 -1 -10 -9 -10 -8 0 -18 5 -21 10 -3 6 1 10 9 10 8 0 18 -4 21 -10z m1665
-40 c0 -5 -7 -10 -15 -10 -8 0 -15 5 -15 10 0 6 7 10 15 10 8 0 15 -4 15 -10z
m50 -29 c0 -11 6 -21 13 -24 8 -3 6 -7 -6 -12 -10 -4 -28 0 -44 10 -25 17 -26
18 -8 31 26 20 45 17 45 -5z m-2671 -12 c-16 -10 -23 -4 -14 10 3 6 11 8 17 5
6 -4 5 -9 -3 -15z m416 1 c-3 -4 -15 -6 -27 -2 -21 5 -21 6 -2 12 21 8 37 3
29 -10z m-1085 0 c0 -5 -7 -10 -15 -10 -8 0 -15 5 -15 10 0 6 7 10 15 10 8 0
15 -4 15 -10z m-120 -19 c0 -12 -39 -21 -45 -11 -3 5 2 13 12 19 18 10 33 6
33 -8z m725 -11 c-3 -5 -10 -10 -16 -10 -5 0 -9 5 -9 10 0 6 7 10 16 10 8 0
12 -4 9 -10z m1128 -36 c-18 -8 -33 -19 -33 -25 0 -5 -5 -7 -11 -4 -17 11 21
45 50 44 25 -1 25 -1 -6 -15z m-1573 -124 c0 -5 -5 -10 -11 -10 -5 0 -7 5 -4
10 3 6 8 10 11 10 2 0 4 -4 4 -10z m145 0 c8 -13 -15 -13 -35 0 -12 8 -11 10
7 10 12 0 25 -4 28 -10z m-1890 -30 c-3 -5 -13 -10 -21 -10 -8 0 -14 5 -14 10
0 6 9 10 21 10 11 0 17 -4 14 -10z m3577 -21 c41 -8 59 -18 64 -31 9 -28 -15
-50 -50 -47 -17 2 -37 0 -44 -5 -13 -8 -42 15 -42 33 0 6 -7 11 -16 11 -8 0
-12 5 -8 11 3 6 1 15 -6 19 -19 12 -1 32 24 27 11 -3 47 -11 78 -18z m-204
-49 c-15 -24 -40 -30 -64 -17 -17 10 -15 12 21 28 45 20 60 16 43 -11z m-3215
13 c-7 -2 -19 -2 -25 0 -7 3 -2 5 12 5 14 0 19 -2 13 -5z m-86 -11 c9 -6 7
-12 -7 -25 -27 -22 -46 -22 -53 2 -6 25 34 40 60 23z m2333 -32 c0 -5 -4 -10
-10 -10 -5 0 -10 5 -10 10 0 6 5 10 10 10 6 0 10 -4 10 -10z m1360 -15 c0 -16
-30 -55 -41 -55 -15 0 -15 36 -1 53 18 21 42 22 42 2z m-3646 -11 c4 -10 1
-14 -6 -12 -15 5 -23 28 -10 28 5 0 13 -7 16 -16z m6330 7 c6 -9 -35 -24 -43
-15 -6 5 18 24 31 24 4 0 9 -4 12 -9z m-2602 -74 c17 -16 53 -30 107 -41 69
-15 81 -21 81 -38 0 -13 -5 -18 -14 -15 -10 4 -13 1 -10 -8 5 -11 0 -12 -23
-6 -35 10 -124 -1 -105 -13 11 -6 9 -11 -7 -23 -19 -13 -23 -12 -37 1 -8 9
-22 16 -31 16 -10 0 -14 6 -10 20 3 11 2 22 -3 25 -4 3 -8 27 -8 55 0 58 18
66 60 27z m685 -33 c2 -6 -3 -16 -11 -23 -11 -10 -19 -9 -34 0 -16 10 -26 10
-51 -1 -27 -11 -45 -33 -23 -28 16 3 42 -15 42 -29 0 -11 -5 -13 -17 -8 -38
16 -69 17 -82 1 -8 -9 -19 -16 -26 -16 -25 0 -21 35 7 58 15 13 30 31 33 41 5
15 16 18 82 17 46 -1 78 -5 80 -12z m1796 -29 c24 -28 31 -44 29 -69 -4 -37
12 -50 63 -51 20 0 31 -6 33 -17 2 -13 -3 -18 -18 -18 -25 0 -35 -21 -26 -55
7 -26 25 -37 81 -51 21 -5 25 -8 13 -11 -10 -3 -18 -9 -18 -14 0 -5 -9 -9 -20
-9 -16 0 -20 -7 -20 -31 0 -17 5 -39 11 -50 8 -16 7 -25 -8 -41 -22 -25 -117
-68 -149 -68 -25 0 -42 18 -27 29 6 3 8 17 6 31 -1 14 -3 94 -4 177 0 84 -5
155 -10 158 -5 4 -5 13 0 23 4 9 6 30 4 46 -9 64 14 72 60 21z m-1593 10 c0
-11 -50 -27 -50 -16 0 4 6 13 12 19 14 14 39 12 38 -3z m-3020 -15 c0 -5 -2
-10 -4 -10 -3 0 -8 5 -11 10 -3 6 -1 10 4 10 6 0 11 -4 11 -10z m2770 -10 c0
-5 -6 -10 -14 -10 -8 0 -18 5 -21 10 -3 6 3 10 14 10 12 0 21 -4 21 -10z m140
-10 c0 -15 -35 -29 -49 -20 -8 4 -10 13 -7 19 9 14 56 15 56 1z m-2180 -10 c0
-5 -9 -10 -20 -10 -11 0 -20 5 -20 10 0 6 9 10 20 10 11 0 20 -4 20 -10z
m2210 -20 c0 -5 -5 -10 -11 -10 -5 0 -7 5 -4 10 3 6 8 10 11 10 2 0 4 -4 4
-10z m-3217 -41 c-7 -7 -20 -8 -30 -5 -17 7 -17 8 1 22 23 17 48 2 29 -17z
m947 -9 c0 -5 -7 -10 -16 -10 -8 0 -12 5 -9 10 3 6 10 10 16 10 5 0 9 -4 9
-10z m2545 -10 c3 -5 -1 -10 -10 -10 -9 0 -13 5 -10 10 3 6 8 10 10 10 2 0 7
-4 10 -10z m-5045 -30 c0 -5 11 -10 24 -10 47 0 36 -18 -36 -58 -40 -22 -84
-50 -97 -63 -24 -23 -87 -34 -106 -19 -14 11 -48 16 -60 9 -5 -4 -19 -3 -30 1
l-20 8 20 8 c21 8 34 17 65 46 11 10 32 20 47 24 16 3 37 9 48 14 61 25 105
39 105 33 0 -4 5 -2 12 5 15 15 28 16 28 2z m125 0 c-3 -5 -13 -10 -21 -10 -8
0 -14 5 -14 10 0 6 9 10 21 10 11 0 17 -4 14 -10z m3295 -64 c0 -3 -4 -8 -10
-11 -5 -3 -10 -1 -10 4 0 6 5 11 10 11 6 0 10 -2 10 -4z m2026 -32 c14 -9 41
-17 62 -18 27 -1 39 -7 48 -23 6 -13 17 -31 25 -40 8 -10 21 -31 29 -48 8 -16
23 -40 33 -52 11 -12 17 -26 14 -31 -4 -5 1 -31 9 -58 8 -27 13 -62 11 -78 -2
-16 0 -46 5 -65 5 -20 11 -63 13 -95 3 -40 10 -63 20 -68 18 -11 19 -28 4 -61
-13 -29 -82 -46 -105 -26 -8 6 -26 9 -41 6 -26 -5 -72 9 -84 26 -7 10 -49 -9
-49 -23 0 -5 8 -14 18 -19 15 -9 13 -12 -15 -23 -18 -7 -33 -18 -33 -26 0 -11
36 -69 51 -82 9 -7 6 -110 -3 -110 -4 0 -5 -7 -2 -15 3 -8 -1 -29 -10 -46 -20
-40 -21 -36 13 -44 40 -9 58 -30 41 -50 -7 -8 -21 -15 -30 -15 -16 0 -18 -9
-17 -67 0 -38 -3 -80 -7 -95 -7 -24 -5 -29 17 -37 27 -10 42 -37 26 -47 -5 -3
-16 -1 -23 5 -10 9 -15 8 -20 -5 -11 -27 3 -52 35 -63 57 -20 46 -66 -13 -54
l-28 5 6 -48 c4 -27 12 -54 19 -59 7 -6 15 -26 17 -45 2 -29 0 -35 -15 -34
-15 2 -18 -4 -15 -30 2 -22 8 -31 21 -30 19 2 19 2 11 -20 -3 -9 -12 -16 -20
-16 -8 0 -14 -7 -14 -15 0 -8 7 -15 15 -15 8 0 15 4 15 8 0 5 24 10 54 11 41
1 55 -2 60 -14 7 -20 -35 -38 -70 -29 -18 5 -33 -2 -59 -24 -34 -30 -34 -31
-16 -53 17 -21 26 -22 162 -23 122 -1 153 -5 203 -24 73 -27 94 -45 98 -85 2
-26 9 -33 35 -41 18 -5 35 -16 38 -25 2 -9 14 -22 26 -29 18 -12 23 -12 31 0
7 9 8 6 4 -11 -7 -33 19 -81 45 -81 30 0 36 -30 9 -50 -18 -14 -21 -23 -16
-46 4 -16 8 -38 8 -49 0 -40 -15 -116 -23 -121 -5 -3 -9 -18 -9 -35 0 -23 -15
-43 -69 -97 -39 -38 -80 -74 -93 -80 -13 -7 -30 -16 -38 -21 -25 -16 -219
-101 -230 -101 -6 0 -24 -29 -42 -65 -17 -36 -35 -68 -39 -71 -18 -11 -9 -42
14 -48 20 -6 21 -7 4 -17 -10 -6 -25 -8 -33 -5 -10 4 -20 -6 -32 -32 -20 -45
-76 -117 -116 -152 -17 -14 -43 -40 -60 -58 -16 -18 -81 -76 -144 -130 -62
-53 -135 -116 -160 -140 -26 -24 -59 -46 -75 -49 -16 -3 -39 -20 -54 -39 -14
-19 -33 -34 -42 -34 -26 0 -61 -29 -61 -52 0 -17 -4 -19 -26 -14 -20 5 -33 1
-50 -15 -13 -12 -27 -20 -30 -16 -9 9 -75 -20 -89 -39 -6 -9 -24 -17 -41 -17
-16 -1 -37 -10 -46 -20 -19 -18 -54 -24 -43 -7 7 11 -18 14 -29 3 -12 -12
-100 -43 -123 -43 -12 0 -40 -9 -62 -21 -22 -11 -45 -18 -50 -15 -6 4 -8 -7
-4 -29 5 -32 3 -35 -18 -35 -31 0 -48 -11 -62 -40 -13 -24 -85 -49 -162 -55
-59 -5 -115 -27 -115 -46 0 -10 -11 -19 -27 -22 -34 -6 -40 -2 -23 18 18 21 5
31 -23 17 -12 -7 -40 -16 -62 -20 -28 -6 -40 -13 -39 -24 1 -14 -3 -15 -25 -5
-14 6 -30 14 -35 19 -15 12 -26 10 -26 -6 0 -18 -27 -29 -36 -15 -4 6 -19 8
-36 5 -26 -5 -29 -4 -24 17 3 12 3 16 0 10 -8 -18 -22 -16 -50 6 -32 25 -96
36 -123 21 -12 -6 -49 -11 -84 -12 -45 -1 -68 -6 -83 -20 -28 -25 -109 -26
-156 -2 -33 17 -83 15 -83 -3 0 -15 -5 -16 -40 -7 -17 4 -32 1 -44 -10 -22
-20 -61 -21 -61 -1 0 17 -30 35 -58 35 -10 0 -29 11 -41 24 -18 19 -33 25 -64
24 -31 0 -45 5 -55 21 -9 13 -25 21 -41 21 -15 0 -31 4 -37 8 -5 5 -38 19 -74
31 -36 13 -69 27 -74 32 -6 5 -27 9 -48 9 -21 0 -43 7 -50 15 -32 38 -60 65
-68 65 -18 0 -41 33 -35 51 5 14 0 22 -19 29 -14 5 -26 14 -26 20 0 5 -12 13
-27 16 -29 8 -58 32 -201 176 -48 47 -102 93 -119 102 -18 9 -33 23 -33 30 0
45 -164 71 -318 49 -55 -7 -101 -9 -110 -4 -10 5 -48 12 -87 16 -75 7 -251 61
-312 95 -21 12 -60 37 -87 56 -31 21 -60 34 -75 33 -30 -2 -81 16 -81 29 0 5
-11 14 -25 20 -14 6 -25 17 -25 24 0 7 -10 18 -23 23 -30 13 -35 51 -8 58 27
7 27 24 1 32 -28 9 -25 25 4 25 36 0 40 16 17 54 l-21 34 30 12 c30 12 41 42
20 55 -6 4 -3 16 10 32 11 14 20 42 21 62 1 48 8 63 50 108 33 35 100 130 124
174 5 11 14 19 19 19 5 0 30 10 54 21 28 14 70 23 113 26 99 5 115 13 116 57
1 19 -5 40 -13 47 -15 13 -19 34 -5 24 10 -5 51 45 51 63 0 17 -39 25 -55 12
-8 -6 -22 -10 -32 -8 -14 3 -11 8 15 21 17 10 32 24 32 32 0 8 12 26 26 42 23
25 25 32 19 90 -5 52 -3 64 9 69 20 8 21 24 1 24 -21 0 -19 12 5 33 24 20 25
33 5 41 -17 6 -21 46 -5 46 15 0 12 26 -5 40 -14 12 -13 16 6 37 13 12 28 23
36 23 21 0 16 7 -36 59 -49 49 -55 80 -13 69 13 -4 23 0 26 8 3 8 12 14 20 14
7 0 16 7 20 15 4 10 -1 15 -14 15 -13 0 -20 7 -20 20 0 25 -16 26 -29 1 -15
-27 -57 -32 -77 -10 -22 24 -36 24 -65 0 -19 -15 -21 -21 -11 -34 7 -8 15 -31
17 -52 4 -30 0 -41 -24 -65 -34 -34 -48 -79 -29 -91 17 -11 48 -11 48 0 0 15
49 19 67 6 15 -11 14 -14 -15 -29 -17 -9 -39 -16 -50 -16 -10 0 -27 -7 -38
-15 -10 -8 -27 -15 -36 -15 -19 0 -26 -20 -8 -20 6 0 10 -9 10 -20 0 -11 -4
-20 -10 -20 -5 0 -10 -7 -10 -16 0 -18 -38 -53 -59 -54 -7 0 -11 -6 -8 -14 3
-8 -2 -16 -15 -19 -27 -8 -17 -32 13 -32 32 0 81 -26 76 -39 -2 -6 -15 -11
-28 -11 -13 0 -29 -3 -36 -8 -6 -4 -19 -4 -30 -1 -13 4 -15 3 -4 -4 15 -11 6
-19 -38 -32 -24 -7 -30 -5 -34 10 -2 9 0 25 5 34 5 10 7 28 4 42 -4 13 -3 24
2 24 9 0 32 44 32 62 0 6 -9 8 -20 5 -11 -3 -20 -1 -20 4 0 5 10 9 23 9 20 1
21 2 5 14 -23 17 -23 26 2 26 21 0 29 34 10 45 -8 5 -7 11 1 21 14 17 6 20
-76 28 -59 5 -61 4 -73 -22 -6 -15 -21 -40 -34 -55 -23 -28 -23 -29 -4 -43 17
-12 17 -14 4 -14 -9 0 -20 4 -23 10 -3 6 -18 10 -33 10 -15 0 -37 7 -49 15
-12 8 -32 14 -45 13 -21 -3 -23 0 -20 37 4 57 8 65 37 65 14 0 25 5 25 10 0 6
-20 8 -54 4 -44 -5 -58 -3 -82 14 -16 11 -65 30 -109 42 -85 24 -154 64 -155
91 0 28 44 84 68 85 23 1 45 14 24 14 -22 0 -12 19 17 34 37 20 88 70 96 97 4
12 1 66 -6 120 -17 138 -11 149 83 144 74 -5 88 -9 88 -28 1 -7 12 -25 25 -42
20 -24 32 -29 65 -29 22 1 46 6 53 12 7 7 64 13 126 16 127 5 135 0 107 -58
-9 -19 -16 -39 -16 -44 0 -5 -11 -30 -25 -53 -14 -24 -25 -55 -25 -69 0 -14
-7 -34 -15 -44 -30 -40 -15 -96 41 -151 16 -16 38 -41 47 -55 24 -35 38 -15
44 64 3 36 10 66 15 66 5 0 6 5 2 12 -4 6 0 16 9 22 8 7 18 32 20 56 7 62 16
80 34 73 12 -5 14 -1 9 14 -7 23 14 33 77 33 40 0 44 -5 22 -34 -10 -13 -22
-17 -40 -14 -16 4 -32 -1 -42 -11 -9 -9 -18 -15 -20 -13 -2 1 -3 0 -3 -3 0
-49 -1 -47 35 -41 30 6 38 3 61 -24 37 -41 46 -38 43 13 -3 38 -1 42 19 41 22
-1 30 20 12 31 -6 3 -8 26 -6 51 3 24 0 44 -5 44 -5 0 -9 7 -9 15 0 10 -10 15
-26 15 -23 0 -25 3 -19 23 4 12 7 30 6 40 0 16 5 17 32 10 18 -4 50 -7 72 -6
22 1 49 -2 60 -7 60 -27 148 -44 237 -44 95 -1 99 0 124 27 16 18 33 27 44 24
10 -3 33 5 52 16 29 18 30 21 13 25 -40 9 -48 52 -10 52 17 0 28 -7 34 -22 8
-21 10 -21 16 -5 4 9 2 24 -5 32 -7 9 -11 17 -9 18 2 1 25 13 51 25 26 13 50
27 53 33 4 5 17 9 30 9 13 0 28 8 34 18 7 13 24 17 76 18 62 1 69 4 97 35 17
18 31 38 32 43 1 6 18 29 39 51 43 46 46 61 15 71 -21 6 -21 7 -3 20 10 8 29
14 42 14 15 0 24 7 29 24 3 13 16 29 30 36 13 8 33 28 43 46 18 30 23 32 56
27 20 -3 51 -19 68 -34 17 -16 50 -41 74 -56 36 -23 43 -32 43 -59 0 -18 -5
-34 -11 -36 -7 -2 -1 -16 15 -32 14 -16 26 -34 26 -40 0 -6 4 -5 9 3 7 11 11
9 20 -7 10 -19 6 -27 -26 -60 -21 -21 -46 -41 -55 -45 -10 -4 -18 -17 -18 -30
0 -19 9 -27 40 -40 22 -8 40 -22 40 -30 0 -17 21 -27 55 -27 12 0 28 -7 35
-15 18 -22 32 -8 28 28 -3 31 -1 32 31 29 19 -1 37 2 41 8 3 5 28 13 56 17 29
3 54 13 61 23 7 10 46 32 87 50 71 31 88 50 46 50 -10 0 -23 -6 -27 -12 -8
-13 -45 -18 -118 -17 -106 2 -145 5 -151 12 -15 14 9 22 59 20 31 -2 66 4 86
13 28 14 40 14 77 4 73 -21 183 -2 224 37 8 8 30 23 48 34 18 10 40 35 49 54
9 19 20 35 25 35 4 0 8 5 8 10 0 6 9 20 20 32 21 23 27 48 10 48 -20 0 -9 27
24 64 43 46 56 94 31 112 -9 7 -14 18 -10 24 5 8 11 8 21 -1 18 -15 31 -3 36
31 2 18 12 28 36 35 17 5 32 15 32 22 0 11 4 11 23 1 62 -36 69 -55 38 -111
-17 -31 -17 -34 -2 -45 15 -10 15 -12 -1 -22 -21 -13 -24 -56 -5 -63 9 -3 9
-8 -2 -21 -12 -14 -12 -23 -2 -52 12 -32 11 -36 -11 -53 -22 -18 -22 -20 -5
-38 9 -11 17 -31 17 -45 0 -15 7 -29 18 -33 28 -11 114 -25 161 -27 40 -1 48
3 83 40 26 28 36 46 31 58 -4 10 1 22 12 30 9 7 15 20 12 28 -4 9 7 24 29 41
41 31 69 27 60 -9 -9 -36 23 -59 68 -51 20 4 39 11 42 16 3 5 25 9 49 9 44 0
64 -17 42 -39 -14 -14 -57 -15 -57 -1 0 5 -7 7 -15 4 -24 -9 -18 -23 13 -29
15 -4 46 -11 68 -16 46 -12 91 4 117 41 7 11 16 17 19 14 5 -5 53 19 103 52
27 18 24 35 -12 74 -22 24 -23 24 -52 7 -37 -22 -38 -22 -45 8 -4 14 -13 25
-22 25 -8 0 -12 -4 -9 -10 3 -5 -1 -10 -10 -10 -10 0 -13 5 -9 12 5 8 0 9 -17
4 -54 -16 -100 -10 -106 13 -5 19 -38 35 -46 22 -2 -3 -2 -1 -1 6 2 7 -9 22
-23 33 -21 16 -24 23 -14 33 9 9 16 9 32 -1 23 -15 41 -2 53 36 6 19 4 22 -18
22 -14 0 -28 -5 -32 -11 -4 -7 -10 -7 -16 -1 -11 11 26 78 52 92 28 15 6 66
-34 77 -26 7 -31 14 -31 38 0 26 3 30 25 27 34 -3 39 -3 83 4 41 7 46 0 20
-28 -13 -14 -14 -21 -5 -30 7 -7 12 -20 12 -29 0 -10 5 -19 11 -21 5 -2 13
-22 16 -44 3 -28 12 -43 26 -50 23 -10 37 -37 15 -29 -8 3 -22 -3 -32 -14 -23
-26 -10 -85 21 -89 12 -2 38 -19 59 -39 l38 -36 9 26 c8 25 32 37 77 37 14 0
40 9 58 20 39 24 37 24 56 5 14 -14 19 -12 56 21 40 36 52 62 28 61 -7 0 -26
1 -42 1 -24 2 -27 4 -16 17 7 8 16 13 20 10 5 -3 10 1 13 7 3 10 7 10 20 0 9
-8 22 -10 29 -6 22 14 48 38 48 45 0 13 -33 19 -46 8 -8 -6 -25 -9 -39 -7 -14
3 -25 1 -25 -3 0 -5 -4 -9 -10 -9 -18 0 -10 18 10 25 11 4 18 11 14 16 -3 6 3
13 14 16 23 6 24 31 3 75 -17 34 -92 49 -117 23 -19 -18 -39 -15 -39 6 0 8 10
15 23 17 18 3 21 6 12 17 -38 45 57 39 105 -6 17 -16 40 -29 51 -29 28 0 36
-10 23 -26 -15 -18 17 -32 34 -15 6 6 24 11 39 11 33 0 51 -33 46 -84 l-3 -31
72 0 c78 0 93 -11 49 -35 -22 -12 -30 -12 -33 -2 -8 21 -50 14 -66 -12 -19
-29 -13 -37 24 -29 19 3 37 -1 56 -14 32 -23 109 -38 118 -24 3 5 -5 17 -17
26 -20 13 -21 17 -8 25 8 6 26 9 40 8 16 -2 24 2 23 10 -2 6 4 12 12 12 8 0
15 -5 15 -12 0 -21 53 -68 76 -68 12 0 34 -10 50 -22 15 -13 36 -21 46 -20 10
2 35 -10 55 -27 21 -16 52 -33 68 -37 17 -4 38 -13 47 -22 20 -16 14 -36 -8
-28 -22 8 -44 -4 -44 -25 0 -10 4 -19 9 -19 5 0 11 -6 13 -13 2 -11 9 -11 38
1 49 21 60 22 60 6 0 -17 26 -19 34 -1 5 10 7 10 12 0 8 -19 28 -16 48 6 17
19 17 21 0 50 -10 17 -22 31 -26 31 -18 0 -6 21 17 32 19 8 28 8 40 -2 9 -7
15 -8 15 -2 0 6 -6 13 -12 16 -10 5 -10 7 0 12 17 8 15 44 -4 65 -9 10 -24 32
-33 51 -12 22 -28 35 -46 38 -15 3 -33 13 -39 23 -9 15 -6 22 15 40 22 18 25
26 18 45 -5 12 -20 27 -34 32 -14 5 -25 16 -25 25 0 8 -7 15 -15 15 -9 0 -15
9 -15 21 0 12 -13 38 -30 59 -16 21 -30 43 -30 49 0 16 27 13 56 -5z m-5906
-44 c0 -5 -5 -10 -11 -10 -5 0 -7 5 -4 10 3 6 8 10 11 10 2 0 4 -4 4 -10z
m3491 -70 c11 0 18 -4 14 -9 -3 -5 -18 -8 -33 -6 -15 2 -31 4 -35 4 -5 1 -5 6
-2 12 4 6 14 8 22 5 8 -3 24 -6 34 -6z m1312 -126 c14 -14 -7 -34 -37 -34 -38
0 -47 6 -39 26 5 14 64 20 76 8z m2452 -54 c3 -5 2 -10 -4 -10 -5 0 -13 5 -16
10 -3 6 -2 10 4 10 5 0 13 -4 16 -10z m-3628 -26 c-20 -11 -27 -22 -27 -43 0
-16 7 -31 15 -35 26 -9 17 -26 -14 -26 -17 0 -33 -5 -37 -11 -3 -6 -21 -17
-40 -25 -42 -18 -78 -4 -99 39 -16 32 -6 67 20 67 8 0 15 7 15 16 0 12 8 14
45 8 29 -4 45 -3 45 4 0 12 19 17 70 19 l35 1 -28 -14z m1373 -4 c0 -5 -7 -10
-16 -10 -8 0 -12 5 -9 10 3 6 10 10 16 10 5 0 9 -4 9 -10z m723 -27 c-7 -2
-19 -2 -25 0 -7 3 -2 5 12 5 14 0 19 -2 13 -5z m237 -63 c0 -5 -4 -10 -10 -10
-5 0 -10 5 -10 10 0 6 5 10 10 10 6 0 10 -4 10 -10z m-1440 -77 c0 -3 -6 -1
-12 5 -7 6 -17 10 -23 9 -5 -1 -12 9 -14 23 l-3 25 26 -28 c14 -15 26 -31 26
-34z m-1178 30 c25 -22 23 -36 -4 -27 -31 9 -49 24 -42 35 8 14 25 11 46 -8z
m-2512 -33 c-8 -5 -17 -7 -19 -4 -3 3 1 9 9 14 8 5 17 7 19 4 3 -3 -1 -9 -9
-14z m2580 0 c0 -5 -4 -10 -10 -10 -5 0 -10 5 -10 10 0 6 5 10 10 10 6 0 10
-4 10 -10z m990 -10 c0 -5 -4 -10 -10 -10 -5 0 -10 5 -10 10 0 6 5 10 10 10 6
0 10 -4 10 -10z m2590 -5 c0 12 142 7 150 -5 3 -4 16 -10 30 -13 17 -4 26 -14
27 -27 2 -20 -1 -21 -125 -14 -109 5 -129 9 -144 26 -10 11 -22 17 -28 13 -5
-3 -7 0 -5 8 4 8 16 12 34 9 16 -2 32 1 36 8 6 9 10 9 16 -1 5 -8 9 -9 9 -4z
m-2147 -76 c-18 -11 -37 -18 -43 -14 -19 12 10 35 44 35 l31 0 -32 -21z m-125
-37 c4 -24 -9 -28 -39 -11 -20 10 -20 11 -2 24 23 18 37 14 41 -13z m-973 -21
c-3 -6 -11 -8 -17 -5 -6 4 -5 9 3 15 16 10 23 4 14 -10z m2219 -265 c-3 -9
-10 -16 -15 -16 -14 0 -11 28 4 33 16 6 19 3 11 -17z m54 5 c3 -8 -1 -12 -9
-9 -7 2 -15 10 -17 17 -3 8 1 12 9 9 7 -2 15 -10 17 -17z m-3748 -20 c0 -5 -7
-12 -16 -15 -22 -9 -24 -8 -24 9 0 8 9 15 20 15 11 0 20 -4 20 -9z m-408 -49
c-34 -4 -76 14 -67 28 3 5 26 1 52 -8 45 -17 45 -17 15 -20z m5864 24 c19 -14
18 -15 -5 -35 -28 -24 -33 -25 -49 -9 -37 37 10 76 54 44z m-5701 -40 c22 -20
23 -25 10 -36 -13 -10 -15 -9 -15 9 0 12 -4 20 -10 16 -15 -9 -60 6 -60 21 0
22 46 16 75 -10z m-2115 -10 c0 -11 -19 -15 -25 -6 -3 5 1 10 9 10 9 0 16 -2
16 -4z m2220 -27 c0 -6 -4 -7 -10 -4 -5 3 -10 11 -10 16 0 6 5 7 10 4 6 -3 10
-11 10 -16z m5585 -9 c3 -5 -1 -10 -9 -10 -9 0 -16 5 -16 10 0 6 4 10 9 10 6
0 13 -4 16 -10z m-5785 -25 c0 -9 -9 -15 -25 -15 -24 0 -32 10 -18 23 12 13
43 7 43 -8z m6080 0 c0 -8 -7 -15 -15 -15 -8 0 -15 7 -15 15 0 8 7 15 15 15 8
0 15 -7 15 -15z m-7910 -35 c0 -5 -4 -10 -10 -10 -5 0 -10 5 -10 10 0 6 5 10
10 10 6 0 10 -4 10 -10z m-244 -84 c15 -13 22 -26 17 -29 -13 -8 -53 21 -53
39 0 20 7 18 36 -10z m91 -22 c-3 -3 -12 -4 -19 -1 -8 3 -5 6 6 6 11 1 17 -2
13 -5z m6030 -9 c9 -25 -2 -27 -22 -5 -17 18 -17 20 -1 20 9 0 19 -7 23 -15z
m-5917 -11 c0 -12 -4 -14 -12 -7 -7 6 -20 13 -28 16 -9 3 -3 6 13 6 19 1 27
-4 27 -15z m1440 6 c0 -5 -4 -10 -10 -10 -5 0 -10 5 -10 10 0 6 5 10 10 10 6
0 10 -4 10 -10z m5758 -38 c19 -25 15 -52 -9 -52 -49 0 -74 35 -47 64 15 15
37 10 56 -12z m-918 -219 c20 -23 42 -74 36 -80 -3 -3 6 -22 20 -42 28 -41 22
-47 -35 -31 -41 11 -57 33 -45 65 4 10 1 20 -6 25 -11 7 -11 11 -1 24 7 8 10
24 6 36 -8 25 5 26 25 3z m-6580 -23 c0 -5 -7 -10 -15 -10 -8 0 -15 5 -15 10
0 6 7 10 15 10 8 0 15 -4 15 -10z m8110 -30 c-22 -14 -40 -12 -40 4 0 17 31
26 45 14 6 -6 5 -12 -5 -18z m-6330 -46 c0 -11 -5 -14 -16 -10 -9 3 -20 6 -25
6 -21 0 -7 16 16 18 17 1 25 -3 25 -14z m6308 -7 c3 -14 -1 -18 -20 -15 -12 2
-24 11 -26 21 -3 14 1 18 20 15 12 -2 24 -11 26 -21z m-1579 -38 c-22 -14 -33
-10 -19 6 7 8 17 12 22 9 6 -4 5 -10 -3 -15z m31 -121 c-11 -12 -23 -18 -27
-14 -5 4 1 14 11 22 30 21 39 17 16 -8z m-5711 -77 c7 -12 28 -22 58 -27 60
-11 67 -37 11 -42 -30 -3 -40 1 -54 22 -9 14 -22 26 -30 26 -7 0 -18 9 -24 20
-9 17 -8 20 9 20 11 0 25 -8 30 -19z m-159 -16 c11 -13 10 -14 -4 -9 -9 3 -16
10 -16 15 0 13 6 11 20 -6z m7267 9 c-3 -3 -12 -4 -19 -1 -8 3 -5 6 6 6 11 1
17 -2 13 -5z m-7137 -106 c0 -13 -23 -5 -28 10 -2 7 2 10 12 6 9 -3 16 -11 16
-16z m110 -43 c10 -12 10 -15 -4 -15 -9 0 -16 7 -16 15 0 8 2 15 4 15 2 0 9
-7 16 -15z m760 -15 c0 -5 -5 -10 -11 -10 -5 0 -7 5 -4 10 3 6 8 10 11 10 2 0
4 -4 4 -10z m-303 -32 c-3 -8 -6 -5 -6 6 -1 11 2 17 5 13 3 -3 4 -12 1 -19z
m-596 -119 c-5 -13 -7 -56 -5 -94 l3 -70 31 3 c20 2 36 -2 43 -12 7 -8 28 -17
47 -19 31 -3 35 -7 38 -35 2 -22 -1 -32 -11 -32 -22 0 -27 11 -16 33 8 14 8
18 0 12 -7 -4 -20 -3 -29 1 -9 4 -27 6 -40 5 -28 -3 -108 35 -116 55 -3 8 -1
26 4 40 6 14 8 29 5 33 -7 12 15 81 26 81 6 0 7 5 4 10 -9 14 5 34 17 22 5 -5
5 -18 -1 -33z m7539 21 c0 -12 -40 -28 -64 -26 -32 4 -40 11 -31 26 6 10 95
10 95 0z m-131 -67 c-1 -10 1 -25 5 -34 4 -8 0 -28 -8 -45 -14 -25 -21 -29
-66 -31 -27 -1 -50 2 -50 5 0 9 107 118 118 121 2 1 2 -7 1 -16z m-1164 -55
c6 -31 13 -60 18 -64 4 -4 7 -17 7 -29 0 -11 6 -27 13 -34 10 -11 9 -14 -1
-18 -26 -10 -42 -35 -36 -58 3 -12 1 -26 -5 -30 -6 -3 -8 -17 -5 -31 5 -18 2
-24 -11 -24 -14 0 -15 -3 -6 -14 13 -16 1 -29 -16 -18 -6 4 -13 17 -17 30 -6
17 -3 22 11 22 15 0 16 2 3 10 -8 5 -10 10 -5 10 6 0 17 27 24 61 11 55 10 63
-5 80 -14 16 -15 23 -5 45 14 32 7 44 -26 44 -19 0 -24 4 -19 16 4 9 1 23 -5
30 -9 11 -7 14 10 14 11 0 21 5 21 11 0 6 10 9 23 7 18 -2 24 -12 32 -60z
m-5660 42 c3 -5 -1 -10 -9 -10 -9 0 -16 5 -16 10 0 6 4 10 9 10 6 0 13 -4 16
-10z m145 -10 c0 -5 -13 -10 -30 -10 -16 0 -30 5 -30 10 0 6 14 10 30 10 17 0
30 -4 30 -10z m-81 -26 c10 -9 -35 -3 -49 6 -11 8 -7 9 15 4 17 -4 32 -8 34
-10z m5446 -25 c6 -19 8 -19 19 -3 10 13 15 14 20 5 11 -16 5 -21 -36 -27 -28
-5 -36 -2 -42 12 -4 10 -1 21 6 26 20 12 26 10 33 -13z m-6055 1 c0 -5 -4 -10
-10 -10 -5 0 -10 5 -10 10 0 6 5 10 10 10 6 0 10 -4 10 -10z m623 -17 c-18 -7
-16 -33 2 -33 8 0 15 -4 15 -10 0 -16 -46 -12 -60 5 -19 22 -5 45 27 44 15 0
22 -3 16 -6z m-1348 -43 c18 -19 17 -20 -2 -20 -22 0 -47 23 -36 33 10 11 19
8 38 -13z m1393 -73 c5 -23 -33 -30 -68 -12 -43 22 -37 31 18 29 33 -1 48 -6
50 -17z m-648 -67 c0 -5 -7 -10 -16 -10 -8 0 -12 5 -9 10 3 6 10 10 16 10 5 0
9 -4 9 -10z m150 -32 c0 -5 7 -16 15 -24 22 -23 18 -31 -17 -36 -45 -7 -76 17
-73 57 2 16 3 31 4 32 4 5 71 -22 71 -29z m-320 -86 c0 -10 5 -23 12 -30 9 -9
7 -13 -6 -18 -30 -11 -43 -55 -40 -134 1 -48 -2 -78 -9 -83 -8 -6 -6 -7 5 -3
13 4 20 -2 24 -20 8 -32 -3 -39 -64 -48 -38 -5 -47 -3 -59 13 -12 18 -53 36
-101 46 -11 2 -30 8 -41 14 -11 6 -36 11 -56 11 -20 0 -45 5 -56 11 -11 5 -52
13 -92 16 -75 6 -117 23 -117 48 0 14 22 20 60 17 8 -1 22 2 30 5 8 4 35 8 60
9 24 2 46 7 47 11 2 5 22 7 44 5 23 -3 39 0 36 4 -3 5 33 10 79 11 60 1 88 6
99 17 14 13 13 16 -2 24 -14 9 -15 13 -4 26 7 9 19 16 25 16 6 0 20 11 31 25
26 31 95 36 95 7z m7030 -42 c0 -5 -9 -10 -19 -10 -11 0 -23 5 -26 10 -4 6 5
10 19 10 14 0 26 -4 26 -10z m-6690 -9 c0 -6 -4 -12 -9 -15 -13 -8 -42 4 -35
15 7 12 44 12 44 0z m-1 -82 c-19 -11 -20 -6 -6 24 11 25 12 25 15 6 2 -12 -2
-25 -9 -30z m-279 -15 c0 -18 -24 -18 -39 0 -10 11 -8 15 6 18 23 6 33 0 33
-18z m116 -15 c3 -6 2 -15 -2 -19 -12 -12 -38 5 -30 19 9 14 23 14 32 0z m234
-39 c0 -5 -2 -10 -4 -10 -3 0 -8 5 -11 10 -3 6 -1 10 4 10 6 0 11 -4 11 -10z
m-43 -30 c10 -27 9 -30 -7 -30 -10 0 -26 7 -35 16 -14 15 -14 17 2 30 25 19
27 18 40 -16z m6426 -43 c9 -3 17 -11 17 -17 0 -12 -47 -13 -54 -1 -8 12 5 45
13 34 3 -5 14 -12 24 -16z m-6743 -21 c0 -24 -12 -46 -24 -46 -15 0 -17 30 -3
48 13 16 27 15 27 -2z m145 -6 c-3 -5 -13 -10 -21 -10 -8 0 -14 5 -14 10 0 6
9 10 21 10 11 0 17 -4 14 -10z m6864 4 c17 -4 31 -11 31 -16 0 -5 -12 -7 -27
-4 -44 9 -71 -18 -37 -37 21 -12 17 -27 -7 -27 -11 0 -27 -7 -35 -15 -9 -8
-20 -15 -25 -15 -5 0 -9 7 -9 15 0 8 -9 15 -20 15 -11 0 -20 5 -20 10 0 6 8
10 18 10 19 0 44 24 55 53 7 18 26 21 76 11z m34 -219 c-4 -15 -36 -12 -41 3
-3 9 3 13 19 10 13 -1 23 -7 22 -13z m-1283 1 c0 -3 -4 -8 -10 -11 -5 -3 -10
-1 -10 4 0 6 5 11 10 11 6 0 10 -2 10 -4z m1285 -47 c10 -15 -1 -23 -20 -15
-9 3 -13 10 -10 16 8 13 22 13 30 -1z m-7945 -115 c0 -8 -4 -12 -10 -9 -5 3
-10 10 -10 16 0 5 5 9 10 9 6 0 10 -7 10 -16z m120 -24 c0 -5 -4 -10 -10 -10
-5 0 -10 5 -10 10 0 6 5 10 10 10 6 0 10 -4 10 -10z m95 0 c3 -5 -3 -10 -14
-10 -12 0 -21 5 -21 10 0 6 6 10 14 10 8 0 18 -4 21 -10z m105 -4 c0 -11 -19
-15 -25 -6 -3 5 1 10 9 10 9 0 16 -2 16 -4z m6219 -25 c-6 -16 -17 -32 -25
-35 -8 -3 -14 -18 -14 -33 0 -21 7 -31 28 -40 30 -14 68 -8 76 12 3 8 13 11
26 8 19 -5 19 -7 5 -23 -8 -9 -15 -25 -15 -36 0 -15 -2 -16 -9 -5 -6 9 -11 -4
-17 -40 -4 -30 -7 -59 -6 -66 3 -17 -35 -35 -58 -28 -10 3 -21 1 -25 -5 -4 -7
-25 -8 -56 -4 -31 4 -54 2 -62 -5 -19 -15 -74 4 -88 30 -6 13 -6 19 1 19 5 0
10 6 10 13 0 8 9 22 20 32 11 10 17 21 15 26 -3 4 5 11 17 14 29 9 68 44 68
62 0 7 6 13 14 13 8 0 18 9 21 21 4 11 20 33 36 50 16 16 29 34 29 39 0 6 4
10 9 10 6 0 6 -11 0 -29z m-6139 5 c0 -8 14 -18 33 -22 17 -3 48 -15 67 -25
19 -11 56 -22 82 -25 59 -8 81 -29 53 -50 -11 -8 -26 -12 -34 -9 -8 3 -18 0
-22 -7 -6 -9 -13 -9 -31 -1 -13 7 -40 17 -60 24 -24 8 -33 16 -26 20 8 5 2 10
-15 14 -15 4 -27 13 -27 20 0 7 -9 15 -21 18 -13 4 -18 10 -13 18 4 7 -1 18
-11 26 -18 12 -18 13 3 13 12 0 22 -6 22 -14z m7353 -25 c8 -16 12 -41 9 -56
-3 -17 0 -30 9 -36 11 -7 10 -9 -4 -9 -21 0 -107 59 -107 73 0 16 43 55 62 56
9 1 23 -12 31 -28z m-706 -58 c-3 -47 -8 -60 -29 -76 -14 -10 -34 -17 -44 -14
-17 4 -17 6 4 12 27 9 28 22 3 30 -11 3 -22 12 -25 20 -6 16 30 55 50 55 6 0
17 7 24 15 19 23 21 19 17 -42z m-5027 -47 c0 -2 -7 -6 -15 -10 -8 -3 -15 -1
-15 4 0 6 7 10 15 10 8 0 15 -2 15 -4z m5800 -6 c8 -5 11 -12 8 -16 -4 -3 -14
1 -23 10 -18 17 -9 21 15 6z m-686 -29 c3 -5 -1 -12 -10 -15 -25 -10 -34 -7
-34 9 0 16 35 21 44 6z m-4706 -23 c3 -17 -29 -30 -48 -18 -8 5 -7 12 5 24 20
19 39 17 43 -6z m-1608 -18 c0 -5 -2 -10 -4 -10 -3 0 -8 5 -11 10 -3 6 -1 10
4 10 6 0 11 -4 11 -10z m6255 0 c-3 -5 -10 -10 -16 -10 -5 0 -9 5 -9 10 0 6 7
10 16 10 8 0 12 -4 9 -10z m-6157 -40 c22 -11 52 -20 65 -20 37 0 50 -36 43
-115 -7 -78 -10 -83 -42 -95 -26 -10 -32 -34 -11 -47 8 -5 -2 -11 -28 -18 -56
-16 -88 -64 -80 -119 4 -23 7 -53 9 -69 1 -15 6 -30 9 -34 10 -10 8 -23 -3
-23 -5 0 -10 7 -10 15 0 9 -9 15 -25 15 -14 0 -25 6 -25 13 -1 14 -72 61 -110
72 -14 4 -39 21 -56 37 -23 21 -39 29 -59 26 -16 -1 -30 2 -32 8 -5 15 41 23
62 11 12 -6 31 -5 57 4 33 11 41 10 48 -1 7 -12 12 -11 29 4 15 14 18 26 14
53 -5 32 -4 35 15 29 33 -11 35 11 2 44 -32 33 -39 53 -16 44 28 -11 27 18 -3
52 -17 19 -31 37 -31 40 0 11 46 43 62 44 9 0 25 11 35 25 22 30 28 30 81 5z
m1446 -3 c-2 -7 9 -20 26 -30 30 -18 39 -40 20 -52 -5 -3 -10 -24 -10 -46 0
-47 -15 -79 -36 -79 -11 0 -14 -8 -12 -27 2 -16 8 -28 15 -28 20 0 27 -14 9
-21 -19 -7 -14 -38 13 -67 15 -17 14 -20 -4 -33 -13 -9 -19 -24 -17 -39 3 -19
0 -23 -18 -18 -25 7 -32 17 -37 57 -8 59 -8 181 0 203 6 17 3 27 -12 40 -26
22 -27 33 -1 33 32 0 28 57 -5 70 -28 11 -31 20 -13 38 17 17 89 16 82 -1z
m3666 -12 c0 -8 -7 -15 -15 -15 -16 0 -20 12 -8 23 11 12 23 8 23 -8z m-4961
-9 c9 -11 8 -15 -5 -20 -26 -10 -34 -7 -34 14 0 23 22 27 39 6z m6420 -12 c1
-10 10 -27 18 -36 21 -23 13 -53 -14 -53 -13 0 -22 -4 -22 -10 1 -5 5 -9 10
-7 5 1 9 -2 9 -8 0 -5 -4 -10 -10 -10 -22 0 -8 -20 18 -26 40 -10 43 -13 32
-35 -10 -17 -18 -19 -59 -13 -31 4 -51 2 -55 -5 -11 -17 -44 -13 -65 7 -43 41
-54 96 -20 105 17 5 19 9 10 26 -17 30 -13 41 13 41 13 0 26 7 30 15 3 9 18
15 35 15 16 0 33 5 36 11 10 15 29 5 34 -17z m-6379 6 c0 -5 -4 -10 -10 -10
-5 0 -10 5 -10 10 0 6 5 10 10 10 6 0 10 -4 10 -10z m6204 -16 c9 -23 8 -24
-13 -24 -14 0 -18 5 -14 20 6 24 19 26 27 4z m-6734 -28 c0 -3 -4 -8 -10 -11
-5 -3 -10 -1 -10 4 0 6 5 11 10 11 6 0 10 -2 10 -4z m-120 -26 c11 -11 26 -20
33 -20 6 0 23 -12 36 -25 13 -14 27 -25 32 -25 20 0 8 -38 -13 -44 -30 -8 -43
-8 -35 1 11 10 -13 33 -34 33 -22 0 -62 32 -91 73 l-19 27 35 0 c23 0 43 -7
56 -20z m1400 -16 c0 -8 -5 -12 -10 -9 -6 4 -8 11 -5 16 9 14 15 11 15 -7z
m4040 6 c0 -5 -2 -10 -4 -10 -3 0 -8 5 -11 10 -3 6 -1 10 4 10 6 0 11 -4 11
-10z m890 -60 c0 -5 -7 -10 -15 -10 -8 0 -15 5 -15 10 0 6 7 10 15 10 8 0 15
-4 15 -10z m210 0 c13 -9 13 -11 0 -20 -19 -13 -34 -8 -38 13 -4 19 15 22 38
7z m-885 -40 c3 -5 -1 -10 -10 -10 -9 0 -13 5 -10 10 3 6 8 10 10 10 2 0 7 -4
10 -10z m970 -30 c3 -5 -3 -10 -14 -10 -12 0 -21 5 -21 10 0 6 6 10 14 10 8 0
18 -4 21 -10z m-1545 -42 c13 -17 15 -27 8 -35 -16 -20 -34 -15 -47 13 -20 45
7 60 39 22z m-5230 -32 c0 -16 -37 -32 -48 -21 -7 7 25 35 40 35 4 0 8 -6 8
-14z m1320 -22 c0 -8 -7 -14 -16 -14 -9 0 -23 -8 -31 -17 -13 -16 -14 -15 -8
12 4 16 11 33 17 36 16 10 38 -1 38 -17z m-1248 -56 c-6 -6 -16 -7 -22 -3 -9
6 -9 9 1 16 17 10 34 0 21 -13z m1268 -19 c0 -5 -5 -9 -11 -9 -8 0 -8 -4 0
-14 15 -18 3 -25 -29 -16 -22 6 -23 8 -7 15 10 4 16 13 13 20 -2 7 -2 15 1 18
7 8 33 -3 33 -14z m-100 -45 c0 -8 -7 -14 -15 -14 -15 0 -21 21 -9 33 10 9 24
-2 24 -19z m1800 -25 c0 -5 -4 -9 -10 -9 -5 0 -10 7 -10 16 0 8 5 12 10 9 6
-3 10 -10 10 -16z m2010 -13 c5 -13 15 -26 22 -29 7 -2 10 -7 6 -11 -3 -4 -15
-2 -26 5 -17 10 -23 10 -36 0 -9 -8 -16 -21 -17 -30 0 -9 -9 2 -19 24 l-19 39
32 12 c46 17 47 16 57 -10z m-4600 -6 c0 -5 -4 -10 -9 -10 -6 0 -13 5 -16 10
-3 6 1 10 9 10 9 0 16 -4 16 -10z m4227 -40 c14 -11 34 -20 44 -20 20 0 26
-15 9 -25 -5 -3 -7 -12 -3 -20 3 -8 0 -15 -7 -15 -13 0 -3 -43 11 -48 5 -2 9
-19 9 -39 0 -26 -5 -36 -20 -40 -11 -3 -20 -9 -20 -14 0 -5 7 -6 15 -3 8 4 15
2 15 -4 0 -5 -7 -13 -16 -16 -11 -4 -13 -13 -9 -28 12 -39 11 -41 -33 -43 -47
-1 -60 8 -42 30 9 10 7 15 -8 19 -20 7 -36 52 -22 61 5 3 6 13 3 24 -7 27 43
35 61 9 11 -16 15 -16 25 -4 9 11 10 20 1 36 -6 11 -8 30 -5 40 5 15 2 20 -12
20 -11 0 -24 -5 -30 -11 -16 -16 -37 -1 -23 16 8 9 8 15 0 20 -16 10 -12 25 7
25 13 0 14 3 5 12 -35 35 4 51 45 18z m-805 -22 c-15 -15 -24 -6 -16 16 5 12
10 14 17 7 8 -8 8 -14 -1 -23z m-2487 2 c4 -6 -5 -10 -20 -10 -15 0 -24 4 -20
10 3 6 12 10 20 10 8 0 17 -4 20 -10z m1373 -2 c-7 -19 -38 -22 -38 -4 0 10 9
16 21 16 12 0 19 -5 17 -12z m1249 6 c-4 -4 5 -17 20 -30 15 -13 25 -26 22
-29 -4 -4 -60 18 -77 30 -8 6 13 35 26 35 8 0 12 -3 9 -6z m3253 -10 c0 -8 -5
-12 -10 -9 -6 4 -8 11 -5 16 9 14 15 11 15 -7z m-6753 0 c-3 -3 -12 -4 -19 -1
-8 3 -5 6 6 6 11 1 17 -2 13 -5z m3839 -34 c16 0 20 -55 4 -65 -5 -3 -10 1
-10 9 0 9 -4 16 -8 16 -9 0 -7 -88 2 -97 3 -4 6 -17 6 -29 0 -13 5 -26 10 -29
13 -8 13 -55 1 -55 -6 0 -13 5 -16 10 -3 6 -10 10 -16 10 -17 0 -9 -39 17 -86
19 -34 23 -49 14 -54 -9 -5 -9 -9 -1 -14 6 -4 11 -20 11 -35 0 -25 -4 -29 -39
-35 -22 -3 -42 -10 -45 -15 -10 -15 3 -36 27 -46 12 -6 21 -18 19 -26 -1 -9 5
-20 14 -23 15 -6 15 -9 -4 -26 -35 -33 -132 -16 -132 23 0 12 -3 39 -6 59 -5
30 -3 39 10 44 14 5 13 10 -9 30 -22 20 -23 24 -9 32 13 7 14 13 6 29 -8 13
-8 33 0 64 5 24 11 52 12 62 0 10 7 22 15 26 11 7 13 23 8 65 l-6 56 30 0 c22
0 29 -5 29 -20 0 -11 5 -20 10 -20 6 0 10 11 10 24 0 18 -8 27 -31 35 -22 7
-29 15 -25 26 3 9 0 15 -10 15 -9 0 -14 6 -11 13 4 14 45 11 65 -5 9 -8 12 -4
12 17 0 21 4 26 16 21 9 -3 22 -6 30 -6z m3034 -10 c0 -5 -2 -10 -4 -10 -3 0
-8 5 -11 10 -3 6 -1 10 4 10 6 0 11 -4 11 -10z m-1189 -17 c1 -10 1 -22 0 -27
-3 -15 -13 -99 -16 -136 -2 -19 -3 -38 -4 -42 -1 -4 -10 -12 -21 -18 -15 -8
-24 -6 -39 9 -35 35 -34 54 4 80 33 22 47 51 25 51 -19 0 -10 53 13 75 27 28
37 30 38 8z m1349 -29 c0 -2 -9 -4 -21 -4 -11 0 -18 4 -14 10 5 8 35 3 35 -6z
m-7145 -25 c-6 -9 -35 -1 -35 10 0 4 3 11 7 14 8 9 34 -13 28 -24z m4255 21
c0 -5 -2 -10 -4 -10 -3 0 -8 5 -11 10 -3 6 -1 10 4 10 6 0 11 -4 11 -10z
m-4102 -37 c2 -8 -5 -13 -17 -13 -21 0 -35 13 -24 24 10 10 36 3 41 -11z
m3358 -7 c-1 -14 -9 -32 -16 -41 -11 -13 -11 -26 -1 -70 7 -31 16 -53 21 -50
10 6 32 -20 23 -28 -3 -4 0 -13 6 -21 7 -8 11 -25 9 -38 -3 -25 -16 -27 -93
-13 l-40 7 39 -22 c47 -26 66 -44 66 -62 0 -10 3 -9 10 2 5 8 12 11 16 7 4 -4
-2 -21 -14 -37 -22 -29 -22 -29 -2 -40 11 -6 17 -16 14 -25 -4 -9 -1 -21 5
-29 13 -15 5 -26 -21 -26 -10 0 -18 -4 -18 -10 0 -5 8 -10 17 -10 16 0 16 -1
-1 -17 -13 -13 -20 -15 -23 -5 -3 6 -14 12 -25 12 -11 0 -22 8 -25 19 -3 12
-18 23 -37 27 -31 7 -31 7 -6 14 14 4 24 13 22 20 -2 8 3 10 15 5 36 -15 66
-18 59 -6 -4 6 -18 11 -30 11 -13 0 -29 7 -36 15 -7 8 -23 15 -35 15 -16 0
-24 7 -27 25 -3 14 -1 25 3 25 5 0 6 7 2 16 -5 14 -1 16 19 12 19 -4 25 -1 21
9 -3 7 -11 13 -19 13 -18 0 -18 3 5 43 13 23 16 39 9 50 -7 13 -5 15 9 10 15
-5 15 -3 -2 10 -11 9 -27 17 -35 17 -12 0 -11 4 4 15 10 8 22 12 26 10 4 -2
10 25 13 61 7 72 17 90 50 97 12 2 23 5 24 6 1 0 0 -10 -1 -23z m3226 12 c-9
-9 -15 -9 -24 0 -9 9 -7 12 12 12 19 0 21 -3 12 -12z m-6552 -42 c0 -11 -19
-15 -25 -6 -3 5 1 10 9 10 9 0 16 -2 16 -4z m3640 -37 c0 -24 -4 -38 -10 -34
-5 3 -10 22 -10 41 0 19 5 34 10 34 6 0 10 -18 10 -41z m2880 1 c0 -13 -11
-13 -30 0 -12 8 -11 10 8 10 12 0 22 -4 22 -10z m-3451 -21 c17 -6 31 -13 31
-16 0 -8 -53 -53 -62 -53 -21 0 -56 24 -52 36 2 8 6 21 9 29 5 18 30 19 74 4z
m3935 -14 c6 -17 4 -18 -18 -9 -20 8 -21 24 -2 24 8 0 16 -7 20 -15z m-7097
-1 c-3 -3 -12 -4 -19 -1 -8 3 -5 6 6 6 11 1 17 -2 13 -5z m6891 -15 c-17 -11
-48 -11 -48 -1 0 15 10 19 36 14 19 -3 22 -7 12 -13z m-2749 -59 c8 -24 16
-30 40 -30 33 0 56 -28 47 -58 -3 -10 -1 -33 4 -52 8 -26 6 -37 -5 -50 -19
-21 -19 -30 1 -30 8 0 12 -4 9 -10 -3 -5 -15 -10 -25 -10 -13 0 -17 -5 -14
-14 3 -8 0 -17 -6 -21 -16 -10 -80 14 -80 31 0 8 -7 14 -15 14 -8 0 -15 5 -15
10 0 6 11 10 25 10 29 0 33 15 8 24 -14 6 -15 9 -4 15 11 7 9 10 -7 15 -16 5
-21 14 -19 36 1 17 8 32 15 35 13 5 18 86 5 84 -20 -3 -24 2 -13 16 19 23 37
18 49 -15z m-965 -15 c3 -8 12 -15 21 -15 8 0 15 -4 15 -10 0 -5 -7 -10 -15
-10 -8 0 -15 -9 -15 -20 0 -11 5 -20 11 -20 5 0 7 -5 3 -11 -3 -6 -1 -15 7
-19 18 -12 -6 -40 -33 -40 -17 0 -18 -2 -8 -15 10 -12 15 -13 20 -4 4 6 13 8
19 5 6 -4 9 -12 5 -17 -10 -18 -12 -124 -2 -130 14 -9 -1 -49 -18 -49 -8 0
-14 -7 -14 -15 0 -8 -5 -15 -11 -15 -6 0 -9 7 -5 15 4 10 -1 15 -14 15 -27 0
-40 28 -28 62 8 21 7 33 -1 41 -6 6 -11 20 -11 30 0 16 -2 17 -15 7 -19 -16
-30 -7 -19 17 9 21 11 30 13 58 1 18 3 17 18 -5 9 -14 18 -27 19 -29 1 -1 8 0
14 4 9 6 9 10 -1 16 -10 6 -11 9 -1 9 6 0 12 5 12 10 0 6 -8 10 -18 10 -11 0
-27 9 -38 21 -15 16 -16 24 -6 39 6 11 9 27 5 36 -4 12 -3 15 5 10 8 -5 10 -2
6 8 -3 9 -1 16 5 16 7 0 14 -7 17 -15 4 -9 17 -15 33 -14 15 1 19 3 9 6 -10 2
-15 10 -11 19 7 18 19 18 27 -1z m3916 -25 c0 -16 -7 -30 -15 -34 -18 -6 -20
5 -4 21 8 8 5 14 -10 22 -29 16 -26 29 4 23 20 -3 25 -10 25 -32z m-7693 4
c22 -21 25 -27 13 -34 -8 -6 -18 -10 -22 -10 -15 0 -8 -41 8 -47 10 -3 14 -13
11 -25 -4 -13 2 -22 19 -30 33 -15 30 -28 -7 -28 -20 0 -29 -4 -27 -12 6 -18
39 -23 48 -8 4 7 13 9 19 5 9 -5 7 -10 -4 -19 -29 -21 -12 -49 55 -94 35 -24
66 -44 67 -46 9 -8 -22 -68 -40 -78 -19 -10 -20 -11 -3 -24 12 -8 16 -19 11
-33 -4 -13 0 -23 11 -29 9 -5 14 -17 12 -28 -3 -15 -11 -18 -58 -15 -66 3
-114 32 -104 63 6 20 -40 98 -58 98 -5 0 -8 12 -7 28 2 15 0 33 -5 40 -4 7 -3
19 3 26 8 10 7 17 -5 27 -13 11 -15 25 -9 85 6 63 4 73 -12 82 -17 10 -17 11
0 30 13 14 16 28 11 46 -7 28 9 56 32 56 7 0 25 -12 41 -26z m7444 11 c-1 -15
-24 -12 -29 3 -3 9 2 13 12 10 10 -1 17 -7 17 -13z m-181 -5 c0 -5 -4 -10 -9
-10 -6 0 -13 5 -16 10 -3 6 1 10 9 10 9 0 16 -4 16 -10z m-7210 -30 c0 -5 -4
-10 -10 -10 -5 0 -10 5 -10 10 0 6 5 10 10 10 6 0 10 -4 10 -10z m7330 -4 c0
-3 -4 -8 -10 -11 -5 -3 -10 -1 -10 4 0 6 5 11 10 11 6 0 10 -2 10 -4z m-7685
-16 c3 -5 1 -10 -4 -10 -6 0 -11 5 -11 10 0 6 2 10 4 10 3 0 8 -4 11 -10z
m1115 -10 c0 -5 -2 -10 -4 -10 -3 0 -8 5 -11 10 -3 6 -1 10 4 10 6 0 11 -4 11
-10z m7280 1 c0 -6 -5 -13 -10 -16 -15 -9 -43 3 -35 15 8 13 45 13 45 1z
m-7279 -44 c-13 -13 -26 -3 -16 12 3 6 11 8 17 5 6 -4 6 -10 -1 -17z m5803 -6
c3 -5 -8 -11 -25 -13 -32 -5 -51 8 -22 15 30 8 42 7 47 -2z m596 -38 c0 -5
-12 -14 -27 -20 -19 -9 -30 -10 -40 -2 -23 20 -14 29 27 29 22 0 40 -3 40 -7z
m-566 -59 c17 -17 21 -28 7 -20 -5 3 -11 -3 -14 -14 -7 -27 -37 -15 -37 14 0
38 18 46 44 20z m-6977 -26 c-3 -8 -6 -5 -6 6 -1 11 2 17 5 13 3 -3 4 -12 1
-19z m8445 -125 c3 -50 0 -59 -17 -68 -11 -6 -20 -15 -20 -20 0 -20 -17 -35
-38 -35 -13 0 -29 -9 -37 -20 -8 -11 -19 -20 -24 -20 -5 0 -18 -7 -28 -17 -10
-9 -18 -12 -18 -7 0 5 -19 10 -43 11 -23 1 -36 0 -30 -3 10 -4 9 -11 -2 -28
-8 -12 -13 -25 -10 -28 3 -3 -6 -13 -21 -22 -23 -16 -27 -16 -43 -2 -10 9 -27
16 -39 16 -19 0 -21 2 -10 19 10 16 9 23 -5 39 -23 25 -21 32 7 32 13 0 35 9
49 20 14 11 32 20 40 20 19 0 72 27 87 45 7 8 18 15 25 15 6 0 20 8 29 19 15
17 15 19 1 25 -27 10 -7 25 31 24 24 -1 42 6 57 20 39 39 56 29 59 -35z
m-3142 26 c0 -5 -4 -9 -10 -9 -5 0 -10 7 -10 16 0 8 5 12 10 9 6 -3 10 -10 10
-16z m-4244 1 c8 0 14 -4 14 -10 0 -5 -9 -10 -20 -10 -12 0 -25 -10 -31 -24
-10 -20 -8 -31 11 -60 13 -22 30 -36 41 -36 16 0 19 -4 13 -22 -9 -31 -10 -32
-31 -23 -10 4 -35 7 -55 6 -34 -2 -38 0 -38 22 0 14 5 27 12 29 7 3 11 24 11
54 0 52 20 89 45 79 7 -3 20 -5 28 -5z m422 -29 c3 -8 -1 -12 -9 -9 -7 2 -15
10 -17 17 -3 8 1 12 9 9 7 -2 15 -10 17 -17z m906 11 c7 -12 -40 -36 -54 -27
-8 5 -8 10 1 21 13 15 45 19 53 6z m1796 -13 c0 -4 7 -6 15 -3 8 4 15 1 15 -5
0 -6 -7 -11 -15 -11 -8 0 -15 -4 -15 -10 0 -5 -7 -10 -15 -10 -9 0 -18 -7 -21
-15 -4 -8 -16 -15 -28 -15 -25 1 -63 27 -52 37 7 8 11 9 52 11 12 1 24 11 27
22 3 13 10 18 21 14 9 -3 16 -10 16 -15z m814 -20 c-3 -5 -14 -9 -25 -9 -17 0
-18 3 -9 21 9 16 14 18 26 9 7 -7 11 -16 8 -21z m-2559 1 c3 -6 -1 -13 -10
-16 -19 -8 -30 0 -20 15 8 14 22 14 30 1z m585 -50 c0 -5 -12 -10 -26 -10 -14
0 -23 4 -19 10 3 6 15 10 26 10 10 0 19 -4 19 -10z m2260 -21 c0 -15 -56 -29
-84 -21 l-30 8 21 21 c18 18 25 19 57 9 20 -6 36 -14 36 -17z m1733 7 c3 -7 0
-24 -7 -37 -14 -29 -59 -33 -64 -6 -7 38 58 78 71 43z m215 -18 c2 -10 -3 -31
-11 -48 -11 -21 -12 -30 -3 -34 6 -2 1 -5 -11 -5 -13 -1 -22 4 -20 12 1 6 -5
10 -13 8 -34 -8 -80 -3 -80 8 0 5 14 15 30 23 17 7 30 16 30 20 0 3 7 14 16
23 21 20 58 16 62 -7z m-4223 -8 c3 -5 1 -10 -4 -10 -6 0 -11 5 -11 10 0 6 2
10 4 10 3 0 8 -4 11 -10z m-439 -41 c3 -6 1 -16 -4 -21 -13 -13 -45 8 -36 23
7 12 31 11 40 -2z m-1702 -34 c4 -11 -1 -15 -19 -15 -24 0 -32 10 -18 23 11
12 31 8 37 -8z m593 -17 c-3 -8 -6 -5 -6 6 -1 11 2 17 5 13 3 -3 4 -12 1 -19z
m3483 2 c0 -5 -7 -10 -15 -10 -8 0 -15 5 -15 10 0 6 7 10 15 10 8 0 15 -4 15
-10z m-3625 -9 c3 -5 1 -12 -5 -16 -5 -3 -10 1 -10 9 0 18 6 21 15 7z m1765
-7 c0 -2 -7 -4 -15 -4 -8 0 -15 4 -15 10 0 5 7 7 15 4 8 -4 15 -8 15 -10z
m1605 6 c-3 -5 -10 -10 -16 -10 -5 0 -9 5 -9 10 0 6 7 10 16 10 8 0 12 -4 9
-10z m3185 6 c0 -3 -4 -8 -10 -11 -5 -3 -10 -1 -10 4 0 6 5 11 10 11 6 0 10
-2 10 -4z m-586 -58 c10 -15 15 -16 20 -6 3 7 3 3 0 -9 -3 -12 1 -25 8 -30 8
-4 21 -20 31 -35 10 -16 24 -28 32 -28 16 0 20 -25 6 -35 -5 -3 -25 3 -43 13
-25 15 -33 25 -32 45 1 20 -4 27 -17 27 -33 0 -49 12 -49 36 0 17 -6 24 -20
24 -22 0 -27 16 -8 22 23 8 58 -4 72 -24z m746 2 c0 -5 -2 -10 -4 -10 -3 0 -8
5 -11 10 -3 6 -1 10 4 10 6 0 11 -4 11 -10z m-6975 -10 c3 -5 -3 -10 -15 -10
-12 0 -18 5 -15 10 3 6 10 10 15 10 5 0 12 -4 15 -10z m2256 -51 c6 -3 -15
-22 -45 -42 -30 -20 -58 -32 -61 -27 -7 11 59 116 77 123 8 2 14 -6 16 -22 2
-14 8 -29 13 -32z m3813 55 c21 -8 20 -33 -1 -56 -20 -22 -37 -23 -57 -2 -14
14 -14 18 2 39 18 25 29 29 56 19z m-3706 -46 c-2 -18 -9 -23 -33 -23 -23 0
-31 5 -33 23 -3 19 1 22 33 22 32 0 36 -3 33 -22z m-1603 2 c3 -5 -3 -10 -15
-10 -12 0 -18 5 -15 10 3 6 10 10 15 10 5 0 12 -4 15 -10z m2675 6 c0 -11 -19
-15 -25 -6 -3 5 1 10 9 10 9 0 16 -2 16 -4z m-4090 -131 c52 -9 102 -18 110
-20 8 -2 17 -4 19 -4 2 -1 -2 -7 -8 -14 -6 -8 -8 -17 -4 -20 14 -14 -72 4
-157 33 -14 5 -41 11 -62 15 -20 3 -39 13 -42 21 -5 12 -1 14 22 10 15 -3 70
-13 122 -21z m2930 15 c0 -11 -42 -30 -66 -30 -26 0 -15 29 14 33 49 7 52 7
52 -3z m2978 -17 c2 -14 12 -23 25 -25 17 -2 23 -11 25 -35 3 -29 0 -33 -30
-41 -36 -9 -68 -5 -68 9 0 5 5 8 11 7 6 -2 13 4 14 12 2 8 6 23 10 33 5 13 2
17 -14 17 -12 0 -21 6 -21 15 0 8 -8 15 -17 16 -12 1 -10 4 7 9 37 12 55 7 58
-17z m1156 2 c3 -10 -1 -15 -14 -15 -20 0 -33 13 -23 24 11 11 31 6 37 -9z
m-5629 -16 c12 -19 -5 -23 -22 -6 -16 16 -16 17 -1 17 9 0 20 -5 23 -11z
m2323 -27 c2 -7 -6 -12 -17 -12 -21 0 -27 11 -14 24 9 9 26 2 31 -12z m-1138
-25 c0 -17 -20 -37 -37 -37 -16 0 -17 22 -1 38 16 16 38 15 38 -1z m-2440 -86
c0 -12 -42 -42 -49 -36 -5 6 29 45 41 45 4 0 8 -4 8 -9z m2580 -11 c0 -5 -4
-10 -10 -10 -5 0 -10 5 -10 10 0 6 5 10 10 10 6 0 10 -4 10 -10z m3598 -13 c5
-23 -25 -57 -50 -57 -21 0 -24 30 -7 61 13 25 52 22 57 -4z m640 -40 c5 -23
-25 -57 -49 -57 -27 0 -30 14 -13 49 12 24 22 31 37 29 12 -2 23 -11 25 -21z
m-1078 3 c0 -5 -7 -10 -16 -10 -8 0 -12 5 -9 10 3 6 10 10 16 10 5 0 9 -4 9
-10z m1278 -6 c27 -19 27 -28 1 -71 -14 -23 -25 -31 -33 -25 -6 6 -26 13 -43
17 -39 8 -42 21 -8 37 14 6 25 19 25 29 0 15 11 25 30 28 3 1 16 -6 28 -15z
m-7083 -31 c-4 -16 -8 -50 -8 -76 -1 -29 -8 -51 -16 -57 -12 -7 -11 -12 8 -27
42 -34 1 -70 -49 -43 -13 7 -28 7 -47 -1 -23 -8 -30 -7 -41 8 -11 15 -25 17
-103 15 -80 -3 -93 -1 -109 16 -11 11 -24 22 -30 24 -16 5 -1 58 16 58 8 0 14
7 14 15 0 8 5 15 10 15 6 0 10 6 10 14 0 29 60 47 160 48 52 0 105 -2 116 -6
14 -4 26 -1 34 9 7 8 19 15 27 15 12 0 14 -7 8 -27z m3039 -16 c13 -10 16 -20
12 -35 -8 -24 -27 -28 -57 -12 -22 12 -25 30 -7 48 16 16 30 15 52 -1z m-3600
-33 c28 -11 18 -34 -14 -34 -18 0 -30 5 -30 13 0 25 15 32 44 21z m3066 -34
c0 -5 -7 -10 -15 -10 -8 0 -15 5 -15 10 0 6 7 10 15 10 8 0 15 -4 15 -10z m56
-25 c-19 -14 -36 -12 -36 5 0 5 6 7 14 4 8 -3 17 0 21 6 4 6 10 8 13 5 4 -4
-2 -13 -12 -20z m302 -21 c4 -25 -23 -55 -41 -48 -20 7 -35 48 -23 62 18 19
61 10 64 -14z m4297 0 c16 -10 21 -21 18 -38 -4 -18 0 -26 15 -30 11 -4 22
-16 25 -26 3 -12 14 -20 26 -20 14 0 21 -6 21 -20 0 -24 -19 -26 -46 -5 -10 8
-27 15 -37 15 -15 0 -16 3 -7 20 14 26 7 36 -30 44 -17 3 -30 11 -29 18 3 28
-2 36 -21 31 -20 -5 -28 15 -13 31 9 9 49 -1 78 -20z m-3965 7 c0 -9 -20 -37
-20 -29 0 3 -2 13 -5 21 -4 8 0 14 10 14 8 0 15 -3 15 -6z m3813 -25 c7 -17
-14 -76 -26 -76 -13 0 -57 32 -57 41 0 35 72 65 83 35z m-7483 -35 c0 -13 -20
-18 -49 -13 -23 5 -24 6 -6 13 28 11 55 11 55 0z m3538 -44 c3 -21 -2 -29 -20
-36 -24 -9 -48 -4 -48 9 0 5 5 21 10 35 14 37 54 32 58 -8z m-3671 7 c-3 -3
-12 -4 -19 -1 -8 3 -5 6 6 6 11 1 17 -2 13 -5z m6403 -29 c0 -8 -4 -15 -10
-15 -5 0 -10 7 -10 15 0 8 5 15 10 15 6 0 10 -7 10 -15z m-3405 -10 c0 -5 -10
-11 -22 -13 -16 -2 -23 2 -23 13 0 11 7 15 23 13 12 -2 22 -7 22 -13z m4943
-47 c-6 -18 -28 -21 -28 -4 0 9 7 16 16 16 9 0 14 -5 12 -12z"/>
<path d="M2487 6594 c-10 -11 3 -24 24 -24 10 0 19 7 19 15 0 15 -31 21 -43 9z"/>
<path d="M3070 6070 c0 -5 7 -10 16 -10 8 0 12 5 9 10 -3 6 -10 10 -16 10 -5
0 -9 -4 -9 -10z"/>
<path d="M2265 5860 c3 -5 10 -10 16 -10 5 0 9 5 9 10 0 6 -7 10 -16 10 -8 0
-12 -4 -9 -10z"/>
<path d="M2568 5753 c7 -3 16 -2 19 1 4 3 -2 6 -13 5 -11 0 -14 -3 -6 -6z"/>
<path d="M3383 5678 c2 -7 12 -13 22 -13 10 0 20 6 23 13 2 7 -6 12 -23 12
-17 0 -25 -5 -22 -12z"/>
<path d="M2791 5036 c-13 -15 -7 -36 9 -36 12 0 22 32 12 42 -5 5 -14 2 -21
-6z"/>
<path d="M6418 5753 c7 -3 16 -2 19 1 4 3 -2 6 -13 5 -11 0 -14 -3 -6 -6z"/>
<path d="M6240 4901 c0 -10 -33 -25 -60 -27 -8 0 -23 -2 -32 -3 -10 0 -20 -12
-24 -26 -5 -19 -10 -23 -23 -15 -24 12 -101 -34 -101 -61 0 -12 -10 -23 -25
-29 -15 -6 -25 -17 -25 -29 0 -27 9 -30 50 -17 37 12 52 42 25 52 -8 3 -15 11
-15 16 0 10 20 8 89 -9 l34 -8 -26 -19 -25 -19 21 -17 c11 -10 29 -15 39 -12
19 5 25 22 8 22 -5 0 -10 13 -10 30 0 30 0 30 50 26 27 -3 52 0 55 5 4 5 13 5
24 0 32 -18 43 3 16 29 -28 27 -17 43 22 33 14 -3 23 -1 23 6 0 6 14 17 32 24
l32 13 -35 17 c-19 9 -45 14 -57 10 -13 -3 -22 -1 -22 6 0 6 -9 11 -20 11 -11
0 -20 -4 -20 -9z"/>
<path d="M6050 4680 c0 -5 5 -10 10 -10 6 0 10 5 10 10 0 6 -4 10 -10 10 -5 0
-10 -4 -10 -10z"/>
<path d="M2590 4480 c0 -5 5 -10 10 -10 6 0 10 5 10 10 0 6 -4 10 -10 10 -5 0
-10 -4 -10 -10z"/>
<path d="M4315 4460 c-11 -4 -50 -6 -87 -5 -48 1 -68 -2 -68 -11 0 -6 16 -15
35 -18 21 -4 35 -13 35 -22 0 -22 -27 -28 -53 -12 -18 12 -30 13 -71 2 -60
-15 -74 -28 -56 -49 8 -9 29 -15 59 -15 26 0 51 -4 57 -9 17 -16 131 -20 151
-5 24 18 30 17 36 -6 9 -33 77 -18 77 18 0 9 14 30 30 46 38 37 34 51 -16 52
-79 1 -94 4 -94 18 0 20 -11 25 -35 16z"/>
<path d="M2344 4449 c-3 -6 -1 -15 6 -19 16 -10 52 2 58 18 5 15 -54 16 -64 1z"/>
<path d="M4400 4439 c0 -5 5 -7 10 -4 6 3 10 8 10 11 0 2 -4 4 -10 4 -5 0 -10
-5 -10 -11z"/>
<path d="M2380 4365 c0 -8 5 -15 11 -15 7 0 9 -12 5 -35 -8 -38 8 -49 18 -12
12 47 7 77 -14 77 -11 0 -20 -7 -20 -15z"/>
<path d="M2180 4341 c0 -14 37 -23 60 -16 34 11 22 25 -20 25 -22 0 -40 -4
-40 -9z"/>
<path d="M6147 4157 c-68 -69 -96 -159 -60 -189 8 -6 10 -20 7 -34 -4 -13 -1
-30 5 -37 6 -8 14 -31 19 -52 6 -32 13 -40 38 -47 17 -4 39 -17 49 -28 14 -16
26 -19 55 -14 40 6 110 -11 110 -27 0 -5 5 -9 11 -9 5 0 8 4 5 8 -3 5 19 34
50 65 49 51 53 59 42 77 -10 16 -10 24 0 40 16 27 15 39 -8 85 -11 22 -20 47
-20 57 0 28 -32 88 -48 88 -7 0 -22 -5 -33 -11 -15 -8 -24 -7 -36 3 -14 11
-13 13 8 19 24 7 24 7 2 8 -13 1 -23 6 -23 11 0 6 -18 10 -40 10 -22 0 -40 5
-40 10 0 6 -12 10 -26 10 -17 0 -40 -14 -67 -43z"/>
<path d="M2660 3874 c0 -8 5 -12 10 -9 6 4 8 11 5 16 -9 14 -15 11 -15 -7z"/>
<path d="M4334 3843 c-52 -78 -66 -115 -59 -157 3 -22 8 -66 10 -96 2 -30 4
-58 4 -62 1 -4 14 -21 31 -38 27 -27 35 -30 95 -30 37 0 65 4 65 10 0 13 37
13 45 0 3 -6 -6 -15 -22 -21 l-28 -11 25 -13 c14 -7 45 -12 70 -11 40 1 45 4
45 24 0 12 11 29 23 38 12 8 22 21 22 28 0 8 11 21 25 30 29 19 33 60 8 88
-14 16 -14 22 -2 46 7 15 15 30 17 35 2 4 -3 7 -12 7 -9 0 -18 12 -22 28 -13
61 -22 78 -45 89 -45 21 -123 37 -200 41 -74 3 -76 3 -95 -25z"/>
<path d="M7060 3852 c-8 -2 -23 -11 -32 -19 -11 -10 -27 -13 -46 -8 -34 7
-189 -42 -234 -75 -15 -11 -31 -20 -36 -20 -5 0 -29 -14 -55 -31 -26 -17 -51
-28 -56 -25 -13 8 -114 -97 -118 -123 -3 -23 38 -53 45 -32 5 16 32 14 32 -3
0 -8 -7 -16 -15 -20 -8 -3 -15 -13 -15 -21 0 -17 23 -45 37 -47 4 -1 7 -9 5
-20 -2 -11 3 -18 12 -18 9 0 16 5 16 10 0 15 37 12 43 -4 7 -18 -1 -26 -25
-26 -22 0 -23 -13 -3 -30 8 -7 13 -16 10 -20 -3 -5 -1 -11 5 -15 5 -3 10 -1
10 4 0 17 38 13 82 -10 84 -43 371 -60 498 -30 107 26 173 61 194 103 6 12 22
25 35 28 35 8 59 48 63 105 3 49 2 50 -27 53 -16 2 -34 8 -39 12 -12 12 12 41
33 39 29 -3 32 1 20 22 -8 15 -8 24 0 32 18 18 13 44 -9 50 -12 3 -24 -1 -29
-11 -5 -9 -13 -14 -17 -9 -4 4 0 15 8 24 53 62 21 100 -107 130 -56 13 -250
17 -285 5z m87 -48 c-3 -3 -12 -4 -19 -1 -8 3 -5 6 6 6 11 1 17 -2 13 -5z
m153 2 c0 -3 -4 -8 -10 -11 -5 -3 -10 -1 -10 4 0 6 5 11 10 11 6 0 10 -2 10
-4z m75 -56 c-3 -5 -13 -10 -21 -10 -8 0 -12 5 -9 10 3 6 13 10 21 10 8 0 12
-4 9 -10z m-305 -128 c0 -14 -33 -48 -54 -56 -18 -6 -19 -5 -4 11 8 10 18 26
21 36 6 17 37 25 37 9z m-108 -68 c-2 -5 -9 -8 -15 -6 -6 2 -21 -2 -34 -9 -26
-14 -73 -3 -80 18 -3 9 13 12 64 9 37 -1 66 -7 65 -12z m328 -39 c9 -11 10
-19 2 -27 -14 -14 -32 -1 -32 23 0 23 13 25 30 4z"/>
<path d="M5470 3496 c0 -14 5 -28 10 -31 6 -3 10 5 10 19 0 14 -4 28 -10 31
-6 3 -10 -5 -10 -19z"/>
<path d="M3820 3440 c-8 -5 -31 -10 -50 -10 -20 0 -41 -5 -47 -11 -7 -7 -22
-9 -40 -4 -40 11 -63 7 -105 -21 -21 -13 -43 -24 -49 -24 -7 0 -27 -11 -45
-25 -18 -14 -37 -25 -43 -25 -6 0 -15 -9 -21 -20 -6 -11 -20 -20 -30 -20 -11
0 -19 -5 -18 -11 2 -6 -12 -20 -29 -30 -18 -10 -33 -16 -33 -14 0 3 -18 -4
-40 -15 -60 -31 -92 -106 -50 -117 15 -4 18 -9 10 -18 -5 -6 -10 -23 -10 -36
1 -13 0 -47 0 -76 -1 -48 1 -53 29 -68 17 -8 30 -19 30 -23 -5 -28 8 -44 57
-72 72 -42 139 -60 249 -66 172 -11 244 -7 284 15 12 7 32 11 42 8 12 -3 31 4
47 18 18 15 36 21 53 18 29 -5 79 30 79 57 0 9 7 23 15 30 8 7 15 19 15 27 0
8 7 21 15 29 19 19 20 54 1 54 -19 0 -26 47 -9 61 16 14 42 66 48 97 2 12 7
27 10 32 4 6 -1 22 -9 35 -15 23 -15 27 0 51 14 20 15 27 4 37 -10 9 -14 9
-17 -1 -7 -17 -23 -5 -23 18 0 12 -10 21 -30 25 -17 4 -38 18 -46 31 -10 15
-26 24 -42 24 -21 0 -23 3 -14 12 10 10 17 10 32 0 22 -13 90 -17 90 -4 0 5
-16 16 -35 25 -27 13 -63 17 -148 17 -62 0 -119 -5 -127 -10z m-115 -270 c3
-5 -1 -10 -9 -10 -9 0 -16 5 -16 10 0 6 4 10 9 10 6 0 13 -4 16 -10z m249 -79
c3 -5 -1 -14 -10 -21 -11 -10 -18 -10 -27 -1 -9 9 -9 14 3 21 19 12 27 12 34
1z m-254 -16 c0 -16 -9 -19 -34 -9 -25 9 -19 24 9 24 16 0 25 -6 25 -15z m308
-53 c2 -7 -6 -12 -17 -12 -21 0 -27 11 -14 24 9 9 26 2 31 -12z m92 -82 c0 -5
-2 -10 -4 -10 -3 0 -8 5 -11 10 -3 6 -1 10 4 10 6 0 11 -4 11 -10z m-265 -30
c3 -5 2 -10 -4 -10 -5 0 -13 5 -16 10 -3 6 -2 10 4 10 5 0 13 -4 16 -10z m221
-12 c4 -6 2 -14 -4 -16 -7 -2 -12 -12 -12 -23 0 -24 -21 -24 -51 -1 -32 26
-20 52 25 52 19 0 38 -5 42 -12z m-616 -38 c0 -5 -4 -10 -10 -10 -5 0 -10 5
-10 10 0 6 5 10 10 10 6 0 10 -4 10 -10z"/>
<path d="M5558 3403 c7 -3 16 -2 19 1 4 3 -2 6 -13 5 -11 0 -14 -3 -6 -6z"/>
<path d="M6483 3298 c-33 -37 -36 -59 -12 -85 13 -12 31 -23 41 -23 11 0 18
-7 18 -20 0 -16 6 -19 38 -17 30 2 37 -1 37 -17 0 -25 -26 -40 -58 -33 -18 5
-24 12 -21 24 6 20 -38 50 -71 49 -16 -1 -20 -7 -18 -35 1 -21 -2 -29 -7 -21
-13 21 -27 3 -34 -42 -10 -59 -37 -111 -63 -123 -12 -5 -30 -26 -39 -47 -9
-21 -35 -52 -57 -70 -47 -38 -77 -69 -77 -79 0 -4 -8 -6 -17 -5 -11 0 -18 -6
-17 -16 1 -9 -4 -14 -10 -12 -6 2 -34 -11 -62 -29 -27 -18 -55 -32 -61 -30 -7
3 -39 -9 -73 -26 -53 -27 -69 -30 -126 -26 -53 3 -65 1 -60 -10 7 -20 -22 -41
-36 -27 -8 8 -8 15 2 26 18 22 -10 31 -51 17 -18 -6 -52 -11 -76 -11 -36 0
-46 -4 -50 -20 -6 -23 -26 -26 -42 -6 -8 10 -32 14 -69 14 -76 0 -92 -6 -92
-29 0 -21 -38 -27 -57 -8 -8 8 -17 7 -33 -3 -19 -12 -24 -10 -44 15 -18 23
-30 27 -71 28 -47 0 -99 7 -189 25 -28 5 -40 3 -47 -7 -7 -12 -10 -11 -21 2
-7 9 -40 26 -72 38 -33 11 -64 27 -68 36 -6 9 -23 15 -43 15 -19 0 -35 5 -35
10 0 6 -12 10 -27 9 -35 -3 -93 10 -93 20 0 4 11 13 25 19 l25 11 -55 56 c-53
53 -79 67 -87 44 -2 -5 -21 -12 -42 -14 -21 -2 -45 -10 -53 -18 -13 -13 -13
-18 1 -40 13 -18 28 -26 63 -30 53 -6 64 -19 57 -66 -5 -32 -5 -33 11 -18 17
18 37 22 48 11 10 -10 -12 -44 -28 -44 -30 0 6 -36 64 -63 78 -37 238 -87 281
-87 19 0 62 -7 95 -15 156 -39 223 -45 398 -40 250 8 353 19 377 40 11 9 47
12 125 11 75 -2 114 1 122 10 8 7 29 10 57 7 27 -3 59 0 77 8 l32 13 -29 23
c-20 16 -25 26 -18 33 16 16 115 19 121 4 8 -21 44 -3 50 26 4 24 10 28 41 28
27 0 42 8 68 36 18 20 36 36 40 36 18 0 134 155 134 179 0 6 -9 11 -21 11 -11
0 -34 8 -49 17 -23 13 -27 20 -19 35 5 10 19 18 31 18 11 0 26 7 32 15 7 9 19
12 34 9 23 -7 30 -30 10 -36 -14 -5 -4 -38 12 -38 5 0 10 8 10 19 0 10 7 24
14 31 8 6 22 35 32 63 9 29 21 58 27 65 18 23 12 100 -9 123 -10 12 -18 30
-16 41 3 14 0 18 -8 13 -7 -4 -15 -3 -19 2 -3 6 -22 13 -42 17 -29 5 -39 2
-56 -16z m-16 -210 c-3 -8 -6 -5 -6 6 -1 11 2 17 5 13 3 -3 4 -12 1 -19z
m-137 -238 c0 -5 -7 -10 -15 -10 -8 0 -15 5 -15 10 0 6 7 10 15 10 8 0 15 -4
15 -10z m-363 -236 c-3 -3 -12 -4 -19 -1 -8 3 -5 6 6 6 11 1 17 -2 13 -5z"/>
<path d="M2480 2774 c0 -8 5 -12 10 -9 6 4 8 11 5 16 -9 14 -15 11 -15 -7z"/>
<path d="M5560 1520 c0 -5 5 -10 11 -10 5 0 7 5 4 10 -3 6 -8 10 -11 10 -2 0
-4 -4 -4 -10z"/>
<path d="M5520 1389 c0 -11 4 -18 10 -14 5 3 7 12 3 20 -7 21 -13 19 -13 -6z"/>
<path d="M5524 1324 c3 -9 6 -20 6 -25 0 -16 19 -10 44 16 l25 25 -41 0 c-32
0 -39 -3 -34 -16z"/>
<path d="M5530 1250 c0 -5 5 -10 10 -10 6 0 10 5 10 10 0 6 -4 10 -10 10 -5 0
-10 -4 -10 -10z"/>
<path d="M5530 1200 c0 -5 5 -10 11 -10 5 0 7 5 4 10 -3 6 -8 10 -11 10 -2 0
-4 -4 -4 -10z"/>
<path d="M5548 1173 c7 -3 16 -2 19 1 4 3 -2 6 -13 5 -11 0 -14 -3 -6 -6z"/>
<path d="M5170 1610 c0 -5 5 -10 11 -10 5 0 7 5 4 10 -3 6 -8 10 -11 10 -2 0
-4 -4 -4 -10z"/>
<path d="M5940 1220 c0 -5 7 -10 15 -10 8 0 15 5 15 10 0 6 -7 10 -15 10 -8 0
-15 -4 -15 -10z"/>
<path d="M4915 1330 c-3 -5 -1 -10 4 -10 6 0 11 5 11 10 0 6 -2 10 -4 10 -3 0
-8 -4 -11 -10z"/>
<path d="M1031 274 c0 -11 3 -14 6 -6 3 7 2 16 -1 19 -3 4 -6 -2 -5 -13z"/>
<path d="M900 2916 c0 -2 7 -7 16 -10 8 -3 12 -2 9 4 -6 10 -25 14 -25 6z"/>
<path d="M6312 1627 c-16 -20 -10 -47 10 -47 12 0 18 7 18 24 0 29 -14 41 -28
23z"/>
<path d="M6352 625 c-23 -25 -42 -53 -42 -63 0 -10 -7 -27 -15 -38 -36 -47 -7
-101 65 -123 25 -7 53 -17 62 -22 34 -18 76 -10 103 19 14 15 28 36 31 47 4
11 13 28 22 37 20 24 10 81 -22 123 -19 25 -38 36 -78 45 -29 6 -60 14 -68 16
-9 2 -34 -15 -58 -41z"/>
<path d="M2989 534 c-17 -21 4 -35 47 -32 18 1 39 -4 48 -11 9 -8 26 -14 39
-15 17 -1 21 -7 20 -24 -2 -16 6 -28 27 -40 16 -9 30 -23 30 -30 0 -18 28 -26
44 -13 8 7 20 11 28 10 7 -1 22 -1 33 0 18 1 19 2 3 12 -10 5 -18 17 -18 25 0
9 -13 21 -30 27 -16 6 -30 15 -30 19 0 4 -5 8 -10 8 -6 0 -20 8 -31 19 -18 16
-74 36 -160 55 -18 4 -31 1 -40 -10z"/>
<path d="M2098 488 c-2 -13 -7 -21 -11 -18 -5 3 -13 -3 -18 -13 -7 -12 -17
-15 -34 -11 -13 3 -33 1 -44 -6 -24 -12 -28 -40 -6 -40 9 0 15 -9 15 -25 0
-14 -4 -25 -10 -25 -18 0 -10 -31 13 -51 27 -23 37 -24 37 -3 0 11 6 15 20 11
13 -3 20 0 20 9 0 8 8 14 18 14 10 0 23 5 29 11 16 16 36 1 30 -22 -3 -11 -1
-17 4 -14 15 10 49 -15 49 -34 0 -10 -7 -24 -14 -31 -11 -8 -12 -18 -6 -35 10
-26 5 -35 -22 -35 -10 0 -18 -7 -18 -15 0 -8 4 -15 10 -15 5 0 7 -7 4 -15 -4
-8 -2 -15 4 -15 11 0 3 -53 -11 -61 -5 -4 -5 -15 2 -28 16 -29 90 -30 108 -1
8 12 9 21 3 25 -13 8 -13 92 1 100 5 4 7 19 4 34 -4 19 -1 32 10 41 14 12 13
16 -11 41 -17 17 -25 35 -22 47 3 10 -1 27 -8 37 -19 26 -18 34 9 44 22 9 22
9 -7 20 -28 11 -65 48 -66 65 0 15 -33 35 -57 36 -15 0 -23 -7 -25 -22z m-58
-158 c0 -5 -4 -10 -9 -10 -6 0 -13 5 -16 10 -3 6 1 10 9 10 9 0 16 -4 16 -10z"/>
<path d="M3070 400 c0 -5 7 -10 15 -10 8 0 15 5 15 10 0 6 -7 10 -15 10 -8 0
-15 -4 -15 -10z"/>
<path d="M1956 377 c3 -10 9 -15 12 -12 3 3 0 11 -7 18 -10 9 -11 8 -5 -6z"/>
<path d="M6677 347 c-41 -43 -42 -43 -61 -25 -23 21 -40 19 -44 -6 -3 -14 1
-16 16 -11 26 8 48 -25 30 -43 -19 -19 -37 -14 -68 18 -16 17 -32 30 -35 30
-3 0 -5 -13 -5 -30 0 -20 -5 -30 -15 -30 -34 0 -7 -55 32 -65 16 -3 39 -14 53
-23 14 -9 39 -15 55 -13 34 2 91 26 100 41 12 20 25 9 19 -15 -3 -14 -3 -25 0
-25 14 0 66 31 66 39 0 5 9 11 21 14 16 4 20 12 17 38 -3 30 -6 33 -38 35 -43
2 -88 25 -82 42 2 7 -1 19 -7 26 -13 15 -5 26 21 26 11 0 16 5 13 10 -13 21
-47 8 -88 -33z"/>
<path d="M6370 353 c-8 -2 -22 -7 -30 -10 -12 -4 -12 -7 4 -19 22 -16 60 -19
51 -5 -3 5 -1 12 5 16 6 4 8 11 5 16 -7 10 -12 10 -35 2z"/>
<path d="M1850 340 c0 -5 5 -10 10 -10 6 0 10 5 10 10 0 6 -4 10 -10 10 -5 0
-10 -4 -10 -10z"/>
<path d="M1815 327 c-11 -6 -26 -13 -34 -17 -23 -10 -25 -30 -3 -30 22 0 66
35 60 48 -2 6 -11 5 -23 -1z"/>
<path d="M6261 321 c-10 -18 -17 -104 -11 -126 2 -5 0 -18 -5 -28 -8 -19 10
-47 30 -47 7 0 20 11 29 25 10 15 22 22 31 19 8 -4 13 -10 10 -14 -9 -14 14
-60 32 -67 10 -4 22 -11 26 -17 5 -6 5 4 2 22 -4 18 -2 32 3 32 18 0 23 32 7
44 -15 10 -14 14 4 30 24 22 29 76 7 76 -8 0 -27 -5 -42 -10 -39 -15 -67 -4
-61 26 3 17 -2 28 -19 39 -29 19 -31 19 -43 -4z"/>
<path d="M6425 330 c3 -5 8 -10 11 -10 2 0 4 5 4 10 0 6 -5 10 -11 10 -5 0 -7
-4 -4 -10z"/>
<path d="M3137 324 c-11 -11 3 -24 25 -24 17 0 18 2 8 15 -13 16 -23 19 -33 9z"/>
<path d="M3030 310 c0 -5 5 -10 11 -10 5 0 7 5 4 10 -3 6 -8 10 -11 10 -2 0
-4 -4 -4 -10z"/>
<path d="M3227 291 c-15 -16 -16 -20 -2 -31 15 -13 14 -14 30 35 6 20 -6 18
-28 -4z"/>
<path d="M1943 238 c2 -7 16 -13 32 -13 16 0 30 6 33 13 2 8 -8 12 -33 12 -25
0 -35 -4 -32 -12z"/>
<path d="M1684 184 c3 -9 6 -18 6 -20 0 -2 9 -4 20 -4 25 0 26 16 1 30 -27 14
-34 13 -27 -6z"/>
<path d="M6440 180 c0 -5 5 -10 10 -10 6 0 10 5 10 10 0 6 -4 10 -10 10 -5 0
-10 -4 -10 -10z"/>
<path d="M2100 170 c0 -5 4 -10 9 -10 6 0 13 5 16 10 3 6 -1 10 -9 10 -9 0
-16 -4 -16 -10z"/>
<path d="M2011 147 c-10 -12 -5 -15 29 -19 22 -2 40 0 40 4 0 5 -8 8 -18 8
-10 0 -23 5 -28 10 -8 8 -14 6 -23 -3z"/>
<path d="M1898 143 c7 -3 16 -2 19 1 4 3 -2 6 -13 5 -11 0 -14 -3 -6 -6z"/>
<path d="M3173 143 c-58 -4 -68 -18 -26 -34 29 -11 84 -3 95 15 11 17 9 26 -4
24 -7 -1 -37 -3 -65 -5z"/>
<path d="M2051 76 c-10 -12 -9 -17 6 -24 24 -13 43 -4 43 19 0 23 -32 26 -49
5z"/>
<path d="M3132 59 c2 -7 10 -15 17 -17 8 -3 12 1 9 9 -2 7 -10 15 -17 17 -8 3
-12 -1 -9 -9z"/>
<path d="M2648 3 c6 -2 18 -2 25 0 6 3 1 5 -13 5 -14 0 -19 -2 -12 -5z"/>
</g>
</svg>
