<svg id="svg" version="1.1" xmlns="http://www.w3.org/2000/svg" xmlns:xlink="http://www.w3.org/1999/xlink" width="400" height="400" viewBox="0, 0, 400,400"><g id="svgg"><path id="path0" d="M185.744 212.752 C 182.818 215.478,184.453 220.000,188.365 220.000 C 192.393 220.000,194.009 214.933,190.717 212.627 C 189.464 211.749,186.747 211.817,185.744 212.752 M153.557 214.199 C 149.434 216.440,151.320 222.407,156.149 222.399 C 157.505 222.396,159.554 220.924,160.259 219.445 C 162.044 215.702,157.433 212.092,153.557 214.199 M298.000 222.400 C 297.670 222.613,296.717 222.791,295.883 222.794 C 293.879 222.802,291.200 226.263,291.200 228.843 C 291.200 229.331,289.042 234.088,287.143 237.788 C 284.487 242.961,280.940 247.932,275.435 254.200 C 274.662 255.080,274.023 255.919,274.015 256.065 C 274.007 256.211,277.465 254.586,281.700 252.453 C 291.628 247.454,293.628 246.581,300.636 244.191 C 304.510 242.869,310.296 241.310,314.600 240.427 C 315.920 240.156,317.720 239.783,318.600 239.598 C 323.326 238.603,337.958 236.800,341.307 236.800 C 342.648 236.800,343.275 236.994,343.574 237.500 C 343.951 238.139,344.009 238.121,344.240 237.300 C 344.379 236.805,344.652 236.400,344.847 236.400 C 345.041 236.400,345.200 236.040,345.200 235.600 C 345.200 235.160,345.380 234.800,345.600 234.800 C 345.820 234.800,346.000 234.080,346.000 233.200 C 346.000 231.867,345.867 231.600,345.200 231.600 C 344.760 231.600,344.400 231.420,344.400 231.200 C 344.400 230.980,344.128 230.800,343.795 230.800 C 343.462 230.800,342.832 230.620,342.395 230.400 C 341.958 230.180,341.242 229.820,340.805 229.600 C 340.368 229.380,339.738 229.200,339.405 229.200 C 339.072 229.200,338.800 229.020,338.800 228.800 C 338.800 228.580,338.260 228.400,337.600 228.400 C 336.940 228.400,336.400 228.220,336.400 228.000 C 336.400 227.780,336.040 227.600,335.600 227.600 C 335.160 227.600,334.800 227.420,334.800 227.200 C 334.800 226.980,334.260 226.800,333.600 226.800 C 332.940 226.800,332.400 226.620,332.400 226.400 C 332.400 226.180,331.871 226.000,331.224 226.000 C 330.577 226.000,329.936 225.820,329.800 225.600 C 329.664 225.380,328.933 225.200,328.176 225.200 C 327.419 225.200,326.800 225.020,326.800 224.800 C 326.800 224.580,326.080 224.400,325.200 224.400 C 324.320 224.400,323.600 224.220,323.600 224.000 C 323.600 223.780,322.736 223.600,321.680 223.600 C 320.624 223.600,319.589 223.435,319.380 223.234 C 319.171 223.032,317.920 222.771,316.600 222.654 C 315.280 222.536,313.474 222.326,312.588 222.187 C 311.153 221.961,310.968 222.024,310.913 222.762 C 310.878 223.218,310.046 225.259,309.064 227.296 C 306.805 231.978,305.190 235.568,304.023 238.500 C 303.166 240.652,302.400 241.486,302.400 240.266 C 302.400 239.326,304.018 234.764,305.462 231.634 C 306.232 229.965,307.150 227.970,307.502 227.200 C 307.854 226.430,308.443 225.350,308.810 224.800 C 309.178 224.250,309.579 223.395,309.702 222.900 L 309.925 222.000 304.263 222.006 C 301.148 222.009,298.330 222.187,298.000 222.400 M168.004 224.195 C 166.595 225.893,169.330 228.630,172.821 229.014 C 176.461 229.415,181.154 226.073,179.593 224.191 C 178.882 223.335,178.608 223.433,177.035 225.100 C 175.763 226.449,175.416 226.600,173.600 226.600 C 171.784 226.600,171.437 226.449,170.165 225.100 C 168.535 223.373,168.648 223.420,168.004 224.195 M198.861 225.299 C 198.102 226.058,198.345 226.888,199.994 229.169 C 201.398 231.109,201.783 232.407,200.769 231.781 C 200.007 231.310,198.750 232.049,198.877 232.894 C 199.006 233.760,199.371 234.027,201.508 234.819 C 202.614 235.229,203.089 235.873,204.589 238.997 C 208.178 246.477,214.757 249.651,221.465 247.141 C 224.199 246.118,228.800 241.934,228.800 240.470 C 228.800 238.725,227.674 239.049,225.303 241.476 C 218.299 248.649,210.250 246.310,206.051 235.881 C 205.398 234.262,205.482 233.532,206.596 231.140 C 207.144 229.963,207.594 228.589,207.596 228.087 C 207.604 226.219,205.540 226.655,204.768 228.684 C 204.240 230.072,203.531 229.786,202.110 227.612 C 200.637 225.359,199.564 224.596,198.861 225.299 M139.867 227.666 C 139.288 227.991,139.222 228.436,139.442 230.575 L 139.700 233.100 138.163 233.050 C 136.333 232.990,135.997 233.711,137.160 235.201 C 140.902 239.994,140.842 239.869,140.362 241.908 C 139.007 247.659,137.379 250.800,135.753 250.800 C 133.565 250.800,129.641 247.787,128.590 245.300 C 128.039 243.996,126.453 243.428,126.354 244.500 C 126.084 247.434,129.987 251.656,134.334 253.130 C 138.802 254.645,142.630 248.342,143.355 238.276 C 143.560 235.423,143.845 234.297,144.848 232.369 C 145.856 230.432,145.996 229.877,145.595 229.394 C 144.949 228.615,144.720 228.642,143.670 229.620 C 142.620 230.599,142.183 230.414,141.872 228.859 C 141.609 227.545,140.870 227.105,139.867 227.666 M95.944 229.113 L 91.689 229.226 93.425 231.816 C 95.272 234.569,97.445 238.873,97.658 240.200 C 97.938 241.937,96.929 240.836,95.276 237.600 C 94.321 235.730,93.022 233.547,92.389 232.748 C 91.757 231.949,91.121 230.824,90.976 230.248 C 90.711 229.191,89.498 228.794,89.000 229.600 C 88.864 229.820,87.874 230.000,86.800 230.000 C 85.726 230.000,84.736 230.180,84.600 230.400 C 84.464 230.620,83.654 230.800,82.800 230.800 C 81.946 230.800,81.136 230.980,81.000 231.200 C 80.864 231.420,80.133 231.600,79.376 231.600 C 78.619 231.600,78.000 231.780,78.000 232.000 C 78.000 232.220,77.381 232.400,76.624 232.400 C 75.867 232.400,75.136 232.580,75.000 232.800 C 74.864 233.020,74.324 233.200,73.800 233.200 C 73.276 233.200,72.736 233.380,72.600 233.600 C 72.464 233.820,71.924 234.000,71.400 234.000 C 70.876 234.000,70.336 234.180,70.200 234.400 C 70.064 234.620,69.603 234.800,69.176 234.800 C 68.749 234.800,68.400 234.980,68.400 235.200 C 68.400 235.420,67.961 235.600,67.424 235.600 C 66.887 235.600,66.336 235.780,66.200 236.000 C 66.064 236.220,65.603 236.400,65.176 236.400 C 64.749 236.400,64.400 236.580,64.400 236.800 C 64.400 237.020,64.040 237.200,63.600 237.200 C 63.160 237.200,62.800 237.380,62.800 237.600 C 62.800 237.820,62.440 238.000,62.000 238.000 C 61.560 238.000,61.200 238.180,61.200 238.400 C 61.200 238.620,60.840 238.800,60.400 238.800 C 59.794 238.800,59.600 239.067,59.599 239.900 L 59.599 241.000 64.299 240.854 C 69.260 240.700,83.866 241.387,88.600 241.998 C 90.140 242.196,93.020 242.564,95.000 242.815 C 96.980 243.066,100.310 243.619,102.400 244.044 C 104.490 244.468,107.190 245.007,108.400 245.240 C 109.610 245.474,111.320 245.823,112.200 246.017 C 117.002 247.074,116.923 247.119,115.555 244.078 C 115.091 243.045,114.304 241.300,113.808 240.200 C 113.312 239.100,112.316 236.567,111.595 234.572 C 109.495 228.760,109.476 228.754,95.944 229.113 M336.600 238.847 C 327.135 240.053,322.428 240.728,320.200 241.198 C 319.320 241.383,317.520 241.743,316.200 241.997 C 313.936 242.433,312.904 242.670,309.300 243.578 C 306.106 244.383,296.963 247.369,296.263 247.836 C 295.583 248.289,295.629 248.373,296.863 248.917 C 302.320 251.323,312.507 252.798,323.671 252.799 C 328.800 252.800,330.056 252.913,330.562 253.420 C 331.245 254.102,333.477 252.228,335.586 249.200 C 336.123 248.430,336.849 247.530,337.200 247.200 C 337.551 246.870,338.275 245.970,338.808 245.200 C 339.342 244.430,340.098 243.451,340.489 243.025 C 340.880 242.598,341.200 242.079,341.200 241.871 C 341.200 241.664,341.575 241.168,342.034 240.771 C 344.235 238.862,342.184 238.136,336.600 238.847 M61.243 243.262 C 61.659 243.846,62.000 244.521,62.000 244.762 C 62.000 245.003,62.180 245.200,62.400 245.200 C 62.620 245.200,62.800 245.436,62.800 245.725 C 62.800 246.013,63.160 246.636,63.600 247.108 C 64.040 247.580,64.400 248.127,64.400 248.324 C 64.400 248.521,64.940 249.246,65.600 249.937 C 66.260 250.628,66.800 251.353,66.800 251.548 C 66.800 251.744,67.476 252.600,68.302 253.452 C 69.128 254.303,70.249 255.630,70.794 256.400 C 72.172 258.349,81.639 267.695,81.935 267.399 C 82.068 267.265,81.912 266.985,81.588 266.775 C 81.035 266.417,82.375 264.839,83.259 264.809 C 84.072 264.781,94.795 257.753,98.704 254.686 C 101.476 252.511,106.000 247.691,106.000 246.913 C 106.000 246.351,105.371 246.168,101.400 245.580 C 99.860 245.352,97.340 244.978,95.800 244.748 C 90.051 243.890,87.137 243.628,76.800 243.038 C 70.970 242.705,64.914 242.380,63.343 242.316 L 60.485 242.200 61.243 243.262 M106.442 248.860 C 103.828 253.487,98.184 258.246,87.800 264.582 C 85.380 266.058,83.243 267.418,83.051 267.602 C 82.657 267.981,83.899 269.326,86.000 270.798 C 86.770 271.337,87.749 272.098,88.175 272.489 C 88.602 272.880,89.187 273.200,89.475 273.200 C 89.764 273.200,90.000 273.350,90.000 273.532 C 90.000 273.715,90.495 274.120,91.100 274.432 C 91.705 274.745,92.549 275.315,92.975 275.700 C 93.402 276.085,93.972 276.400,94.242 276.400 C 94.512 276.400,94.793 276.535,94.867 276.700 C 94.987 276.970,97.089 278.178,99.497 279.360 C 99.990 279.602,100.395 279.935,100.397 280.100 C 100.399 280.265,100.760 280.400,101.200 280.400 C 101.640 280.400,102.000 280.580,102.000 280.800 C 102.000 281.020,102.265 281.200,102.588 281.200 C 102.911 281.200,103.817 281.560,104.600 282.000 C 105.383 282.440,106.379 282.800,106.812 282.800 C 107.245 282.800,107.600 282.980,107.600 283.200 C 107.600 283.420,107.960 283.600,108.400 283.600 C 108.840 283.600,109.200 283.780,109.200 284.000 C 109.200 284.220,109.740 284.400,110.400 284.400 C 111.060 284.400,111.600 284.580,111.600 284.800 C 111.600 285.020,112.039 285.200,112.576 285.200 C 113.113 285.200,113.664 285.380,113.800 285.600 C 114.111 286.103,115.600 286.128,115.600 285.630 C 115.600 285.427,117.535 283.774,119.900 281.957 C 125.175 277.903,129.461 273.838,132.083 270.400 L 134.066 267.800 132.333 266.400 C 126.989 262.083,123.352 257.889,119.855 252.010 L 118.022 248.929 114.311 248.074 C 107.301 246.460,107.828 246.408,106.442 248.860 M290.800 249.719 C 281.884 253.081,270.989 259.690,262.000 267.189 C 255.410 272.687,254.684 273.211,249.800 276.001 C 247.380 277.384,243.794 279.436,241.832 280.561 C 237.524 283.032,237.171 283.600,239.943 283.600 C 241.048 283.600,242.064 283.780,242.200 284.000 C 242.357 284.254,247.263 284.400,255.600 284.400 C 263.937 284.400,268.843 284.254,269.000 284.000 C 269.136 283.780,270.497 283.600,272.024 283.600 C 273.608 283.600,274.800 283.428,274.800 283.200 C 274.800 282.980,275.689 282.800,276.776 282.800 C 277.863 282.800,278.864 282.620,279.000 282.400 C 279.136 282.180,280.047 282.000,281.024 282.000 C 282.001 282.000,282.800 281.820,282.800 281.600 C 282.800 281.380,283.520 281.200,284.400 281.200 C 285.280 281.200,286.000 281.020,286.000 280.800 C 286.000 280.580,286.619 280.400,287.376 280.400 C 288.133 280.400,288.864 280.220,289.000 280.000 C 289.136 279.780,289.599 279.600,290.029 279.600 C 290.784 279.600,291.174 279.456,293.095 278.462 C 293.587 278.208,294.341 278.000,294.771 278.000 C 295.201 278.000,295.664 277.820,295.800 277.600 C 295.936 277.380,296.386 277.200,296.800 277.200 C 297.214 277.200,297.681 276.992,297.838 276.738 C 297.998 276.480,297.949 276.384,297.728 276.521 C 297.511 276.655,296.628 276.430,295.766 276.021 C 294.905 275.611,292.580 274.505,290.600 273.563 C 283.567 270.218,278.438 266.510,276.232 263.176 C 275.167 261.567,274.901 260.400,275.600 260.400 C 275.820 260.400,276.000 260.653,276.000 260.963 C 276.000 262.562,282.018 267.167,288.357 270.418 C 291.568 272.065,296.664 274.400,297.047 274.400 C 297.539 274.400,299.157 275.909,298.920 276.147 C 298.781 276.286,298.877 276.400,299.133 276.400 C 299.390 276.400,299.600 276.220,299.600 276.000 C 299.600 275.780,299.834 275.600,300.120 275.600 C 300.856 275.600,302.793 274.659,302.797 274.300 C 302.799 274.135,303.034 274.000,303.320 274.000 C 304.056 274.000,305.993 273.059,305.997 272.700 C 305.999 272.535,306.360 272.400,306.800 272.400 C 307.240 272.400,307.600 272.220,307.600 272.000 C 307.600 271.780,307.960 271.600,308.400 271.600 C 308.840 271.600,309.200 271.420,309.200 271.200 C 309.200 270.980,309.436 270.800,309.725 270.800 C 310.013 270.800,310.636 270.440,311.108 270.000 C 311.580 269.560,312.204 269.200,312.495 269.200 C 312.786 269.200,313.283 268.840,313.600 268.400 C 313.917 267.960,314.457 267.600,314.800 267.600 C 315.143 267.600,315.683 267.240,316.000 266.800 C 316.317 266.360,316.809 266.000,317.092 266.000 C 317.375 266.000,318.172 265.460,318.863 264.800 C 319.554 264.140,320.286 263.600,320.491 263.600 C 320.695 263.600,321.554 262.880,322.400 262.000 C 323.246 261.120,324.107 260.400,324.315 260.400 C 325.166 260.400,329.320 255.960,328.880 255.520 C 328.630 255.270,324.883 254.858,320.122 254.557 C 312.303 254.062,308.209 253.636,305.400 253.022 C 301.335 252.135,296.485 250.492,295.138 249.546 C 293.861 248.649,293.612 248.659,290.800 249.719 M133.374 271.100 C 131.326 273.839,125.051 280.063,121.325 283.050 C 117.196 286.359,116.803 286.800,117.976 286.800 C 118.429 286.800,118.800 286.980,118.800 287.200 C 118.800 287.420,119.329 287.600,119.976 287.600 C 120.623 287.600,121.264 287.780,121.400 288.000 C 121.536 288.220,122.447 288.400,123.424 288.400 C 124.401 288.400,125.200 288.580,125.200 288.800 C 125.200 289.020,126.100 289.200,127.200 289.200 C 128.300 289.200,129.200 289.380,129.200 289.600 C 129.200 289.822,130.259 290.000,131.576 290.000 C 132.883 290.000,134.064 290.180,134.200 290.400 C 134.336 290.620,136.046 290.800,138.000 290.800 C 139.954 290.800,141.664 290.980,141.800 291.200 C 141.951 291.445,145.130 291.600,150.000 291.600 C 154.870 291.600,158.049 291.445,158.200 291.200 C 158.338 290.977,160.196 290.800,162.400 290.800 C 164.604 290.800,166.462 290.623,166.600 290.400 C 166.736 290.180,167.996 290.000,169.400 290.000 C 170.804 290.000,172.064 289.820,172.200 289.600 C 172.336 289.380,173.506 289.200,174.800 289.200 C 176.094 289.200,177.264 289.020,177.400 288.800 C 177.536 288.580,178.087 288.400,178.624 288.400 C 180.637 288.400,179.492 287.657,176.500 287.023 C 162.449 284.042,151.566 279.812,141.800 273.535 C 134.987 269.156,134.855 269.118,133.374 271.100 " stroke="none" fill="#619b24" fill-rule="evenodd"></path><path id="path1" d="M183.007 102.935 C 181.063 103.990,180.186 104.642,178.612 106.202 C 177.218 107.584,175.582 108.400,174.205 108.400 C 173.678 108.400,173.136 108.580,173.000 108.800 C 172.864 109.020,172.234 109.200,171.600 109.200 C 170.966 109.200,170.336 109.380,170.200 109.600 C 170.064 109.820,169.423 110.000,168.776 110.000 C 168.129 110.000,167.600 110.180,167.600 110.400 C 167.600 110.620,167.161 110.800,166.624 110.800 C 166.087 110.800,165.536 110.980,165.400 111.200 C 165.264 111.420,164.623 111.600,163.976 111.600 C 163.329 111.600,162.800 111.780,162.800 112.000 C 162.800 112.220,162.438 112.400,161.995 112.400 C 161.552 112.400,160.832 112.580,160.395 112.800 C 159.958 113.020,159.242 113.380,158.805 113.600 C 158.368 113.820,157.736 114.000,157.400 114.000 C 157.064 114.000,156.387 114.208,155.895 114.462 C 154.018 115.433,153.593 115.600,153.005 115.600 C 152.672 115.600,152.400 115.780,152.400 116.000 C 152.400 116.220,152.040 116.400,151.600 116.400 C 151.160 116.400,150.800 116.580,150.800 116.800 C 150.800 117.020,150.458 117.200,150.041 117.200 C 149.623 117.200,148.228 117.766,146.941 118.459 C 145.653 119.151,144.196 119.916,143.703 120.159 C 143.210 120.401,142.805 120.735,142.803 120.900 C 142.801 121.065,142.522 121.200,142.183 121.200 C 141.844 121.200,141.180 121.560,140.708 122.000 C 140.236 122.440,139.613 122.800,139.325 122.800 C 139.036 122.800,138.800 122.941,138.800 123.114 C 138.800 123.286,138.267 123.743,137.615 124.128 C 136.963 124.513,136.198 125.047,135.915 125.314 C 135.632 125.581,134.743 126.290,133.940 126.890 C 131.943 128.380,122.069 138.226,120.595 140.197 C 119.938 141.076,119.008 142.196,118.529 142.686 C 118.050 143.177,117.336 144.123,116.943 144.789 C 116.549 145.455,116.086 146.000,115.914 146.000 C 115.741 146.000,115.600 146.236,115.600 146.525 C 115.600 146.813,115.285 147.398,114.900 147.825 C 114.515 148.251,113.945 149.095,113.632 149.700 C 113.320 150.305,112.915 150.800,112.732 150.800 C 112.550 150.800,112.400 151.160,112.400 151.600 C 112.400 152.040,112.265 152.401,112.100 152.403 C 111.935 152.405,111.599 152.810,111.354 153.303 C 111.109 153.796,110.320 155.370,109.602 156.800 C 108.883 158.230,108.162 159.760,108.001 160.200 C 107.559 161.402,106.751 163.312,106.353 164.095 C 106.159 164.477,106.000 165.141,106.000 165.571 C 106.000 166.001,105.820 166.464,105.600 166.600 C 105.380 166.736,105.200 167.377,105.200 168.024 C 105.200 168.671,105.020 169.200,104.800 169.200 C 104.580 169.200,104.400 169.884,104.400 170.720 C 104.400 171.556,104.237 172.411,104.037 172.620 C 103.049 173.654,102.673 196.855,103.548 202.800 C 103.791 204.450,104.091 206.790,104.214 208.000 C 104.338 209.210,104.599 210.560,104.794 211.000 C 105.143 211.783,105.407 213.211,105.865 216.775 C 105.990 217.751,106.326 218.783,106.611 219.068 C 106.896 219.353,107.031 219.961,106.911 220.419 C 106.651 221.414,107.551 223.277,108.122 222.925 C 108.376 222.768,108.395 222.883,108.173 223.238 C 107.587 224.179,107.588 225.092,108.177 225.581 C 108.633 225.960,108.697 225.891,108.518 225.210 C 108.390 224.719,108.579 224.065,108.976 223.627 C 109.846 222.665,111.200 222.292,111.200 223.014 C 111.200 223.310,111.411 223.683,111.668 223.842 C 111.980 224.035,112.053 223.916,111.888 223.486 C 111.704 223.006,111.815 222.902,112.320 223.079 C 112.874 223.274,112.908 223.218,112.500 222.779 C 111.741 221.961,111.895 221.691,113.000 221.902 C 113.584 222.014,114.000 221.907,114.000 221.647 C 114.000 221.345,115.427 221.200,118.400 221.200 C 121.067 221.200,122.800 221.358,122.800 221.600 C 122.800 221.820,123.623 222.000,124.629 222.000 C 126.442 222.000,128.164 222.973,127.348 223.536 C 127.138 223.681,126.737 224.610,126.456 225.600 C 126.175 226.590,125.778 227.953,125.573 228.628 C 124.680 231.571,125.354 236.919,127.121 240.915 L 127.895 242.664 126.748 243.097 C 124.414 243.978,124.962 246.815,128.073 249.958 C 132.087 254.015,136.300 255.117,138.939 252.800 C 140.252 251.647,140.455 251.600,144.091 251.600 C 148.272 251.600,150.973 250.912,154.187 249.029 C 156.718 247.545,161.200 243.068,161.200 242.022 C 161.200 241.412,162.715 241.127,163.559 241.578 C 163.992 241.810,164.719 242.000,165.174 242.000 C 165.628 242.000,166.000 242.180,166.000 242.400 C 166.000 242.620,166.360 242.800,166.800 242.800 C 167.240 242.800,167.600 242.980,167.600 243.200 C 167.600 243.420,168.100 243.600,168.712 243.600 C 169.365 243.600,170.061 243.930,170.400 244.400 C 170.739 244.870,171.435 245.200,172.088 245.200 C 172.700 245.200,173.200 245.380,173.200 245.600 C 173.200 245.820,173.740 246.000,174.400 246.000 C 175.060 246.000,175.600 246.180,175.600 246.400 C 175.600 246.620,176.219 246.800,176.976 246.800 C 177.733 246.800,178.464 246.980,178.600 247.200 C 178.736 247.420,179.197 247.600,179.624 247.600 C 180.051 247.600,180.400 247.780,180.400 248.000 C 180.400 248.220,180.760 248.400,181.200 248.400 C 181.640 248.400,182.000 248.580,182.000 248.800 C 182.000 249.033,183.333 249.200,185.200 249.200 C 186.960 249.200,188.400 249.367,188.400 249.571 C 188.400 249.781,190.625 249.943,193.490 249.943 C 196.755 249.943,198.632 250.097,198.724 250.371 C 198.910 250.931,206.800 250.959,206.800 250.400 C 206.800 249.831,208.301 249.902,208.493 250.480 C 208.618 250.853,209.137 250.853,210.827 250.477 C 212.022 250.211,214.305 249.956,215.900 249.909 C 217.495 249.863,218.800 249.684,218.800 249.513 C 218.800 249.341,220.204 249.200,221.920 249.200 C 223.636 249.200,225.222 249.018,225.444 248.796 C 225.666 248.574,226.737 248.335,227.824 248.266 C 228.911 248.197,230.340 247.898,231.000 247.603 C 231.660 247.308,233.456 247.017,234.992 246.957 C 236.528 246.896,237.848 246.656,237.926 246.423 C 238.003 246.191,238.772 246.000,239.633 246.000 C 240.495 246.000,241.200 245.820,241.200 245.600 C 241.200 245.380,241.560 245.200,242.000 245.200 C 242.440 245.200,242.800 245.020,242.800 244.800 C 242.800 244.580,243.792 244.400,245.004 244.400 C 246.906 244.400,247.379 244.236,248.463 243.200 C 249.154 242.540,249.957 242.000,250.247 242.000 C 251.088 242.000,255.022 240.097,255.586 239.417 C 255.867 239.078,256.255 238.800,256.447 238.800 C 256.639 238.800,257.715 237.900,258.839 236.800 C 259.962 235.700,261.093 234.800,261.352 234.800 C 261.611 234.800,262.083 234.440,262.400 234.000 C 262.717 233.560,263.213 233.200,263.502 233.200 C 263.790 233.200,264.646 232.581,265.403 231.824 C 266.160 231.067,267.459 230.125,268.290 229.731 C 269.120 229.337,270.322 228.516,270.959 227.907 C 271.597 227.298,272.362 226.800,272.659 226.800 C 272.957 226.800,273.200 226.440,273.200 226.000 C 273.200 225.529,273.467 225.200,273.849 225.200 C 274.320 225.200,274.386 225.063,274.089 224.700 C 273.644 224.155,274.491 223.025,274.979 223.512 C 275.125 223.658,275.414 223.512,275.622 223.188 C 275.942 222.691,276.055 222.686,276.358 223.155 C 276.802 223.845,278.651 222.330,278.219 221.631 C 278.071 221.391,278.238 221.200,278.595 221.200 C 279.326 221.200,280.906 219.742,281.307 218.699 C 281.454 218.315,281.835 218.000,282.152 218.000 C 282.469 218.000,283.183 217.460,283.739 216.800 C 284.294 216.140,284.947 215.600,285.190 215.600 C 285.432 215.600,287.259 213.957,289.250 211.950 C 291.820 209.357,293.148 208.300,293.834 208.300 C 294.365 208.300,294.800 208.162,294.800 207.993 C 294.800 207.824,295.091 207.574,295.448 207.437 C 295.963 207.239,296.057 207.392,295.906 208.182 C 295.780 208.839,295.866 209.086,296.158 208.911 C 296.415 208.757,296.395 208.900,296.110 209.253 C 295.722 209.732,295.722 209.970,296.110 210.388 C 296.498 210.807,296.496 210.858,296.100 210.635 C 295.490 210.291,295.487 210.357,296.039 211.940 C 296.689 213.805,297.113 213.135,297.025 210.384 C 296.982 209.049,297.122 207.848,297.336 207.716 C 297.549 207.584,297.603 207.672,297.455 207.911 C 297.308 208.149,297.370 208.458,297.593 208.596 C 297.828 208.741,298.000 208.419,298.000 207.836 C 298.000 207.056,297.840 206.875,297.300 207.045 C 296.633 207.255,296.633 207.238,297.300 206.689 C 298.107 206.024,298.239 204.163,297.500 203.865 C 297.100 203.704,297.100 203.657,297.500 203.632 C 297.880 203.608,298.000 201.872,298.000 196.376 C 298.000 192.403,297.865 189.236,297.700 189.338 C 297.385 189.533,297.326 189.107,297.201 185.700 C 297.158 184.545,296.960 183.600,296.762 183.600 C 296.563 183.600,296.400 182.801,296.400 181.824 C 296.400 180.847,296.220 179.936,296.000 179.800 C 295.780 179.664,295.600 178.944,295.600 178.200 C 295.600 177.456,295.420 176.736,295.200 176.600 C 294.980 176.464,294.800 175.823,294.800 175.176 C 294.800 174.529,294.620 174.000,294.400 174.000 C 294.180 174.000,294.000 173.460,294.000 172.800 C 294.000 172.140,293.820 171.600,293.600 171.600 C 293.380 171.600,293.200 171.238,293.200 170.795 C 293.200 170.352,293.041 169.677,292.847 169.295 C 292.652 168.913,292.271 168.060,292.000 167.400 C 291.729 166.740,291.348 165.887,291.153 165.505 C 290.959 165.123,290.800 164.538,290.800 164.205 C 290.800 163.872,290.620 163.600,290.400 163.600 C 290.180 163.600,290.000 163.240,290.000 162.800 C 290.000 162.360,289.820 162.000,289.600 162.000 C 289.380 162.000,289.200 161.640,289.200 161.200 C 289.200 160.760,289.020 160.400,288.800 160.400 C 288.580 160.400,288.400 160.040,288.400 159.600 C 288.400 159.160,288.220 158.800,288.000 158.800 C 287.780 158.800,287.600 158.440,287.600 158.000 C 287.600 157.560,287.420 157.200,287.200 157.200 C 286.980 157.200,286.800 157.012,286.800 156.782 C 286.800 156.385,282.942 150.421,282.413 150.000 C 282.275 149.890,281.729 149.170,281.200 148.400 C 280.671 147.630,279.949 146.730,279.597 146.400 C 279.244 146.070,278.688 145.408,278.360 144.929 C 277.293 143.367,273.058 139.039,270.401 136.795 C 268.971 135.588,267.531 134.321,267.201 133.981 C 266.870 133.641,265.970 132.925,265.200 132.392 C 264.430 131.858,263.451 131.102,263.025 130.711 C 262.598 130.320,262.013 130.000,261.725 130.000 C 261.436 130.000,261.200 129.859,261.200 129.686 C 261.200 129.514,260.667 129.057,260.015 128.672 C 259.363 128.287,258.591 127.753,258.299 127.486 C 257.802 127.031,257.354 126.752,255.100 125.500 C 254.605 125.225,254.110 124.910,254.000 124.800 C 253.628 124.428,251.409 123.180,249.900 122.494 C 249.075 122.118,248.400 121.674,248.400 121.506 C 248.400 121.338,248.166 121.200,247.880 121.200 C 247.144 121.200,245.207 120.259,245.203 119.900 C 245.201 119.735,244.928 119.600,244.595 119.600 C 244.007 119.600,243.582 119.433,241.705 118.462 C 241.213 118.208,240.538 118.000,240.205 118.000 C 239.872 118.000,239.600 117.820,239.600 117.600 C 239.600 117.380,239.251 117.200,238.824 117.200 C 238.397 117.200,237.936 117.020,237.800 116.800 C 237.664 116.580,237.124 116.400,236.600 116.400 C 236.076 116.400,235.536 116.220,235.400 116.000 C 235.264 115.780,234.724 115.600,234.200 115.600 C 233.676 115.600,233.136 115.420,233.000 115.200 C 232.864 114.980,232.133 114.800,231.376 114.800 C 230.619 114.800,230.000 114.620,230.000 114.400 C 230.000 114.180,229.381 114.000,228.624 114.000 C 227.867 114.000,227.136 113.820,227.000 113.600 C 226.864 113.380,226.144 113.200,225.400 113.200 C 224.656 113.200,223.936 113.020,223.800 112.800 C 223.664 112.580,222.944 112.400,222.200 112.400 C 221.456 112.400,220.736 112.220,220.600 112.000 C 220.464 111.780,219.564 111.600,218.600 111.600 C 217.636 111.600,216.736 111.420,216.600 111.200 C 216.464 110.980,215.474 110.800,214.400 110.800 C 213.326 110.800,212.336 110.620,212.200 110.400 C 212.064 110.180,210.894 110.000,209.600 110.000 C 208.306 110.000,207.136 109.820,207.000 109.600 C 206.864 109.380,205.784 109.200,204.600 109.200 C 203.416 109.200,202.336 109.020,202.200 108.800 C 201.775 108.112,200.400 108.342,200.404 109.100 C 200.413 110.750,203.890 116.707,207.934 122.000 C 208.690 122.990,209.478 124.283,209.684 124.873 C 209.891 125.463,210.760 127.263,211.617 128.873 C 216.755 138.528,219.436 144.626,222.049 152.600 C 228.084 171.013,229.551 191.456,226.012 207.800 C 225.821 208.680,225.445 210.480,225.176 211.800 C 224.470 215.265,223.248 220.020,222.728 221.328 C 222.390 222.178,222.410 223.292,222.808 225.853 C 223.780 232.099,222.115 237.076,217.486 241.763 C 214.409 244.878,214.462 245.362,217.849 245.054 C 220.552 244.809,222.509 243.745,225.287 241.009 C 228.260 238.082,230.700 238.837,228.521 242.011 C 224.819 247.403,217.308 249.764,211.934 247.225 C 210.339 246.472,209.844 246.406,208.534 246.770 C 195.679 250.339,182.866 236.287,187.190 223.362 C 188.178 220.410,188.183 220.533,187.063 220.251 C 182.956 219.221,182.919 212.947,187.012 211.596 C 188.665 211.050,191.777 212.267,192.208 213.627 C 192.514 214.590,192.985 214.600,194.338 213.671 C 202.256 208.235,215.529 210.593,219.576 218.154 C 220.594 220.057,220.910 219.458,221.625 214.273 C 223.810 198.444,222.984 178.155,219.595 164.400 C 219.406 163.630,219.038 162.100,218.779 161.000 C 218.071 157.994,215.638 150.134,214.818 148.200 C 214.631 147.760,214.069 146.320,213.570 145.000 C 212.620 142.490,211.502 139.901,209.558 135.700 C 208.921 134.325,207.881 132.075,207.247 130.700 C 206.612 129.325,205.450 126.827,204.664 125.149 C 202.221 119.932,200.800 116.787,200.800 116.600 C 200.800 116.501,200.292 115.291,199.670 113.910 C 197.766 109.677,197.501 108.850,197.742 107.887 C 197.923 107.167,197.731 106.813,196.888 106.314 C 196.290 105.959,195.260 105.204,194.600 104.635 C 193.940 104.066,193.175 103.601,192.900 103.600 C 192.625 103.600,192.400 103.420,192.400 103.200 C 192.400 102.980,192.040 102.800,191.600 102.800 C 191.160 102.800,190.800 102.620,190.800 102.400 C 190.800 101.586,184.725 102.003,183.007 102.935 M188.687 111.300 C 193.517 116.559,182.996 124.044,176.599 119.900 C 173.797 118.085,176.682 112.800,180.475 112.800 C 180.808 112.800,181.872 112.263,182.840 111.607 C 185.079 110.090,187.461 109.965,188.687 111.300 M159.676 214.755 C 161.102 216.351,161.236 219.042,159.974 220.749 L 159.148 221.867 160.000 223.311 C 167.424 235.893,156.945 252.750,142.745 251.068 C 140.827 250.841,140.594 250.914,139.077 252.213 C 135.551 255.230,127.998 251.786,126.067 246.281 C 125.139 243.633,127.384 242.413,128.719 244.839 C 130.408 247.913,133.521 250.400,135.678 250.400 C 137.177 250.400,137.097 249.719,135.500 248.881 C 132.240 247.173,128.450 242.461,126.748 238.000 C 125.971 235.963,126.085 229.485,126.942 227.000 C 130.069 217.929,139.649 212.687,148.810 215.034 L 151.285 215.668 152.343 214.684 C 154.484 212.691,157.861 212.723,159.676 214.755 M295.846 214.625 C 295.702 215.000,295.404 215.129,295.103 214.949 C 294.739 214.730,294.748 214.829,295.134 215.306 C 295.433 215.674,295.531 216.193,295.358 216.482 C 295.105 216.903,295.164 216.904,295.673 216.493 C 296.018 216.213,296.300 215.538,296.300 214.993 C 296.300 213.844,296.182 213.749,295.846 214.625 M170.005 224.300 C 172.077 226.943,174.508 227.125,176.695 224.801 C 178.867 222.493,180.916 222.985,179.933 225.579 C 177.885 230.988,167.200 230.543,167.200 225.049 C 167.200 223.076,168.725 222.669,170.005 224.300 M291.867 223.867 C 291.720 224.013,291.600 224.517,291.600 224.987 C 291.600 225.456,291.457 226.011,291.282 226.220 C 290.869 226.712,289.884 229.617,290.067 229.800 C 290.144 229.877,290.774 228.514,291.466 226.770 C 292.580 223.965,292.710 223.023,291.867 223.867 M110.400 230.156 C 110.400 230.296,110.567 230.723,110.770 231.105 C 110.974 231.487,111.415 232.520,111.750 233.400 C 112.174 234.515,112.365 234.734,112.379 234.124 C 112.391 233.642,112.220 233.136,112.000 233.000 C 111.780 232.864,111.600 232.335,111.600 231.825 C 111.600 231.315,111.330 230.674,111.000 230.400 C 110.670 230.126,110.400 230.017,110.400 230.156 M289.168 231.519 C 288.423 233.656,284.504 241.091,282.798 243.603 C 281.903 244.921,281.271 246.000,281.393 246.000 C 282.290 246.000,290.413 231.080,289.833 230.500 C 289.707 230.374,289.408 230.832,289.168 231.519 M112.400 235.372 C 112.400 235.983,114.530 240.804,114.717 240.617 C 114.913 240.420,114.571 239.507,113.553 237.505 C 113.359 237.123,113.200 236.549,113.200 236.229 C 113.200 235.909,113.020 235.536,112.800 235.400 C 112.580 235.264,112.400 235.252,112.400 235.372 M115.344 242.528 C 116.042 244.198,117.163 246.282,117.184 245.948 C 117.208 245.568,115.167 241.200,114.965 241.200 C 114.868 241.200,115.039 241.798,115.344 242.528 M134.178 248.761 C 135.478 249.575,135.890 249.999,135.378 249.999 C 133.933 249.996,130.708 247.516,129.653 245.596 C 129.212 244.793,129.406 244.884,130.653 246.061 C 131.504 246.865,133.090 248.080,134.178 248.761 M278.562 249.300 C 277.281 250.895,276.514 251.975,276.858 251.700 C 277.591 251.113,281.338 246.400,281.072 246.400 C 280.972 246.400,279.842 247.705,278.562 249.300 M119.239 250.176 C 119.701 250.959,120.156 251.600,120.250 251.600 C 120.534 251.600,119.236 249.269,118.802 249.001 C 118.580 248.864,118.777 249.393,119.239 250.176 M121.067 253.206 C 121.459 253.870,122.198 254.905,122.710 255.506 C 123.221 256.108,122.975 255.565,122.163 254.300 C 120.624 251.903,119.828 251.107,121.067 253.206 M274.778 253.900 L 273.400 255.400 274.900 254.022 C 276.296 252.738,276.584 252.400,276.278 252.400 C 276.212 252.400,275.537 253.075,274.778 253.900 M124.217 257.591 C 125.005 258.741,127.600 261.602,127.583 261.301 C 127.573 261.136,126.718 260.096,125.683 258.991 C 124.647 257.885,123.988 257.255,124.217 257.591 M128.800 262.634 C 128.800 262.948,128.939 263.067,132.452 265.736 C 134.978 267.655,134.361 267.027,130.700 263.952 C 129.655 263.074,128.800 262.481,128.800 262.634 M135.020 268.509 C 135.128 268.788,135.617 269.262,136.108 269.561 C 136.959 270.080,136.955 270.056,136.030 269.053 C 134.948 267.877,134.734 267.762,135.020 268.509 M142.600 273.407 C 143.040 273.766,143.760 274.235,144.200 274.451 L 145.000 274.844 144.200 274.193 C 143.760 273.834,143.040 273.365,142.600 273.149 L 141.800 272.756 142.600 273.407 " stroke="none" fill="#fba5b4" fill-rule="evenodd"></path><path id="path2" d="M197.762 107.808 C 197.501 108.848,197.748 109.638,199.670 113.910 C 200.292 115.291,200.800 116.501,200.800 116.600 C 200.800 116.787,202.221 119.932,204.664 125.149 C 205.450 126.827,206.612 129.325,207.247 130.700 C 207.881 132.075,208.921 134.325,209.558 135.700 C 211.502 139.901,212.620 142.490,213.570 145.000 C 214.069 146.320,214.631 147.760,214.818 148.200 C 215.638 150.134,218.071 157.994,218.779 161.000 C 219.038 162.100,219.406 163.630,219.595 164.400 C 222.984 178.155,223.810 198.444,221.625 214.273 C 220.910 219.458,220.594 220.057,219.576 218.154 C 215.884 211.256,204.245 208.507,196.242 212.641 C 195.119 213.222,193.831 213.887,193.380 214.120 C 192.804 214.418,192.560 214.937,192.560 215.869 C 192.560 217.584,191.283 219.281,189.563 219.852 C 186.724 220.794,185.426 228.900,187.232 234.404 C 190.192 243.420,199.806 248.973,208.615 246.754 L 210.385 246.309 208.373 244.500 C 206.870 243.149,205.913 241.757,204.589 238.997 C 203.089 235.873,202.614 235.229,201.508 234.819 C 199.371 234.027,199.006 233.760,198.877 232.894 C 198.750 232.049,200.007 231.310,200.769 231.781 C 201.783 232.407,201.398 231.109,199.994 229.169 C 198.345 226.888,198.102 226.058,198.861 225.299 C 199.540 224.620,200.495 225.277,202.195 227.593 C 203.841 229.836,204.262 230.014,204.768 228.684 C 205.540 226.655,207.604 226.219,207.596 228.087 C 207.594 228.589,207.144 229.963,206.596 231.140 C 205.312 233.898,205.334 234.293,206.964 237.726 C 208.470 240.897,209.904 242.666,212.010 243.950 C 214.016 245.173,214.219 245.095,217.360 241.900 C 222.126 237.051,223.789 232.155,222.808 225.853 C 222.410 223.292,222.390 222.178,222.728 221.328 C 223.248 220.020,224.470 215.265,225.176 211.800 C 225.445 210.480,225.821 208.680,226.012 207.800 C 229.551 191.456,228.084 171.013,222.049 152.600 C 219.436 144.626,216.755 138.528,211.617 128.873 C 210.760 127.263,209.891 125.463,209.684 124.873 C 209.478 124.283,208.690 122.990,207.934 122.000 C 203.648 116.390,200.412 110.744,200.404 108.863 C 200.401 108.264,200.111 107.850,199.600 107.716 C 199.160 107.601,198.800 107.348,198.800 107.153 C 198.800 106.364,197.998 106.870,197.762 107.808 M182.840 111.607 C 181.872 112.263,180.808 112.800,180.475 112.800 C 179.497 112.800,176.569 114.683,175.857 115.770 C 172.648 120.667,182.674 123.020,187.925 118.602 C 192.927 114.393,188.241 107.948,182.840 111.607 M126.196 133.604 C 125.566 134.262,125.182 134.800,125.343 134.800 C 125.756 134.800,127.722 132.788,127.513 132.580 C 127.419 132.486,126.826 132.946,126.196 133.604 M119.293 141.200 C 119.018 141.640,118.931 142.000,119.100 142.000 C 119.269 142.000,119.632 141.640,119.907 141.200 C 120.182 140.760,120.269 140.400,120.100 140.400 C 119.931 140.400,119.568 140.760,119.293 141.200 M278.493 145.200 C 278.768 145.640,279.131 146.000,279.300 146.000 C 279.469 146.000,279.382 145.640,279.107 145.200 C 278.832 144.760,278.469 144.400,278.300 144.400 C 278.131 144.400,278.218 144.760,278.493 145.200 M140.000 214.978 C 125.901 218.947,121.385 235.431,131.611 245.600 C 137.318 251.275,138.360 250.866,140.191 242.229 L 140.694 239.858 138.534 237.043 C 136.021 233.767,135.946 232.978,138.155 233.049 L 139.682 233.099 139.412 230.579 C 139.035 227.054,140.975 225.894,142.009 229.026 C 142.424 230.286,143.200 230.929,143.200 230.014 C 143.200 229.154,144.864 228.692,145.537 229.365 C 146.128 229.956,146.078 230.195,144.918 232.304 C 143.875 234.203,143.610 235.222,143.384 238.200 C 143.093 242.035,142.119 246.320,140.878 249.224 L 140.119 251.000 142.686 251.123 C 157.623 251.836,167.496 236.016,160.022 223.347 C 159.565 222.572,159.299 221.763,159.432 221.549 C 159.564 221.334,159.004 221.438,158.187 221.779 C 154.338 223.388,150.797 221.018,151.312 217.178 L 151.512 215.687 148.856 215.042 C 145.752 214.289,142.530 214.266,140.000 214.978 " stroke="none" fill="#fa637b" fill-rule="evenodd"></path><path id="path3" d="M295.129 207.714 C 294.838 207.997,294.200 208.256,293.710 208.289 C 293.167 208.325,291.417 209.763,289.225 211.974 C 287.248 213.968,285.432 215.600,285.190 215.600 C 284.947 215.600,284.294 216.140,283.739 216.800 C 283.183 217.460,282.469 218.000,282.152 218.000 C 281.835 218.000,281.454 218.315,281.307 218.699 C 280.906 219.742,279.326 221.200,278.595 221.200 C 278.238 221.200,278.071 221.391,278.219 221.631 C 278.651 222.330,276.802 223.845,276.358 223.155 C 276.055 222.686,275.942 222.691,275.622 223.188 C 275.414 223.512,275.125 223.658,274.979 223.512 C 274.491 223.025,273.644 224.155,274.089 224.700 C 274.386 225.063,274.320 225.200,273.849 225.200 C 273.467 225.200,273.200 225.529,273.200 226.000 C 273.200 226.440,272.957 226.800,272.659 226.800 C 272.362 226.800,271.597 227.298,270.959 227.907 C 270.322 228.516,269.120 229.337,268.290 229.731 C 267.459 230.125,266.160 231.067,265.403 231.824 C 264.646 232.581,263.790 233.200,263.502 233.200 C 263.213 233.200,262.717 233.560,262.400 234.000 C 262.083 234.440,261.611 234.800,261.352 234.800 C 261.093 234.800,259.962 235.700,258.839 236.800 C 257.715 237.900,256.639 238.800,256.447 238.800 C 256.255 238.800,255.867 239.078,255.586 239.417 C 255.022 240.097,251.088 242.000,250.247 242.000 C 249.957 242.000,249.154 242.540,248.463 243.200 C 247.379 244.236,246.906 244.400,245.004 244.400 C 243.792 244.400,242.800 244.580,242.800 244.800 C 242.800 245.020,242.440 245.200,242.000 245.200 C 241.560 245.200,241.200 245.380,241.200 245.600 C 241.200 245.820,240.495 246.000,239.633 246.000 C 238.772 246.000,238.003 246.191,237.926 246.423 C 237.848 246.656,236.528 246.896,234.992 246.957 C 233.456 247.017,231.660 247.308,231.000 247.603 C 230.340 247.898,228.911 248.197,227.824 248.266 C 226.737 248.335,225.666 248.574,225.444 248.796 C 225.222 249.018,223.636 249.200,221.920 249.200 C 220.204 249.200,218.800 249.341,218.800 249.513 C 218.800 249.684,217.495 249.863,215.900 249.909 C 214.305 249.956,212.022 250.211,210.827 250.477 C 209.137 250.853,208.618 250.853,208.493 250.480 C 208.301 249.902,206.800 249.831,206.800 250.400 C 206.800 250.959,198.910 250.931,198.724 250.371 C 198.632 250.097,196.755 249.943,193.490 249.943 C 190.625 249.943,188.400 249.781,188.400 249.571 C 188.400 249.367,186.960 249.200,185.200 249.200 C 183.333 249.200,182.000 249.033,182.000 248.800 C 182.000 248.580,181.640 248.400,181.200 248.400 C 180.760 248.400,180.400 248.220,180.400 248.000 C 180.400 247.780,180.051 247.600,179.624 247.600 C 179.197 247.600,178.736 247.420,178.600 247.200 C 178.464 246.980,177.733 246.800,176.976 246.800 C 176.219 246.800,175.600 246.620,175.600 246.400 C 175.600 246.180,175.060 246.000,174.400 246.000 C 173.740 246.000,173.200 245.820,173.200 245.600 C 173.200 245.380,172.700 245.200,172.088 245.200 C 171.435 245.200,170.739 244.870,170.400 244.400 C 170.061 243.930,169.365 243.600,168.712 243.600 C 168.100 243.600,167.600 243.420,167.600 243.200 C 167.600 242.980,167.240 242.800,166.800 242.800 C 166.360 242.800,166.000 242.620,166.000 242.400 C 166.000 242.180,165.628 242.000,165.174 242.000 C 164.719 242.000,163.992 241.810,163.559 241.578 C 162.715 241.127,161.200 241.412,161.200 242.022 C 161.200 243.068,156.718 247.545,154.187 249.029 C 150.973 250.912,148.272 251.600,144.091 251.600 C 140.455 251.600,140.252 251.647,138.939 252.800 C 136.300 255.117,132.087 254.015,128.073 249.958 C 124.962 246.815,124.414 243.978,126.748 243.097 L 127.895 242.664 127.121 240.915 C 125.354 236.919,124.680 231.571,125.573 228.628 C 125.778 227.953,126.175 226.590,126.456 225.600 C 126.737 224.610,127.138 223.681,127.348 223.536 C 128.164 222.973,126.442 222.000,124.629 222.000 C 123.623 222.000,122.800 221.820,122.800 221.600 C 122.800 221.358,121.067 221.200,118.400 221.200 C 115.427 221.200,114.000 221.345,114.000 221.647 C 114.000 221.907,113.584 222.014,113.000 221.902 C 111.895 221.691,111.741 221.961,112.500 222.779 C 112.908 223.218,112.874 223.274,112.320 223.079 C 111.815 222.902,111.704 223.006,111.888 223.486 C 112.053 223.916,111.980 224.035,111.668 223.842 C 111.411 223.683,111.200 223.299,111.200 222.989 C 111.200 222.336,110.180 222.595,109.098 223.524 C 108.388 224.134,108.258 226.265,108.907 226.666 C 109.089 226.779,109.028 227.125,108.770 227.436 C 108.398 227.884,108.444 228.000,108.994 228.000 C 109.399 228.000,109.602 228.217,109.485 228.523 C 109.374 228.811,109.805 229.461,110.442 229.968 C 111.124 230.511,111.600 231.273,111.600 231.821 C 111.600 232.334,111.780 232.864,112.000 233.000 C 112.220 233.136,112.400 233.599,112.400 234.029 C 112.400 234.459,112.559 235.123,112.753 235.505 C 113.124 236.235,113.896 238.046,114.412 239.400 C 114.580 239.840,115.207 241.280,115.806 242.600 C 116.406 243.920,117.140 245.687,117.439 246.527 C 117.739 247.366,118.355 248.536,118.809 249.127 C 119.263 249.717,120.685 251.820,121.971 253.800 C 124.889 258.297,127.512 261.356,130.593 263.857 C 131.909 264.926,133.889 266.746,134.993 267.903 C 136.097 269.060,137.140 270.005,137.311 270.003 C 137.483 270.001,139.373 271.106,141.511 272.458 C 151.585 278.825,161.775 283.095,172.400 285.403 C 178.697 286.770,179.827 287.109,180.402 287.802 C 180.675 288.131,181.405 288.400,182.025 288.400 C 182.645 288.400,183.264 288.580,183.400 288.800 C 183.536 289.020,185.156 289.200,187.000 289.200 C 188.844 289.200,190.442 289.345,190.552 289.522 C 190.662 289.700,192.337 289.877,194.276 289.916 C 196.214 289.956,198.790 290.079,200.000 290.190 C 202.751 290.442,213.534 289.859,214.566 289.403 C 215.165 289.138,215.261 289.187,215.007 289.632 C 214.744 290.092,214.785 290.105,215.221 289.700 C 215.518 289.425,216.636 289.200,217.706 289.200 C 218.777 289.200,219.971 289.030,220.359 288.822 C 220.748 288.614,221.916 288.400,222.956 288.346 C 223.996 288.292,224.937 288.102,225.047 287.924 C 225.157 287.746,225.676 287.600,226.200 287.600 C 226.724 287.600,227.264 287.420,227.400 287.200 C 227.536 286.980,228.166 286.800,228.800 286.800 C 229.434 286.800,230.064 286.620,230.200 286.400 C 230.336 286.180,230.853 286.000,231.348 286.000 C 231.844 286.000,232.995 285.640,233.906 285.200 C 234.816 284.760,235.843 284.400,236.187 284.400 C 236.531 284.400,237.100 283.798,237.451 283.061 C 237.910 282.100,238.725 281.412,240.345 280.619 C 242.939 279.349,250.191 275.084,254.000 272.587 C 258.652 269.539,270.075 259.752,272.400 256.823 C 273.610 255.298,276.052 252.285,277.827 250.126 C 283.638 243.058,288.169 235.182,290.442 228.200 C 290.729 227.320,291.107 226.429,291.282 226.220 C 291.457 226.011,291.600 225.420,291.600 224.907 C 291.600 224.386,291.909 223.859,292.300 223.712 C 293.215 223.369,293.971 222.377,293.987 221.500 C 293.994 221.115,294.199 220.800,294.443 220.800 C 294.686 220.800,294.791 220.552,294.674 220.250 C 294.558 219.947,294.708 219.228,295.007 218.652 C 295.595 217.519,295.652 216.060,295.136 215.367 C 294.942 215.107,295.043 214.933,295.389 214.933 C 295.706 214.933,295.855 215.111,295.721 215.328 C 295.586 215.546,295.659 215.611,295.882 215.473 C 296.338 215.191,296.272 212.208,295.783 211.034 C 295.533 210.435,295.587 210.343,296.032 210.611 C 296.496 210.891,296.510 210.843,296.110 210.347 C 295.722 209.868,295.722 209.630,296.110 209.212 C 296.381 208.919,296.402 208.793,296.158 208.929 C 295.869 209.090,295.781 208.834,295.904 208.188 C 296.116 207.082,295.908 206.955,295.129 207.714 M297.160 207.700 C 296.793 208.625,297.009 209.924,297.467 209.545 C 297.840 209.235,297.884 208.942,297.608 208.610 C 297.388 208.344,297.325 208.008,297.470 207.863 C 297.615 207.718,297.613 207.600,297.467 207.600 C 297.320 207.600,297.182 207.645,297.160 207.700 M129.653 245.596 C 130.708 247.516,133.933 249.996,135.378 249.999 C 135.890 249.999,135.478 249.575,134.178 248.761 C 133.090 248.080,131.504 246.865,130.653 246.061 C 129.406 244.884,129.212 244.793,129.653 245.596 " stroke="none" fill="#fbc3c1" fill-rule="evenodd"></path><path id="path4" d="M187.400 211.630 C 186.799 211.866,187.001 211.951,188.211 211.972 C 190.006 212.003,191.481 212.847,192.003 214.143 C 192.234 214.715,192.358 214.791,192.375 214.370 C 192.435 212.863,189.034 210.989,187.400 211.630 M184.827 213.162 C 184.372 213.801,184.007 214.566,184.016 214.862 C 184.025 215.158,184.323 214.860,184.680 214.200 C 185.036 213.540,185.614 212.781,185.964 212.513 C 186.340 212.225,186.407 212.020,186.127 212.013 C 185.867 212.006,185.282 212.523,184.827 213.162 M155.505 213.483 C 156.002 213.579,156.722 213.575,157.105 213.475 C 157.487 213.375,157.080 213.296,156.200 213.301 C 155.320 213.305,155.007 213.387,155.505 213.483 M152.654 214.429 C 152.074 214.885,151.614 215.470,151.632 215.729 C 151.652 216.028,151.741 216.006,151.876 215.667 C 151.993 215.374,152.654 214.790,153.344 214.369 C 154.035 213.948,154.399 213.602,154.154 213.601 C 153.909 213.601,153.234 213.973,152.654 214.429 M158.857 214.502 C 159.439 214.996,160.108 215.760,160.345 216.200 C 160.582 216.640,160.781 216.789,160.788 216.531 C 160.805 215.885,158.836 213.600,158.264 213.602 C 158.009 213.603,158.276 214.008,158.857 214.502 M184.001 216.926 C 183.997 217.958,185.715 219.974,186.600 219.975 C 186.820 219.975,186.673 219.785,186.273 219.553 C 185.873 219.320,185.198 218.561,184.774 217.865 C 184.350 217.169,184.002 216.747,184.001 216.926 M159.689 220.317 L 158.779 221.800 159.789 220.678 C 160.345 220.060,160.800 219.385,160.800 219.178 C 160.800 218.590,160.665 218.728,159.689 220.317 M309.771 222.667 C 309.645 223.070,309.338 223.760,309.090 224.200 C 306.368 229.019,302.400 238.548,302.400 240.266 C 302.400 241.486,303.166 240.652,304.023 238.500 C 305.163 235.636,306.767 232.062,309.005 227.400 C 309.955 225.420,310.793 223.459,310.867 223.041 C 311.041 222.048,310.069 221.715,309.771 222.667 M167.680 223.680 C 166.628 224.732,168.527 228.800,170.070 228.800 C 170.283 228.800,169.814 228.194,169.028 227.453 C 167.525 226.035,167.219 224.814,168.169 224.026 C 168.627 223.645,168.990 223.831,170.033 224.977 C 170.746 225.760,171.459 226.400,171.618 226.400 C 171.777 226.400,171.249 225.680,170.445 224.800 C 168.888 223.097,168.443 222.917,167.680 223.680 M176.769 224.798 C 175.982 225.679,175.471 226.400,175.633 226.400 C 175.796 226.400,176.352 225.897,176.869 225.282 C 178.199 223.702,178.738 223.451,179.483 224.066 C 180.031 224.518,180.100 224.508,179.934 224.000 C 179.551 222.831,178.228 223.164,176.769 224.798 M292.657 223.907 C 292.553 224.076,291.617 226.371,290.578 229.007 C 286.687 238.879,281.710 246.788,274.506 254.548 C 273.663 255.457,272.565 256.781,272.066 257.491 C 270.069 260.333,254.837 272.669,250.200 275.201 C 248.880 275.922,246.540 277.271,245.000 278.199 C 243.460 279.127,241.277 280.353,240.150 280.924 C 239.022 281.496,237.987 282.256,237.850 282.614 C 237.458 283.636,237.555 283.814,238.100 283.073 C 238.375 282.699,240.130 281.521,242.000 280.456 C 255.713 272.648,254.464 273.476,262.000 267.189 C 271.260 259.463,282.641 252.626,291.256 249.612 L 293.912 248.683 295.056 249.487 C 296.709 250.650,302.067 252.404,306.200 253.136 C 311.087 254.002,314.750 254.380,320.600 254.623 C 323.900 254.760,327.280 255.044,328.110 255.254 C 329.718 255.661,330.800 255.104,330.800 253.871 C 330.800 252.933,329.888 252.800,323.467 252.799 C 312.505 252.798,302.283 251.306,296.863 248.917 C 295.629 248.373,295.583 248.289,296.263 247.836 C 296.963 247.368,306.225 244.344,309.200 243.611 C 309.970 243.421,311.320 243.085,312.200 242.863 C 313.080 242.641,314.880 242.252,316.200 241.997 C 317.520 241.743,319.320 241.383,320.200 241.198 C 322.676 240.676,328.989 239.791,337.491 238.774 C 339.520 238.531,341.740 238.455,342.423 238.605 C 343.560 238.855,343.654 238.798,343.533 237.939 C 343.433 237.233,343.102 236.964,342.200 236.855 C 339.968 236.585,324.209 238.417,318.600 239.598 C 317.720 239.783,315.920 240.156,314.600 240.427 C 310.283 241.312,304.521 242.865,300.636 244.191 C 293.628 246.581,291.628 247.454,281.700 252.453 C 277.465 254.586,274.007 256.211,274.015 256.065 C 274.023 255.919,274.662 255.080,275.435 254.200 C 282.998 245.590,289.162 235.666,291.211 228.800 C 291.375 228.250,291.887 226.855,292.349 225.700 C 293.081 223.868,293.235 222.972,292.657 223.907 M172.900 226.676 C 173.285 226.776,173.915 226.776,174.300 226.676 C 174.685 226.575,174.370 226.493,173.600 226.493 C 172.830 226.493,172.515 226.575,172.900 226.676 M178.417 227.379 C 177.509 228.474,174.561 229.312,172.517 229.056 C 171.215 228.893,170.857 228.932,171.400 229.180 C 172.699 229.771,174.886 229.634,176.600 228.855 C 177.967 228.233,179.709 226.800,179.098 226.800 C 178.988 226.800,178.682 227.061,178.417 227.379 M90.976 230.248 C 91.121 230.824,91.758 231.949,92.392 232.748 C 93.026 233.547,94.389 235.862,95.421 237.893 C 97.256 241.504,98.304 242.477,97.576 239.895 C 96.309 235.394,89.927 226.066,90.976 230.248 M109.900 230.500 C 110.118 230.775,110.886 232.620,111.606 234.600 C 112.326 236.580,113.319 239.100,113.812 240.200 C 114.306 241.300,115.091 243.045,115.555 244.078 C 116.923 247.119,117.002 247.074,112.200 246.017 C 111.320 245.823,109.610 245.474,108.400 245.240 C 107.190 245.007,104.490 244.470,102.400 244.048 C 89.222 241.384,60.115 239.615,60.475 241.500 C 60.584 242.074,61.111 242.219,63.404 242.308 C 64.942 242.368,70.970 242.692,76.800 243.030 C 87.144 243.628,90.065 243.892,95.800 244.748 C 97.340 244.978,99.860 245.352,101.400 245.580 C 105.371 246.168,106.000 246.351,106.000 246.913 C 106.000 247.691,101.476 252.511,98.704 254.686 C 94.795 257.753,84.072 264.781,83.259 264.809 C 82.066 264.850,81.133 266.313,81.802 267.093 C 82.500 267.909,82.504 267.908,84.856 266.455 C 98.065 258.295,103.712 253.693,106.442 248.860 C 107.828 246.408,107.301 246.460,114.311 248.074 L 118.022 248.929 119.855 252.010 C 123.352 257.889,126.989 262.083,132.333 266.400 L 134.066 267.800 132.083 270.400 C 129.461 273.838,125.175 277.903,119.900 281.957 C 117.535 283.774,115.600 285.421,115.600 285.616 C 115.600 286.202,117.115 286.861,117.401 286.399 C 117.538 286.177,119.304 284.670,121.325 283.050 C 124.968 280.129,131.081 274.070,133.472 271.009 C 134.927 269.146,134.537 269.042,140.800 272.952 C 152.228 280.085,162.055 283.959,176.500 287.023 C 178.205 287.384,179.600 287.842,179.600 288.040 C 179.600 288.238,179.795 288.400,180.033 288.400 C 180.272 288.400,180.400 288.201,180.319 287.958 C 180.151 287.454,177.401 286.416,176.200 286.403 C 170.201 286.338,151.166 278.951,142.200 273.209 C 140.440 272.082,138.149 270.692,137.108 270.121 C 136.068 269.549,135.113 268.758,134.988 268.361 C 134.862 267.965,133.574 266.710,132.126 265.572 C 124.123 259.282,116.722 247.856,112.195 234.800 C 110.921 231.124,110.379 230.000,109.883 230.000 C 109.650 230.000,109.657 230.194,109.900 230.500 M225.006 241.235 C 222.225 244.101,220.406 244.967,217.128 244.985 C 215.410 244.995,214.677 245.123,215.075 245.346 C 217.684 246.806,223.622 244.041,226.766 239.900 C 227.741 238.617,227.001 239.178,225.006 241.235 M228.702 240.201 C 228.988 241.698,224.660 245.925,221.579 247.156 C 220.381 247.636,219.940 247.919,220.600 247.787 C 224.489 247.005,230.446 241.086,228.900 239.540 C 228.632 239.272,228.567 239.491,228.702 240.201 M125.992 244.210 C 125.606 244.674,125.594 245.030,125.938 245.710 C 126.355 246.530,126.387 246.538,126.349 245.800 C 126.271 244.276,126.404 244.000,127.220 244.000 C 127.767 244.000,128.224 244.434,128.590 245.300 C 130.127 248.936,135.749 252.059,137.232 250.100 C 137.682 249.504,137.678 249.475,137.201 249.900 C 135.350 251.550,130.972 248.939,128.719 244.839 C 127.977 243.491,126.812 243.221,125.992 244.210 M210.800 246.595 C 210.800 246.899,213.623 248.002,214.349 247.981 C 214.707 247.971,214.100 247.611,213.000 247.182 C 210.784 246.316,210.800 246.321,210.800 246.595 M126.400 247.109 C 126.400 248.157,132.076 253.257,132.628 252.706 C 132.722 252.611,131.889 251.944,130.776 251.223 C 129.664 250.503,128.290 249.212,127.724 248.356 C 126.696 246.804,126.400 246.525,126.400 247.109 M216.705 248.283 C 217.202 248.379,217.922 248.375,218.305 248.275 C 218.687 248.175,218.280 248.096,217.400 248.101 C 216.520 248.105,216.207 248.187,216.705 248.283 M139.473 251.218 C 139.158 251.667,138.209 252.387,137.365 252.818 C 136.473 253.273,136.133 253.600,136.554 253.600 C 137.462 253.600,139.469 252.193,140.015 251.172 C 140.561 250.152,140.198 250.182,139.473 251.218 M133.400 253.200 C 133.536 253.420,134.042 253.587,134.524 253.572 C 135.369 253.545,135.371 253.531,134.600 253.200 C 133.499 252.727,133.108 252.727,133.400 253.200 M275.200 261.009 C 275.200 263.901,282.178 269.581,290.600 273.546 C 292.580 274.478,294.527 275.420,294.927 275.640 C 296.462 276.485,297.434 276.685,298.348 276.344 L 299.296 275.990 298.285 275.195 C 297.729 274.758,297.172 274.400,297.047 274.400 C 296.664 274.400,291.568 272.065,288.357 270.418 C 282.018 267.167,276.000 262.562,276.000 260.963 C 276.000 260.653,275.820 260.400,275.600 260.400 C 275.380 260.400,275.200 260.674,275.200 261.009 " stroke="none" fill="#aab861" fill-rule="evenodd"></path></g></svg>
