<svg width="200" height="200" viewBox="0 0 200 200" fill="none" xmlns="http://www.w3.org/2000/svg">
<g clip-path="url(#clip0)">
<rect width="200" height="200" fill="white"/>
<ellipse cx="100" cy="216.5" rx="173" ry="126.5" fill="#2D9CDB"/>
<path fill-rule="evenodd" clip-rule="evenodd" d="M178.436 141.616C176.256 135.608 177.894 128.002 173.399 123.031C172.07 122.223 171.365 122.672 170.818 124.081C170.488 125.936 169.714 132.321 172.497 132.318C172.847 136.306 172.628 140.323 171.771 144.236C169.717 143.907 168.22 144.963 166.721 145.748C165.604 146.334 164.486 146.769 163.137 146.367C157.567 145.385 155.979 151.237 155.911 156.013C155.83 158.344 155.611 163.776 154.585 166.038C149.94 156.415 140.186 152.034 130.891 149.871C129.434 149.468 128.191 148.917 127.257 147.975C119.426 144.882 123.188 134.748 119.585 128.924C113.946 122 107.174 120.007 98.6422 121.194C91.1775 122.02 86.1033 129.605 86.5636 136.766C86.7016 138.227 85.825 139.763 85.3093 141.267C80.1568 147.435 72.1393 150.194 65.2435 153.921C42.2433 165.167 34.2725 173.761 25.3344 197.69C21.1531 206.694 16.1491 215.432 14.4872 225.347C12.5343 237.032 12.5282 248.993 13.208 260.793C11.9388 260.945 13.32 270.016 14.4333 273.158C14.8148 274.235 15.7287 275.011 16.8676 274.994C19.1584 276.107 24.5369 280.596 26.9329 280.447C34.6744 279.97 42.1994 280.708 49.658 280.326C57.7271 279.914 65.7185 278.408 73.8221 278.603C87.9538 278.944 77.8362 279.783 92.4569 280.447C101.687 280.873 135.359 275.83 144.562 276.653C152.048 278.229 155.464 275.573 154.322 267.749C153.899 264.75 152.551 258.081 156.987 257.797C159.085 258.041 160.821 260.138 162.393 261.364C176.277 271.705 190.461 264.259 191.578 247.259C193.683 233.001 196.633 229.633 190.219 215.395C169.928 162.392 200.499 169.593 179.858 144.767C178.246 146.171 178.656 142.423 178.436 141.616Z" fill="white"/>
<path fill-rule="evenodd" clip-rule="evenodd" d="M170.725 122.634C171.832 121.545 173.592 121.816 174.672 122.784C175.771 123.767 176.433 125.312 176.997 126.644C179.529 132.634 178.939 139.191 180.22 145.458C182.563 146.724 184.679 148.377 186.177 150.601C188.453 153.98 189.533 157.914 188.392 161.918C187.802 163.99 186.8 165.909 186.086 167.937C185.323 170.095 184.856 172.338 184.632 174.618C184.412 176.854 184.383 179.103 184.446 181.349C184.48 182.511 184.541 183.672 184.602 184.833C184.657 185.873 184.842 186.958 184.593 187.978L184.562 188.095C184.66 188.08 184.755 188.061 184.85 188.04C185.666 187.858 186.384 187.575 187.236 187.687C187.899 187.773 188.244 188.327 187.963 188.953C187.84 189.226 187.677 189.454 187.481 189.649C189.193 202.312 192.183 214.772 194.15 227.396C195.042 233.123 195.585 238.867 195.279 244.666L195.247 245.241C194.934 250.565 194.167 256.432 191.462 261.088C190.198 263.268 188.461 265.202 186.357 266.595C185.393 267.234 184.359 267.733 183.237 267.982C177.422 270.299 171.272 269.73 165.788 266.667C163.322 265.291 160.862 263.686 158.848 261.695C157.87 260.726 156.925 259.494 156.346 258.147C156.348 258.45 156.294 258.759 156.354 259.057L156.476 259.646C157.39 264.022 160.871 280.195 160.917 281.552C160.942 282.285 154.779 282.267 154.11 282.29L154.091 282.29C144.109 282.707 134.12 282.484 124.143 282.072L123.356 282.039C113.68 281.629 103.151 281.078 93.4653 280.796L93.4854 280.634C93.6013 279.763 94.1656 275.893 94.2285 275.596L94.2308 275.586C94.5053 274.48 95.0348 271.037 94.7561 269.895C94.0382 266.954 90.8027 267.625 88.5263 267.937L88.0469 268C87.6784 268.051 86.7817 268.183 86.7901 268.192C86.5483 267.939 87.1237 267.224 87.2654 267.033L87.3788 266.875C87.9905 266.019 88.5437 265.13 88.4833 264.026C88.3362 261.331 84.4865 261.483 82.5947 261.67C82.4613 261.683 82.4068 261.892 82.5604 261.923L82.9336 262.001C84.1338 262.258 86.7997 262.915 86.7394 263.909C86.7052 264.473 86.1044 264.889 85.7373 265.245C85.3326 265.637 84.9305 266.059 84.6319 266.54C84.0571 267.467 83.9265 268.717 84.4951 269.682C85.1512 270.794 86.3147 270.924 87.4801 270.823L87.5461 270.817C87.8025 270.793 88.059 270.768 88.3154 270.743L89.854 270.593C90.235 270.556 91.4592 270.235 91.8168 270.456C92.3235 270.77 91.7141 272.16 91.5997 272.618L91.5937 272.651C91.4954 273.314 91.4366 280.262 91.4266 280.721C83.8783 280.545 76.3288 278.866 68.7807 279.261C62.7841 279.574 56.8037 280.116 50.8183 280.586L50.6672 279.301C49.0084 265.304 46.4072 246.836 47.6556 232.992C47.7532 231.909 46.062 231.915 45.965 232.992C44.6742 247.308 47.4996 266.537 49.1431 280.715C46.5952 280.909 44.0461 281.085 41.4942 281.219L40.8434 281.252C32.1594 281.686 23.1964 281.712 14.6979 279.719C14.4359 279.658 14.3471 279.396 14.4021 279.178C14.3175 279.227 14.1907 279.199 14.1548 279.081C13.1648 275.816 12.662 267.504 12.2133 263.907L12.1831 263.672C11.7225 260.177 11.4583 256.642 11.2681 253.126C10.8835 246.093 10.93 239.051 11.4498 232.026C13.1045 209.618 19.6937 186.981 33.5229 168.973C36.8661 164.62 40.6721 160.637 45.2389 157.557C49.719 154.534 54.7443 152.405 59.8437 150.675C63.2143 149.531 66.6378 148.553 70.0613 147.576C70.1909 147.511 70.3205 147.447 70.4508 147.384L70.6467 147.291C71.8639 146.713 73.0621 146.081 74.309 145.568L74.5845 145.455C76.3913 144.73 78.4963 144.089 80.4522 144.111C83.62 142.515 86.2806 140.103 86.0228 136.234C85.9172 134.644 88.4108 134.646 88.4996 136.234C88.732 140.458 86.1308 143.453 82.8149 145.464L82.8307 145.48L82.8466 145.498C83.3643 146.085 83.918 146.631 84.5161 147.138C88.0959 150.187 92.6247 152.718 97.1513 154.383C102.462 156.339 107.768 156.924 113.261 155.343C116.133 154.516 118.844 153.242 121.336 151.593C122.096 151.09 122.825 150.551 123.525 149.973C122.863 149.068 122.335 148.094 121.891 147.06C121 144.98 120.262 142.162 121.173 139.965C121.397 139.424 122.286 139.09 122.597 139.779C123.453 141.665 123.81 143.703 124.808 145.547C125.188 146.248 125.625 146.914 126.116 147.542C126.116 147.576 129.86 148.216 129.86 148.216C134.387 148.214 138.65 149.954 142.654 152.128C145.021 153.413 147.348 154.779 149.667 156.147L154.201 158.823C154.535 159.02 154.909 159.21 155.283 159.413C154.846 157.252 154.632 155.049 154.776 152.865C154.994 149.572 156.274 145.969 159.666 144.796C161.27 144.24 163.125 144.411 164.683 145.028C165.401 145.314 166.183 145.692 166.851 146.198C167.175 144.743 168.537 143.652 169.907 143.17C170.351 143.014 170.805 142.914 171.266 142.866C171.252 142.632 171.251 142.396 171.254 142.153L171.257 141.969C171.278 140.891 171.27 139.813 171.247 138.737C171.204 136.697 171.107 134.699 170.9 132.665C170.727 130.982 170.427 129.317 170.204 127.64L170.111 126.92C169.923 125.5 169.607 123.731 170.725 122.634ZM34.5573 260.301L34.1794 260.077C32.9419 259.346 31.6672 258.673 30.1681 259.011C28.7399 259.333 27.7268 260.493 27.1945 261.8C26.943 262.417 26.8118 263.04 26.7148 263.698C26.6602 264.066 26.6235 264.438 26.5588 264.805L26.5372 264.918C26.5079 265.064 26.4631 265.268 26.4223 265.444C26.0326 265.272 25.6402 265 25.3213 264.839L25.0641 264.71C24.4605 264.409 23.8326 264.123 23.1748 263.984C21.7501 263.682 20.1696 264.118 19.3551 265.395C18.6585 266.487 18.6727 267.774 18.9392 268.998L18.9582 269.083C19.0738 269.591 19.6712 271.624 20.5402 271.328C21.3853 271.039 21.4982 269.915 21.5622 269.166L21.567 269.095C21.5958 268.53 21.4839 267.344 22.1231 267.13C22.9217 266.862 24.4582 268.085 25.1537 268.405C26.3974 268.976 27.7636 269.144 28.7756 268.033C29.683 267.036 29.7596 265.578 29.9944 264.314L30.055 263.995C30.1796 263.353 30.4207 262.327 31.1311 262.353C31.7116 262.375 32.3489 262.976 32.8274 263.262C33.3555 263.577 33.9039 263.84 34.477 264.064C35.8145 264.587 37.3016 264.754 38.7245 264.6C39.5488 264.511 40.0856 264.117 40.377 263.341C40.4757 263.114 40.551 262.879 40.6029 262.636C41.0649 260.9 38.5408 259.66 37.6101 261.214C36.5364 261.173 35.5368 260.884 34.5573 260.301ZM189.902 248.69C189.133 248.141 188.088 248.259 187.4 248.878L187.359 248.916C187.168 249.1 186.738 249.58 186.46 250.002L186.373 249.934C186.359 249.923 186.345 249.912 186.332 249.901L186.294 249.87C185.725 249.389 185.131 248.949 184.399 248.752C182.491 248.239 180.758 249.517 179.925 251.155C179.53 251.932 179.361 252.734 179.164 253.572L179.147 253.649C179.068 254.04 178.965 254.831 178.622 255.024C178.497 255.095 178.211 254.955 177.929 254.792C177.285 254.42 176.707 253.947 176.076 253.555C174.596 252.636 172.913 252.256 171.251 252.919C169.605 253.574 168.425 255.121 168.398 256.925C168.377 258.254 169.267 260.573 170.941 260.411C171.277 260.379 171.708 260.172 171.763 259.786C171.907 258.759 171.098 257.499 172.026 256.651C172.923 255.832 173.852 256.521 174.664 257.089L175.246 257.498C176.191 258.154 177.165 258.756 178.361 258.827C179.875 258.918 181.273 258.082 182.035 256.792C182.723 255.627 182.734 254.309 183.272 253.112C183.39 252.85 183.693 252.61 183.592 252.489C184 252.702 184.527 253.315 184.781 253.486C186.047 254.341 187.739 254.334 188.849 253.201C189.291 252.751 189.572 252.194 189.9 251.663C190.018 251.471 190.166 251.294 190.274 251.096C190.313 251.024 190.378 250.754 190.432 250.514L190.514 250.132L190.522 250.07C190.592 249.492 190.388 249.037 189.902 248.69ZM141.146 243.643C139.692 242.879 137.899 243.17 136.589 244.096C135.12 245.133 134.4 246.728 133.909 248.412C133.553 249.639 133.382 251.331 132.356 252.219C131.163 253.253 129.163 252.156 127.904 251.748C126.38 251.255 124.549 251.053 123.062 251.783C121.605 252.497 120.902 253.955 120.752 255.517C120.611 256.974 120.82 258.894 121.651 260.113C121.733 260.233 121.889 260.202 121.941 260.075C122.487 258.729 122.382 257.19 122.826 255.797C123.299 254.311 124.409 253.996 125.818 254.396C127.288 254.813 128.634 255.594 130.146 255.872C131.757 256.168 133.353 255.863 134.623 254.797C135.692 253.901 136.34 252.595 136.777 251.294C137.203 250.026 137.273 248.328 138.181 247.275C138.41 247.01 138.809 246.689 139.18 246.655C139.73 246.604 139.929 247.013 140.374 247.327C141.548 248.155 143.421 248.172 144.139 246.715C144.375 246.238 144.491 245.561 144.139 245.094C143.523 244.275 143.016 244.282 142.202 244.459C142.176 244.437 142.147 244.409 142.115 244.371L142.09 244.341C141.874 244.068 141.456 243.806 141.146 243.643ZM83.5517 235.044C83.5035 233.948 82.1855 232.897 81.1458 233.663C80.978 233.784 80.8129 233.91 80.651 234.04L80.5847 234.111V234.111C80.3913 234.111 80.2109 234.06 80.0198 233.999L79.6856 233.892C78.8083 233.613 77.9648 233.389 77.0283 233.594C75.4169 233.948 74.3945 235.339 73.8696 236.815C73.3803 238.191 73.541 239.594 73.3115 241.005C73.0939 242.342 72.4069 242.864 71.117 242.578L71.0509 242.563C68.4852 241.948 65.5619 240.229 63.3125 242.586C60.8825 245.131 62.4721 249.174 65.1321 250.81C65.2483 250.881 65.3768 250.764 65.3504 250.642C64.997 248.998 63.966 247.429 64.3115 245.684C64.5509 244.474 65.3911 243.902 66.5902 244.095C69.1122 244.501 71.471 246.511 74.0576 245.052C75.3497 244.323 76.0617 242.953 76.3835 241.55C76.6734 240.287 76.5912 238.864 77.1468 237.672C77.7546 236.369 78.7783 237.314 79.8814 237.492C81.442 237.744 83.6348 236.925 83.5517 235.044ZM168.162 196.095C168.167 195.007 166.477 195.006 166.472 196.095C166.409 209.884 159.961 222.629 158.803 236.28C158.711 237.364 160.402 237.358 160.494 236.28C161.652 222.625 168.1 209.906 168.162 196.095ZM28.5596 218.665C27.6695 217.657 26.3656 217.97 25.3064 218.475C23.7156 219.234 22.1932 220.087 20.7337 221.073C20.3747 221.315 20.601 221.842 21.0237 221.761C22.0941 221.555 23.1359 221.325 24.1744 220.991C24.9548 220.74 25.7671 220.376 26.5809 220.247C26.53 220.434 26.4681 220.617 26.3952 220.798C26.2616 221.167 26.1065 221.529 25.9749 221.9C25.7129 222.638 25.4769 223.387 25.2481 224.136L25.1342 224.511C24.6585 226.082 24.1963 228.369 26.3916 228.853C27.2061 229.032 28.0134 228.677 28.771 228.398L28.9271 228.341L31.6908 227.361C32.0201 227.245 32.63 227.163 32.903 226.959L32.8593 227.169C32.8028 227.447 32.7473 227.72 32.6274 227.998L32.5605 228.151C31.874 229.708 31.0085 231.266 31.8092 232.987C32.4951 234.462 34.1166 235.161 35.6792 234.743C37.1642 234.345 38.2388 232.672 37.47 231.217C37.1835 230.675 36.3453 230.409 35.8126 230.748L35.6696 230.843C35.5018 230.953 35.2131 231.141 35.206 231.176C35.1663 231.186 35.1247 231.196 35.0824 231.207C35.172 230.943 35.2324 230.537 35.3111 230.358L35.6003 229.701C36.1384 228.466 36.6047 227.21 36.1942 225.825C35.0186 221.86 31.0319 224.114 28.0911 225.246C28.134 225.078 28.1765 224.913 28.2124 224.751C28.3392 224.177 28.4779 223.606 28.6151 223.034L28.8964 221.855C29.1496 220.768 29.3467 219.558 28.5596 218.665ZM179.022 214.24C179.024 214.146 178.909 214.074 178.828 214.129C176.948 215.393 175.69 218.033 176.396 220.282C176.739 221.375 177.469 222.332 178.493 222.863C179.766 223.521 181.172 223.271 182.51 222.989L183.078 222.867C183.479 222.783 183.874 222.721 184.281 222.834C184.421 222.872 184.584 222.994 184.716 223.021C184.662 223.114 184.603 223.276 184.574 223.336L184.477 223.531C184.379 223.729 184.285 223.934 184.225 224.142C184.025 224.839 184.074 225.587 184.398 226.237C185.001 227.448 186.266 228.131 187.583 228.246C188.368 228.316 190.345 227.629 190.812 228.461C191.74 230.114 194.382 229.003 193.868 227.172C193.521 225.935 192.536 225.136 191.316 224.801C190.666 224.623 189.992 224.647 189.331 224.72C189.072 224.748 188.814 224.788 188.555 224.816L188.36 224.834C188.411 224.83 187.823 224.816 187.586 224.8L187.637 224.664C187.644 224.645 187.651 224.628 187.657 224.616C187.92 224.053 188.115 223.493 188.099 222.864C188.07 221.731 187.336 220.742 186.373 220.196C185.485 219.693 184.427 219.492 183.417 219.604C182.308 219.728 180.73 220.607 179.639 220.144C178.816 219.795 178.537 218.577 178.525 217.779C178.506 216.577 178.988 215.437 179.022 214.24ZM102.441 206.356C99.4165 204.998 96.8188 207.317 95.0437 209.537C94.9522 209.651 95.0674 209.844 95.2117 209.755L95.4475 209.608C96.8968 208.698 98.5039 207.624 100.3 207.934C101.926 208.214 102.329 209.279 102.005 210.729L101.91 211.137C101.566 212.631 101.302 214.177 102.159 215.566C102.968 216.877 104.546 217.45 106.023 217.485C107.728 217.526 109.199 216.733 110.758 216.179L110.881 216.136C111.543 215.908 113.958 215.31 113.991 216.671C114.007 217.293 113.341 218.024 113.086 218.582C112.751 219.314 112.528 220.082 112.532 220.894C112.542 222.92 114.231 224.565 116.23 223.583C117.007 223.2 117.207 222.104 116.802 221.4C116.231 220.407 116 220.458 116.4 219.416L116.515 219.122C117.008 217.866 117.399 216.573 116.847 215.254C115.742 212.621 112.431 212.302 110.065 213.174L109.978 213.207C108.506 213.777 104.096 216.064 104.4 212.83C104.519 211.556 104.906 210.335 104.636 209.047C104.385 207.852 103.55 206.854 102.441 206.356ZM87.8655 195.54C87.3133 194.568 85.4596 194.915 85.6132 196.15L85.6624 196.535C85.7252 197.061 85.739 197.555 85.3757 198.023C84.9349 198.591 84.1802 198.762 83.4953 198.675C82.0452 198.492 81.1204 197.147 79.5245 197.461C78.2291 197.716 77.3345 198.776 76.8165 199.932C76.2682 201.157 76.2798 202.484 75.8713 203.745C75.4009 205.195 74.3977 205.128 73.145 204.621L72.8753 204.51C71.6769 204.012 70.4744 203.458 69.1391 203.696C66.9212 204.092 65.0112 207.504 67.0892 209.151C67.4643 209.448 68.1198 209.293 68.104 208.731L68.1019 208.624C68.0914 207.601 68.3495 206.28 69.5218 206.039C70.765 205.783 72.1697 206.918 73.3242 207.245C76.3142 208.091 78.0175 205.84 78.5253 203.177L78.5439 203.075C78.706 202.143 78.8341 200.418 79.8085 199.982C80.3282 199.749 80.8825 200.322 81.3167 200.553C81.9915 200.911 82.7155 201.138 83.4788 201.196C86.3026 201.412 89.5111 198.441 87.8655 195.54ZM158.528 191.862C157.597 191.459 156.21 191.684 155.982 192.898L155.845 193.663C155.574 195.139 155.144 196.985 153.693 197.517C152.785 197.85 151.743 197.267 150.93 196.912C149.952 196.484 148.999 196.118 147.929 196.016C145.757 195.811 144.139 197.068 143.371 199.032L143.304 199.207C142.685 200.858 141.847 204.014 143.204 205.353C143.402 205.549 143.801 205.644 144.044 205.462C144.846 204.86 145.048 203.872 145.324 202.944L145.347 202.865C145.639 201.902 145.879 200.842 146.406 199.974C147.386 198.362 149.943 200.203 151.174 200.628C153.194 201.326 155.289 200.918 156.832 199.425C157.807 198.481 158.384 197.287 158.78 196.023C159.034 196.154 159.296 196.267 159.579 196.343C160.657 196.635 161.935 196.482 162.756 195.665C164.296 194.132 163.461 191.382 161.113 191.827C160.65 191.914 160.347 192.356 160.292 192.807L160.26 192.878V192.878C159.669 192.683 159.023 192.077 158.528 191.862ZM49.7121 178.166C47.5181 175.908 43.7106 177.132 42.21 179.528C41.8987 180.024 42.4128 180.654 42.9593 180.503C44.2655 180.143 46.1087 178.726 47.4891 179.628C48.5124 180.296 47.9557 182.044 47.8621 183.022L47.8486 183.168C47.7302 184.499 47.7033 186.32 48.7395 187.316C49.3361 187.889 50.2508 187.812 51.0374 187.73L51.2875 187.704C52.2148 187.611 53.136 187.447 54.0242 187.162C54.8407 186.9 55.6144 186.543 56.3817 186.166L56.5734 186.071C56.913 185.903 58.0455 185.235 58.3847 185.655C58.5616 185.874 58.1233 186.833 58.0322 187.047C57.6881 187.851 57.2507 188.609 56.9352 189.428C56.3792 190.871 56.3327 192.499 57.1136 193.876C57.8701 195.21 59.5094 196.291 60.9622 195.266C61.794 194.679 61.7917 193.612 60.9622 193.024C60.5233 192.713 60.0808 192.509 59.8995 191.987C59.6628 191.308 59.9673 190.587 60.2622 189.957L60.6151 189.209C61.3971 187.537 62.1783 185.615 61.0859 183.906C59.9578 182.142 57.6651 182.114 55.9308 182.849C54.9409 183.268 54.0377 183.831 53.0062 184.155C52.2926 184.38 51.5762 184.53 50.8452 184.612C50.6823 183.732 50.9128 182.747 50.9151 181.873C50.9189 180.545 50.6717 179.154 49.7121 178.166ZM162.849 146.756C159.146 146.212 157.354 149.525 157.098 152.715C156.868 155.612 157.337 158.516 158.071 161.333C158.345 162.377 158.654 163.408 158.977 164.423C159.497 166.053 160.061 167.681 160.748 169.25C160.957 169.723 161.169 170.199 161.405 170.656C162.216 171.32 162.91 172.216 163.54 173.077L163.955 173.646V173.646L164.066 173.799C165.137 175.266 166.052 176.788 166.8 178.444C167.513 180.02 168.043 181.664 168.456 183.342L168.557 183.761C168.874 185.052 169.341 186.593 168.776 187.795C169.886 188.137 170.989 188.448 172.168 188.613C173.795 188.841 175.488 188.856 177.13 188.797C178.717 188.738 180.301 188.615 181.881 188.446L183.019 188.321C183.137 188.307 183.255 188.293 183.373 188.279C183.328 188.224 183.29 188.162 183.263 188.095C182.857 187.122 182.91 185.995 182.865 184.948L182.859 184.833C182.8 183.672 182.764 182.511 182.749 181.349C182.722 179.167 182.781 176.979 183.02 174.808C183.227 172.907 183.55 171.006 184.055 169.161C184.565 167.29 185.342 165.533 186.061 163.736C186.771 161.96 187.356 160.136 187.293 158.199C187.253 156.969 186.982 155.772 186.524 154.641C186.502 154.658 186.475 154.671 186.443 154.669C185.004 154.616 183.641 154.199 182.251 153.848C180.776 153.474 179.265 153.168 177.756 152.986L177.435 152.948C176.177 152.807 174.807 152.738 173.645 153.278C172.388 153.863 171.596 155.166 171.118 156.415L171.065 156.559C170.216 158.927 170.411 162.089 173.035 163.21C173.848 163.558 175.706 163.772 176.124 162.668C176.312 162.165 175.926 161.421 175.78 160.946C175.609 160.379 175.497 159.821 175.509 159.229C175.52 158.71 175.916 158.318 176.42 158.276L176.467 158.273C177.384 158.233 179.275 157.176 179.459 158.698C179.495 158.994 179.269 159.305 179.03 159.449C178.548 159.734 178.045 159.925 177.521 160.041C177.593 160.358 177.694 160.669 177.794 160.977C177.853 160.948 177.918 160.929 177.988 160.922C178.764 160.859 179.531 160.982 180.306 160.99L180.73 160.993C181.332 160.999 181.857 161.031 182.441 161.343C182.98 161.63 182.885 162.351 182.441 162.66C181.276 163.468 179.305 162.994 178.092 162.174C178.145 162.59 178.119 163.015 177.942 163.461C177.418 164.785 175.915 165.444 174.571 165.501C173.377 165.552 172.236 165.176 171.283 164.516C171.088 165.212 170.776 165.88 170.64 166.601C170.463 167.548 170.674 168.656 170.345 169.546C170.015 170.442 168.74 171.042 168.003 170.163C166.923 168.878 167.259 166.842 168.208 165.539C168.713 164.85 169.63 164.06 170.564 163.935C169.915 163.324 169.396 162.569 169.068 161.736C169.045 161.747 169.017 161.749 168.988 161.74C165.951 160.91 164.298 158.157 164.197 155.267C163.973 155.428 163.741 155.572 163.497 155.7C162.916 156.013 162.17 155.738 161.991 155.089C161.826 154.485 162.306 153.739 162.98 153.789C163.364 153.821 163.751 153.823 164.134 153.76C164.186 153.751 164.237 153.741 164.29 153.73C164.324 153.508 164.368 153.286 164.423 153.066C163.276 153.197 162.075 153.009 160.966 152.764C160.011 152.555 160.232 151.035 161.194 151.071L161.348 151.077C162.61 151.138 164.473 151.342 165.554 150.542C165.744 150.267 165.955 150.007 166.183 149.762C166.213 149.701 166.238 149.635 166.262 149.567C166.843 147.893 164.089 146.937 162.849 146.756ZM129.613 170.311C128.171 169.925 126.654 170.45 125.663 171.539C124.83 172.454 124.399 173.578 124.013 174.727L123.793 175.388C123.472 176.324 123.104 177.066 121.959 176.709C120.491 176.252 119.219 175.456 117.623 175.518C116.172 175.576 114.752 176.2 113.742 177.246C112.708 178.317 112.215 179.808 112.434 181.278L112.449 181.367C112.563 182.044 113.553 184.46 114.602 183.348C115.07 182.852 114.977 182.303 115.089 181.673C115.194 181.073 115.42 180.484 115.791 179.997C116.448 179.134 117.504 178.798 118.537 179.103C119.899 179.506 121.102 180.336 122.57 180.355C124.113 180.376 125.424 179.575 126.275 178.318C126.963 177.303 127.208 176.115 127.692 175.011L127.738 174.906C128.144 173.998 128.421 173.67 129.352 174.104L129.677 174.26C131.069 174.922 132.636 175.528 134.076 174.595C135.414 173.728 135.984 171.986 134.859 170.717C134.238 170.016 132.801 170.136 132.398 171.034C132.327 171.189 132.261 171.345 132.196 171.502C132.073 171.465 131.953 171.419 131.84 171.355C131.085 171.015 130.429 170.529 129.613 170.311ZM87.5334 160.053C85.8892 159.167 84.5165 160.91 84.7792 162.484L84.7919 162.553C84.8016 162.601 84.8238 162.705 84.8515 162.823C84.7676 162.813 84.6845 162.798 84.6017 162.777L84.2197 162.731C83.6192 162.661 83.037 162.624 82.436 162.817C81.0174 163.273 80.3198 164.652 80.2855 166.066C80.2515 167.475 80.9802 168.611 81.1942 169.957C81.4132 171.333 79.9892 170.94 79.0595 170.839L79.0231 170.836C77.7297 170.705 76.3701 170.702 75.2952 171.546C74.1851 172.416 73.6934 173.921 73.8502 175.299C73.9918 176.543 74.7701 178.459 76.1801 178.655C76.3193 178.675 76.4778 178.644 76.5493 178.505C77.1194 177.396 76.3261 176.171 76.4157 175.001C76.5144 173.714 77.3346 173.5 78.4654 173.583C79.5628 173.664 80.6575 173.897 81.7414 173.57C82.9172 173.214 83.7705 172.205 84.0119 171.014C84.2779 169.702 83.7889 168.481 83.4717 167.234C83.3663 166.82 83.3145 166.403 83.3872 165.979C83.4028 165.888 83.4823 165.803 83.511 165.767C83.6915 165.733 83.9616 165.82 84.116 165.836L84.3352 165.858C85.526 165.966 86.6732 165.893 87.5241 164.909C87.9602 164.405 88.1212 163.788 88.0777 163.138L88.0558 162.875C88.0326 162.622 87.9881 162.289 87.8567 162.15L87.8551 162.143V162.143C87.8991 162.084 87.9409 162.023 87.9792 161.96L88.0163 161.896C88.381 161.288 88.1695 160.396 87.5334 160.053ZM171.771 144.623C170.133 144.623 168.586 145.157 167.347 146.614C167.789 147.035 168.142 147.523 168.337 148.096C168.943 147.764 169.585 147.504 170.243 147.32C172.248 146.76 174.991 146.768 176.678 148.145C177.561 148.863 176.591 150.153 175.64 149.931C174.788 149.732 174.049 149.365 173.155 149.322C172.379 149.284 171.618 149.386 170.875 149.61C169.74 149.952 168.708 150.601 167.95 151.496C167.696 151.796 167.474 152.121 167.288 152.472C165.872 155.161 166.94 159.017 168.894 161.231C168.127 158.681 168.892 155.675 170.42 153.563C172.26 151.021 175.011 150.732 177.909 151.129L178.005 151.142C180.809 151.538 184.281 152.229 186.377 154.29C186.168 153.815 185.927 153.354 185.657 152.908C184.068 150.29 181.432 148.248 178.698 146.792C178.239 146.544 177.776 146.316 177.316 146.105C175.564 145.299 173.611 144.623 171.771 144.623ZM172.667 124.649L172.66 124.678C172.659 124.684 172.658 124.69 172.656 124.695C172.559 125.555 172.788 126.542 172.905 127.409L172.92 127.532C173.166 129.507 173.489 131.483 173.595 133.473C173.697 135.386 173.658 137.37 173.428 139.275L173.394 139.547C173.258 140.585 173.178 141.802 172.828 142.868C174.176 142.997 175.524 143.43 176.75 143.891C177.189 144.058 177.627 144.234 178.062 144.42C177.517 141.521 177.225 138.581 176.633 135.691L176.517 135.115C175.874 131.918 175.27 128.701 173.607 125.841C173.385 125.46 173.146 125.141 172.876 124.801C172.817 124.723 172.747 124.672 172.667 124.649Z" fill="black"/>
<path fill-rule="evenodd" clip-rule="evenodd" d="M136.015 89.5324C135.512 83.0328 136.291 76.2204 133.785 70.0426C129.418 59.7924 117.17 56.3747 107.675 52.4723C103.871 51.3479 91.0714 51.1908 86.6174 49.7026C76.5371 46.3344 74.1286 42.3213 66.1189 48.7344C64.7668 49.8299 63.9209 51.0206 63.3038 52.6474L63.3292 52.6544C63.1529 53.3326 63.3419 54.0093 63.7389 54.5262C60.266 58.0774 58.8127 63.4016 60.5946 68.1289C66.4097 80.4306 66.1362 87.0822 64.2626 100.307C61.8159 112.653 67.4069 117.163 76.6664 123.881C76.2894 124.612 76.2112 125.584 76.7028 126.229C87.4101 141.282 107.599 148.468 124.896 140.828C131.918 137.702 135.052 130.222 136.841 123.472C138.925 115.914 139.565 107.951 137.869 100.252C137.185 96.6914 136.293 93.1566 136.015 89.5324Z" fill="white"/>
<path fill-rule="evenodd" clip-rule="evenodd" d="M74.2526 17.5223C75.5523 17.3271 76.5338 18.1337 77.0007 19.2707L77.0252 19.332C77.1753 19.7188 77.3422 20.0951 77.5219 20.4651C80.7742 18.869 85.4149 19.2791 87.4732 22.5116C88.942 24.8201 88.0459 27.56 87.4923 30.0081L87.1288 31.6212C87.8314 32.0685 88.3612 32.8695 88.3363 33.6989L88.3333 33.7628L88.1854 36.0122C88.6546 35.5365 89.0836 35.0185 89.4661 34.4668C89.7302 33.9826 90.0155 33.507 90.3219 33.0461C92.1245 30.3337 96.1714 32.6909 94.6837 35.5957C94.3984 36.1559 94.0772 36.6866 93.7327 37.1982C93.3439 37.9529 93.0248 38.7288 92.7797 39.5258C93.4834 39.8323 94.0244 40.5131 94.0814 41.5405C94.2146 43.94 92.9551 45.9421 90.9517 47.1999C90.3621 47.5699 89.7535 47.6418 89.2019 47.5044C89.1047 47.6354 89.0075 47.7665 88.9145 47.8997C89.7133 48.5487 90.4339 49.2887 91.0531 50.1089C92.917 49.8299 94.7915 49.6988 96.6659 49.6946C98.9567 48.572 101.7 48.5952 104.162 49.0159C105.747 49.2865 107.268 49.813 108.828 50.1914C110.472 50.5888 112.141 50.6036 113.805 50.8742C115.901 51.2146 117.739 52.1829 118.895 53.7283C120.165 53.7663 121.501 54.2864 122.608 54.9925C125.187 56.6373 127.75 58.3053 130.322 59.9606C131.309 60.5961 131.678 61.6107 131.496 62.7422L131.484 62.8146L131.397 63.284L131.601 63.5728C132.388 64.6847 133.244 65.8494 133.754 67.0766C134.696 68.436 135.548 69.8609 136.302 71.3302C137.319 73.3048 138.158 75.3977 138.726 77.5456C138.868 78.089 139.009 78.6365 139.102 79.1904C139.236 79.9726 139.031 80.5794 138.919 81.3299C138.779 82.2812 138.728 83.2452 138.58 84.1987C138.481 84.8308 137.944 85.1416 137.382 85.1585C137.594 86.7673 137.746 88.3867 137.892 89.9934C138.097 92.2893 138.236 94.5916 138.356 96.8938C138.978 97.7965 140.248 98.5111 141.165 98.7585C142.435 99.0988 143.766 98.7289 144.967 98.2955C145.721 98.0228 146.34 98.972 145.973 99.6062C144.817 101.598 142.344 101.589 140.472 100.708C139.679 100.336 138.984 99.7965 138.468 99.0946C138.5 99.7627 138.534 100.431 138.568 101.101L138.599 101.708C138.98 108.797 139.802 116.13 138.471 123.149C136.165 135.307 126.107 144.564 113.821 145.283C107.374 145.661 102.005 143.756 99.3357 142.693C96.666 141.63 97.7036 139.463 99.5569 140.083C102.75 141.15 108.615 142.739 113.864 142.053C126.235 140.435 136.725 134.249 135.647 107.608C135.494 103.83 135.024 100.05 134.922 96.2723C134.825 92.579 134.861 88.8835 134.698 85.1923L134.644 83.9329C134.581 82.4613 134.513 80.9829 134.403 79.5096C134.269 78.9388 134.16 78.3596 133.997 77.7993C133.555 76.2751 132.978 74.7931 132.262 73.3788C132.103 73.4993 131.926 73.5859 131.733 73.6198C130.273 73.8819 128.904 73.8079 127.537 73.1991C126.898 72.9179 126.336 72.5437 125.812 72.0807C125.563 71.863 125.396 71.6515 125.265 71.4317C124.603 71.4423 123.942 71.2435 123.528 70.7679C123.055 70.2257 122.977 69.6657 123.162 69.1473L123.181 69.0956L123.135 69.0787C122.577 70.5226 121.465 71.7932 120.246 72.6515C118.318 74.013 115.907 74.4062 113.595 74.4421C111.043 74.4802 108.35 74.087 105.831 73.6853C105.166 73.5796 104.504 73.4591 103.855 73.2963C103.83 73.3217 103.805 73.3513 103.777 73.3767C101.615 75.4463 98.5742 75.9791 95.8312 74.7973C94.2463 74.1145 92.917 73.0151 91.742 71.7551C91.7251 72.4147 91.6913 73.0743 91.6343 73.7276L91.6106 73.987C91.4936 75.2037 91.2685 76.4942 90.3494 77.3723C88.8638 78.7951 86.7082 78.2243 84.9944 77.2983C84.9965 77.3427 84.9965 77.3892 84.9965 77.4357C85.4593 79.0086 85.9242 80.5836 86.3891 82.1586L86.4893 82.4941C86.8273 83.6124 87.1981 84.7322 87.3 85.9027C87.4944 88.1394 86.0066 90.3486 83.5214 89.5981C82.2178 89.2058 81.1735 88.1093 80.1715 87.2311L79.54 86.6849C81.1736 92.0272 82.3063 97.5598 82.412 103.135C82.4183 103.437 82.1584 103.665 81.871 103.676C81.1989 103.703 80.4762 103.57 79.8 103.302C79.7619 103.3 79.7239 103.297 79.6837 103.291C78.5299 103.124 77.4585 102.708 76.5138 102.092C76.7315 102.784 76.8287 103.526 76.7717 104.302C76.7569 104.49 76.4631 104.555 76.4209 104.348C75.8756 101.665 72.7374 99.6379 70.0324 100.152C67.1288 100.703 64.9902 103.202 64.4661 106.046C63.904 109.101 64.9796 112.633 66.9724 114.99C67.8896 116.077 69.0963 116.984 70.5291 117.212C71.1842 117.316 71.8646 117.28 72.5007 117.094C72.7712 117.014 73.0248 116.902 73.2826 116.796C73.6588 116.644 74.0984 116.62 74.4534 116.46C75.2586 116.098 76.0679 116.84 75.6601 117.667C75.305 118.388 74.9859 118.874 74.3963 119.246C74.8739 119.83 75.3072 120.641 75.4678 120.859C76.2877 121.967 77.1203 123.013 78.0544 124.026C79.0054 125.054 80.043 125.992 81.1398 126.861L81.6008 127.226C82.6572 128.064 83.5772 128.84 84.3224 130.043C84.9098 130.992 84.1491 132.28 83.0481 132.265C79.6034 132.216 77.0992 129.189 75.3156 126.544C75.062 126.166 74.8232 125.766 74.6013 125.356C74.521 125.485 74.4323 125.605 74.3329 125.715L74.5295 126.244C75.1127 127.8 72.6001 128.817 71.871 127.364C71.3406 126.311 70.7256 125.309 70.0409 124.362C69.6373 124.305 69.2421 124.06 69.0223 123.743C68.4665 122.937 67.8431 122.123 67.3169 121.265C67.0253 120.988 66.7252 120.722 66.4188 120.462C66.33 120.54 66.2391 120.618 66.1525 120.701C65.7679 121.578 65.2924 122.379 64.7028 123.134L64.5764 123.295C63.4469 124.719 61.9756 126.177 60.155 126.525C59.5992 126.631 59.0646 125.939 59.557 125.498C60.8313 124.352 62.338 123.572 63.513 122.293C64.0919 121.662 64.6234 120.968 65.0805 120.241L65.1846 120.073C65.2607 119.948 65.3389 119.823 65.4192 119.696C64.8888 119.335 64.3583 118.971 63.8279 118.608C62.3677 119.856 60.4661 120.427 58.8511 121.46L58.6905 121.565C57.2303 122.542 55.6918 120.381 56.8626 119.195C58.1531 117.893 59.2305 116.34 60.3738 114.892C59.8361 113.901 59.5817 112.73 59.4864 111.546C59.4488 111.211 59.4194 110.876 59.39 110.54C58.5701 110.553 57.7459 110.272 57.0485 109.788L56.7844 109.6C55.937 109.87 55.0473 110.001 54.1956 109.978C52.1922 109.919 51.3723 107.629 52.6255 106.181C53.904 104.701 56.1419 104.378 57.915 105.097C57.972 105.067 58.0312 105.035 58.0883 105.003C58.0037 104.614 58.0225 104.262 58.1187 103.952L58.0908 103.763C57.7009 103.164 57.4446 102.481 57.3474 101.759C57.2704 101.187 57.2861 100.62 57.4184 100.056C57.4623 99.8677 57.5538 99.673 57.6238 99.477C57.4796 99.113 57.3949 98.7367 57.3687 98.3583C57.3283 98.3103 57.2882 98.261 57.2501 98.2077C56.3704 96.972 56.5481 95.4831 57.3854 94.4831C57.3892 94.4195 57.3951 94.3559 57.4038 94.2926C57.3547 94.1823 57.3097 94.0709 57.2687 93.9582C56.4507 93.1326 55.8501 92.1392 55.9621 90.9082C56.0278 90.1839 56.3254 89.5319 56.7757 89.0446C56.6958 88.8083 56.6882 88.5345 56.785 88.306C56.0663 86.3935 56.1572 84.0902 56.6745 81.9514C56.5604 81.6258 56.5012 81.2728 56.5139 80.8986C56.573 79.3109 57.9467 77.8522 59.5739 77.8712C59.7698 77.8729 59.9532 77.8985 60.1295 77.9359L60.1318 77.8981C60.1941 77.4215 60.3252 76.9812 60.5164 76.5861C60.4224 76.552 60.3353 76.5032 60.259 76.4383C59.2163 76.9947 58.113 77.4201 56.9562 77.7099C56.1056 77.923 55.2343 76.9558 55.763 76.1571C56.0084 75.7865 56.2791 75.4537 56.5707 75.1497C56.1561 75.1521 55.7351 75.1802 55.3093 75.2349C54.5443 75.3343 53.6906 74.8121 53.1939 74.106C52.5769 74.7064 51.9577 75.3047 51.3385 75.903C49.7704 77.423 47.4015 76.3047 47.1542 74.3005C46.6872 74.1758 46.2519 73.9644 45.8694 73.662C43.3968 74.736 40.7362 75.3258 38.0165 75.4379C36.0638 75.5182 34.9226 73.2435 35.8356 71.6367C36.4484 70.5586 37.2092 69.5903 38.0862 68.7489C36.7252 69.1654 35.3199 69.4656 33.885 69.658C33.1094 69.7615 32.0127 69.1189 31.702 68.4064C30.5144 65.6665 30.6158 62.8104 31.9831 60.1445C32.0359 60.0388 32.0951 59.9374 32.1521 59.8359C32.2937 59.4828 32.448 59.134 32.6149 58.7915C30.9328 57.0368 30.787 54.428 31.6936 52.2442C31.3301 51.6543 31.1906 50.944 31.4379 50.3013C32.1416 48.4515 33.1559 46.7433 34.4366 45.2761C34.314 45.0393 34.2062 44.7878 34.1154 44.5172C33.3947 42.3291 34.2295 39.6886 35.9138 38.1643C36.9725 37.2045 38.1897 36.6295 39.4894 36.2616C40.0367 35.2934 40.7405 34.4202 41.5604 33.6845C41.5921 33.6148 41.6238 33.545 41.6597 33.4752C42.9361 31.0694 45.2607 29.7798 47.7523 29.4817C47.8495 28.5409 48.4835 27.6425 49.4048 27.3507C49.6584 26.5368 50.0367 25.7588 50.5566 25.0527C51.3744 23.9407 52.7332 23.4164 54.0139 24.1457C54.7155 24.5453 55.3875 25.0041 56.0173 25.5115C56.3001 25.3788 56.6208 25.2929 56.9826 25.2655L57.0739 25.2599L59.1576 25.1542C60.0304 24.7673 60.901 24.3614 61.7738 23.966C62.2979 23.5327 62.8833 23.1711 63.5215 22.9027C64.2442 22.6003 64.9839 22.4291 65.7256 22.372C66.3279 22.1754 66.9344 22.0021 67.5515 21.8668C69.0012 21.5496 70.5185 21.3721 72.0231 21.3869C72.0539 20.9973 72.0692 20.603 72.0663 20.2041L72.0633 20.0042C72.0295 18.7252 73.0502 17.7041 74.2526 17.5223ZM72.7925 119.855C72.5854 119.899 72.3762 119.935 72.1669 119.961C72.2303 120.117 72.2937 120.274 72.355 120.43C72.5241 120.525 72.6953 120.616 72.8664 120.701C72.8157 120.413 72.7861 120.123 72.7925 119.855ZM61.9347 116.627L61.7942 116.886C61.7714 116.929 61.749 116.97 61.7269 117.012C62.0249 116.988 62.325 116.995 62.6209 117.028L62.62 116.997C62.582 116.984 62.5439 116.972 62.5076 116.954C62.3034 116.856 62.1137 116.746 61.9347 116.627ZM67.8031 104.82C69.6728 104.928 71.2568 105.215 72.9572 106.033L73.1032 106.105C74.6057 106.851 77.0909 108.23 76.8817 110.206C76.8225 110.769 76.4147 111.361 75.7722 111.316C74.0119 111.196 73.006 109.42 71.8141 108.312C70.6116 107.196 69.1345 106.048 67.6784 105.28C67.4726 105.172 67.5537 104.83 67.7777 104.819L67.8031 104.82ZM59.3243 78.776C58.8763 78.7908 59.0263 79.2264 59.2567 78.8627C59.2757 78.8331 59.2989 78.8035 59.3243 78.776ZM83.5076 49.7026C79.2646 49.8142 74.9943 52.3205 71.8157 54.8538C69.0505 57.0577 66.6627 59.6792 64.5484 62.5047C64.0044 63.9118 63.5374 65.3484 63.1429 66.7955C62.8829 67.751 62.7202 68.7172 62.5025 69.6812L62.4349 69.9768C62.264 70.2964 62.137 70.6404 62.0444 70.9958C62.4296 71.3822 62.9294 71.6589 63.4797 71.7902C63.657 71.8325 63.8043 71.924 63.9208 72.0454C64.3637 71.3059 64.7509 70.5254 64.9761 69.6979L64.9844 69.6596C65.8358 68.2646 66.7606 66.9128 67.7519 65.6073C70.4865 62.0028 73.4979 58.7175 77.1179 55.984C79.863 53.9122 82.9315 52.2886 86.1944 51.2336C85.3958 50.589 84.4888 50.0791 83.5076 49.7026Z" fill="black"/>
<path fill-rule="evenodd" clip-rule="evenodd" d="M128.542 117.031C128.593 116.871 128.815 116.871 128.866 117.031C129.331 118.479 129.604 119.898 130.297 121.26C130.469 121.436 130.592 121.658 130.657 121.898C130.981 122.437 131.342 122.948 131.746 123.432C132.254 124.041 132.624 124.613 132.354 125.444C132.222 125.853 131.879 126.115 131.447 126.135C130.261 126.189 129.585 125.057 129.166 123.877C126.231 124.852 122.999 125.404 119.923 125.162C117.423 124.964 114.699 124.338 112.46 123.061C112.474 123.543 112.492 124.026 112.509 124.509C112.54 125.402 112.781 126.38 112.688 127.257C112.595 128.128 112.101 128.802 111.206 128.936C110.435 129.052 109.481 128.537 109.331 127.712C109.157 126.753 109.479 126.084 109.745 125.179C109.979 124.379 110.163 123.562 110.365 122.754C110.569 121.938 110.735 121.115 110.886 120.288C110.997 119.683 110.917 119.001 111.132 118.431C111.148 118.386 111.192 118.354 111.241 118.368C112.381 118.696 112.446 120.533 112.441 121.518L112.441 121.566C112.439 121.767 112.441 121.968 112.443 122.169L112.879 122.264C115.271 122.782 117.594 123.175 120.108 123.032C123.058 122.865 125.652 121.786 128.451 121.047C128.218 119.717 128.147 118.266 128.542 117.031ZM118.677 90.8229C119.986 90.3745 121.401 90.1627 122.778 90.2306C125.728 90.3764 128.539 91.7227 130.474 93.966C132.3 96.0837 133.293 98.7396 133.28 101.542C133.266 104.42 132.51 107.661 131.087 110.181C128.097 115.475 121.113 115.512 116.094 113.401C110.738 111.148 108.559 105.468 109.849 99.9763C110.819 95.8462 114.128 90.8906 118.677 90.8229ZM127.404 94.9116C125.823 93.6425 123.833 93.0723 121.823 93.2165C120.824 93.2882 119.809 93.5505 118.902 93.977C118.42 94.2036 117.989 94.5201 117.514 94.756C117.091 94.9661 116.633 95.0887 116.196 95.2655L116.034 95.3346C115.317 95.6551 114.595 95.1966 114.559 94.5283C112.999 96.7177 112.259 99.6865 112.271 102.32C112.28 104.26 112.742 106.274 113.854 107.889C115.091 109.684 117.144 110.631 119.202 111.133C121.173 111.615 123.323 111.782 125.298 111.235C127.349 110.667 128.674 109.11 129.428 107.169C131.064 102.959 131.199 97.9595 127.404 94.9116ZM120.361 100.132C121.256 98.9102 122.862 98.8453 123.745 100.132C124.302 100.942 124.22 101.723 124.176 102.655L124.167 102.865C124.141 103.603 124.144 104.38 123.868 105.062C123.513 105.937 122.824 106.498 121.847 106.382C121.272 106.313 120.79 105.97 120.511 105.496L120.501 105.502V105.502C120.11 104.719 120.008 103.925 119.942 103.071L119.897 102.445C119.841 101.621 119.838 100.846 120.361 100.132Z" fill="black"/>
</g>
<defs>
<clipPath id="clip0">
<rect width="200" height="200" fill="white"/>
</clipPath>
</defs>
</svg>
