<?xml version="1.0" encoding="utf-8"?>
<!-- Generator: Adobe Illustrator 25.2.0, SVG Export Plug-In . SVG Version: 6.00 Build 0)  -->
<svg version="1.2" baseProfile="tiny" id="图层_1"
	 xmlns="http://www.w3.org/2000/svg" xmlns:xlink="http://www.w3.org/1999/xlink" x="0px" y="0px" viewBox="0 0 200 200"
	 overflow="visible" xml:space="preserve">
<g>
	<g>
		<g>
			<polygon fill="#EA501A" points="184.3,8.7 191.3,15.7 191.3,8.7 			"/>
			<polygon fill="#E94F1B" points="169.2,8.7 191.3,30.8 191.3,15.7 184.3,8.7 			"/>
			<polygon fill="#E94F1B" points="154,8.7 168.1,22.7 177.2,22.7 177.2,31.9 191.3,46 191.3,30.8 169.2,8.7 			"/>
			<polygon fill="#E84F1C" points="138.9,8.7 153,22.7 168.1,22.7 154,8.7 			"/>
			<polygon fill="#E84F1C" points="177.2,47 191.3,61.1 191.3,46 177.2,31.9 			"/>
			<polygon fill="#E84E1D" points="177.2,62.1 191.3,76.2 191.3,61.1 177.2,47 			"/>
			<polygon fill="#E84E1D" points="123.8,8.7 137.8,22.7 153,22.7 138.9,8.7 			"/>
			<polygon fill="#E74E1E" points="177.2,77.3 191.3,91.3 191.3,76.2 177.2,62.1 			"/>
			<polygon fill="#E74E1E" points="108.7,8.7 122.7,22.7 137.8,22.7 123.8,8.7 			"/>
			<polygon fill="#E64E1F" points="177.2,92.4 191.3,106.5 191.3,91.3 177.2,77.3 			"/>
			<polygon fill="#E64E1F" points="93.5,8.7 107.6,22.7 122.7,22.7 108.7,8.7 			"/>
			<polygon fill="#E64D1F" points="78.4,8.7 92.5,22.7 107.6,22.7 93.5,8.7 			"/>
			<polygon fill="#E64D1F" points="177.2,107.5 191.3,121.6 191.3,106.5 177.2,92.4 			"/>
			<polygon fill="#E54D20" points="177.2,122.6 191.3,136.7 191.3,121.6 177.2,107.5 			"/>
			<polygon fill="#E54D20" points="63.3,8.7 77.3,22.7 92.5,22.7 78.4,8.7 			"/>
			<polygon fill="#E54D21" points="177.2,137.8 191.3,151.8 191.3,136.7 177.2,122.6 			"/>
			<polygon fill="#E54D21" points="48.2,8.7 62.2,22.7 77.3,22.7 63.3,8.7 			"/>
			<polygon fill="#E44C21" points="33,8.7 47.1,22.7 62.2,22.7 48.2,8.7 			"/>
			<polygon fill="#E44C21" points="177.2,152.9 191.3,167 191.3,151.8 177.2,137.8 			"/>
			<polygon fill="#E34C22" points="17.9,8.7 32,22.7 47.1,22.7 33,8.7 			"/>
			<polygon fill="#E34C22" points="177.2,168 191.3,182.1 191.3,167 177.2,152.9 			"/>
			<polygon fill="#E34C23" points="147.3,149.5 143.6,149.5 147.3,153.2 			"/>
			<polygon fill="#E34C23" points="8.7,8.7 8.7,14.6 22.8,28.7 22.8,22.7 32,22.7 17.9,8.7 			"/>
			<polygon fill="#E34C23" points="177.2,177.2 171.3,177.2 185.4,191.3 191.3,191.3 191.3,182.1 177.2,168 			"/>
			<polygon fill="#E24B23" points="8.7,29.7 22.8,43.8 22.8,28.7 8.7,14.6 			"/>
			<polygon fill="#E24B23" points="156.2,177.2 170.3,191.3 185.4,191.3 171.3,177.2 			"/>
			<polygon fill="#E24B23" points="147.3,153.2 143.6,149.5 133.3,149.5 133.3,154.3 147.3,168.4 			"/>
			<polygon fill="#E14B24" points="8.7,44.9 22.8,58.9 22.8,43.8 8.7,29.7 			"/>
			<polygon fill="#E14B24" points="147.3,177.2 147.3,168.4 133.3,154.3 133.3,169.4 155.1,191.3 170.3,191.3 156.2,177.2 			"/>
			<polygon fill="#E14A25" points="133.3,184.6 140,191.3 147.3,191.3 147.3,191.3 155.1,191.3 133.3,169.4 			"/>
			<polygon fill="#E14A25" points="8.7,60 22.8,74 22.8,58.9 8.7,44.9 			"/>
			<polygon fill="#E04A25" points="8.7,75.1 22.8,89.2 22.8,74 8.7,60 			"/>
			<polygon fill="#E04A25" points="133.3,191.3 140,191.3 133.3,184.6 			"/>
			<polygon fill="#DF4A26" points="8.7,90.2 22.8,104.3 22.8,89.2 8.7,75.1 			"/>
			<polygon fill="#DF4926" points="8.7,105.4 22.8,119.4 22.8,104.3 8.7,90.2 			"/>
			<polygon fill="#DE4927" points="8.7,120.5 22.8,134.5 22.8,119.4 8.7,105.4 			"/>
			<polygon fill="#DD4927" points="8.7,135.6 18,144.9 22.8,144.9 22.8,134.5 8.7,120.5 			"/>
			<polygon fill="#DD4828" points="8.7,144.9 18,144.9 8.7,135.6 			"/>
		</g>
	</g>
	<g>
		<g>
			<g>
				<path fill="#DC4829" d="M31.8,149.5H9.5c-0.4,0-0.8,0.3-0.8,0.8v8.4c0,0.4,0.3,0.8,0.8,0.8h5.4v9.2h11.2v-9.2h5.7
					c0.4,0,0.8-0.3,0.8-0.8v-8.4C32.6,149.9,32.2,149.5,31.8,149.5z"/>
				<path fill="#DC4829" d="M14.9,190.4c0,0.4,0.3,0.8,0.8,0.8h9.7c0.4,0,0.8-0.3,0.8-0.8v-10.5H14.9V190.4z"/>
			</g>
		</g>
		<g>
			<g>
				<path fill="#DC4829" d="M81.6,171.7c-0.1-1.6-0.3-3-0.4-4.4c-0.2-1.3-0.3-2.6-0.5-3.7l-0.4-2.3l-6.8-11.7H65
					c-0.4,0-0.7,0.3-0.8,0.7l-4.7,40.1c-0.1,0.5,0.3,0.9,0.8,0.9h10.4c0.4,0,0.7-0.3,0.8-0.7l1-18.1l0.3-7.7c0.1,1.2,0.2,2,0.2,2.4
					c0.3,2.6,0.5,4.5,0.7,5.6l2.9,17.9c0.1,0.4,0.4,0.6,0.8,0.6h7.9c0.4,0,0.7-0.3,0.8-0.6l2.8-14.6l-6.3-10.9
					C82.1,167,81.8,169.2,81.6,171.7z"/>
				<path fill="#DC4829" d="M91.6,190.4c0,0.4,0.4,0.7,0.8,0.7h5.2L91.1,180L91.6,190.4z"/>
			</g>
		</g>
		<g>
			<g>
				<path fill="#EA501A" d="M128.6,149.5l0.7,0.7C129.2,149.9,128.9,149.6,128.6,149.5z"/>
				<path fill="#EA501A" d="M128.6,149.5C128.5,149.5,128.5,149.5,128.6,149.5l-2.1,0l2.8,2.8v-2c0,0,0,0,0-0.1L128.6,149.5z"/>
				<polygon fill="#E94F1B" points="124.4,149.5 129.3,154.3 129.3,152.3 126.5,149.5 				"/>
				<polygon fill="#E94F1B" points="122.4,149.5 129.3,156.4 129.3,154.3 124.4,149.5 				"/>
				<polygon fill="#E84F1C" points="120.3,149.5 129.3,158.4 129.3,156.4 122.4,149.5 				"/>
				<path fill="#E84E1D" d="M118.3,149.5l9.8,9.8h0.4c0.4,0,0.8-0.3,0.8-0.8v-0.1l-8.9-8.9H118.3z"/>
				<polygon fill="#E74E1E" points="116.2,149.5 126,159.3 128.1,159.3 118.3,149.5 				"/>
				<polygon fill="#E64E1F" points="114.2,149.5 124,159.3 126,159.3 116.2,149.5 				"/>
				<polygon fill="#E64D1F" points="112.1,149.5 121.9,159.3 124,159.3 114.2,149.5 				"/>
				<path fill="#E54D20" d="M128.3,166.1c0-0.4-0.3-0.8-0.8-0.8h-1.5l2.3,2.3V166.1z"/>
				<path fill="#E54D20" d="M110.1,149.5l9.9,9.9c0.1-0.1,0.2-0.1,0.4-0.1h1.6l-9.8-9.8H110.1z"/>
				<path fill="#E54D21" d="M109.1,149.5c-0.3,0-0.5,0.2-0.7,0.4l11.1,11.1v-1c0-0.3,0.2-0.5,0.4-0.7l-9.9-9.9H109.1z"/>
				<polygon fill="#E54D21" points="128.3,167.7 125.9,165.4 123.9,165.4 128.3,169.7 				"/>
				<path fill="#E44C21" d="M108.4,150.3v1.6l11.2,11.2v-2l-11.1-11.1C108.4,150,108.4,150.2,108.4,150.3z"/>
				<polygon fill="#E44C21" points="128.3,169.7 123.9,165.4 121.8,165.4 128.3,171.8 				"/>
				<path fill="#E34C22" d="M108.4,153.9l19.9,19.9v-2l-6.4-6.4h-1.5c-0.4,0-0.8-0.3-0.8-0.8v-1.5l-11.2-11.2V153.9z"/>
				<path fill="#E34C23" d="M108.4,156l18.8,18.8h0.3c0.4,0,0.8-0.3,0.8-0.8v-0.2l-19.9-19.9V156z"/>
				<polygon fill="#E24B23" points="108.4,158 125.1,174.8 127.2,174.8 108.4,156 				"/>
				<polygon fill="#E14B24" points="108.4,160.1 123.1,174.8 125.1,174.8 108.4,158 				"/>
				<polygon fill="#E14A25" points="108.4,162.1 121,174.8 123.1,174.8 108.4,160.1 				"/>
				<path fill="#E14A25" d="M129.3,181.9c0-0.4-0.3-0.8-0.8-0.8h-1.1l1.9,1.9V181.9z"/>
				<path fill="#E04A25" d="M108.4,163.5l0.9,1.6l10.4,10.4c0-0.4,0.4-0.7,0.7-0.7h0.6l-12.6-12.6V163.5z"/>
				<polygon fill="#E04A25" points="129.3,183 127.4,181.1 125.3,181.1 129.3,185.1 				"/>
				<path fill="#DF4A26" d="M112.1,170l7.5,7.5v-1.9c0,0,0-0.1,0-0.1l-10.4-10.4L112.1,170z"/>
				<polygon fill="#DF4A26" points="129.3,185.1 125.3,181.1 123.3,181.1 129.3,187.1 				"/>
				<polygon fill="#DF4926" points="114.9,174.8 119.6,179.5 119.6,177.5 112.1,170 				"/>
				<polygon fill="#DF4926" points="129.3,187.1 123.3,181.1 121.2,181.1 129.3,189.2 				"/>
				<path fill="#DE4927" d="M117.7,179.7L129,191c0.2-0.1,0.3-0.3,0.3-0.6v-1.2l-8-8h-0.8c-0.4,0-0.8-0.3-0.8-0.8v-0.8l-4.7-4.7
					L117.7,179.7z"/>
				<path fill="#DD4927" d="M120.5,184.5l6.6,6.6h1.4c0.2,0,0.4-0.1,0.5-0.2l-11.3-11.3L120.5,184.5z"/>
				<polygon fill="#DD4828" points="123.3,189.4 125.1,191.1 127.1,191.1 120.5,184.5 				"/>
				<polygon fill="#DC4829" points="124.3,191.1 125.1,191.1 123.3,189.4 				"/>
			</g>
		</g>
		<g>
			<path fill="#953223" d="M51.5,188.6H38.8c-0.3,0-0.6-0.3-0.6-0.6v-37.8c0-0.3,0.3-0.6,0.6-0.6h12.7c0.3,0,0.6,0.3,0.6,0.6V188
				C52.1,188.3,51.8,188.6,51.5,188.6z"/>
		</g>
		<g>
			<g>
				<path fill="none" d="M43.4,169.1c-0.3,0-0.6,0.3-0.6,0.6c0,0.3,0.3,0.6,0.6,0.6c0.3,0,0.6-0.3,0.6-0.6
					C44,169.3,43.7,169.1,43.4,169.1z"/>
				<path fill="#DC4829" d="M51.4,149.7l-9.1,2.3c-0.4,0.1-0.7,0.5-0.7,0.9v37.6c0,0.4,0.3,0.6,0.7,0.5l9.1-2.4
					c0.4-0.1,0.7-0.5,0.7-0.9v-37.6C52.1,149.8,51.8,149.6,51.4,149.7z M43.4,170.2c-0.3,0-0.6-0.3-0.6-0.6c0-0.3,0.3-0.6,0.6-0.6
					c0.3,0,0.6,0.3,0.6,0.6C44,169.9,43.7,170.2,43.4,170.2z"/>
			</g>
		</g>
	</g>
</g>
</svg>
