<?xml version="1.0" standalone="no"?>
<!DOCTYPE svg PUBLIC "-//W3C//DTD SVG 20010904//EN"
 "http://www.w3.org/TR/2001/REC-SVG-20010904/DTD/svg10.dtd">
<svg version="1.0" xmlns="http://www.w3.org/2000/svg"
 width="32.000000pt" height="32.000000pt" viewBox="0 0 32.000000 32.000000"
 preserveAspectRatio="xMidYMid meet">

<g transform="translate(0.000000,32.000000) scale(0.100000,-0.100000)"
fill="#000000" stroke="none">
<path d="M132 293 c-1 -10 -2 -36 -3 -58 l0 -40 -9 33 c-8 36 -20 54 -20 32 0
-9 -5 -7 -14 6 -19 26 -28 14 -33 -47 -4 -43 -1 -53 16 -66 26 -18 28 -38 3
-24 -15 8 -17 3 -19 -41 -3 -41 1 -53 20 -68 12 -11 29 -17 37 -15 8 2 50 11
93 20 l77 17 0 72 c0 57 -4 76 -19 93 -14 14 -18 31 -16 57 3 34 -8 50 -18 24
-4 -10 -7 -10 -18 0 -11 10 -11 12 1 12 7 0 11 2 8 5 -11 11 -57 -7 -61 -23
-3 -12 -5 -10 -6 6 -1 26 -17 30 -19 5z m68 -60 c0 -13 -3 -23 -7 -23 -5 0 -8
16 -9 35 0 22 3 31 8 23 4 -7 8 -23 8 -35z m-100 -23 c0 -5 -4 -10 -10 -10 -5
0 -10 5 -10 10 0 6 5 10 10 10 6 0 10 -4 10 -10z m167 -122 c-2 -18 -4 -6 -4
27 0 33 2 48 4 33 2 -15 2 -42 0 -60z m-52 14 c-2 -3 0 -13 6 -24 9 -17 8 -18
-10 -9 -25 14 -53 15 -33 2 17 -10 -30 -21 -59 -14 -23 6 -22 34 1 41 13 5 13
3 0 -13 -9 -11 -10 -16 -2 -11 7 4 25 10 40 12 15 3 28 9 30 13 1 4 9 8 17 8
8 0 13 -2 10 -5z"/>
<path d="M73 293 c9 -2 17 -8 17 -13 0 -5 8 -6 17 -3 15 6 15 7 -3 14 -10 4
-26 7 -34 7 -10 0 -9 -2 3 -5z"/>
</g>
</svg>
