<?xml version="1.0" standalone="no"?>
<!DOCTYPE svg PUBLIC "-//W3C//DTD SVG 20010904//EN"
 "http://www.w3.org/TR/2001/REC-SVG-20010904/DTD/svg10.dtd">
<svg version="1.0" xmlns="http://www.w3.org/2000/svg"
 width="720.000000pt" height="720.000000pt" viewBox="0 0 720.000000 720.000000"
 preserveAspectRatio="xMidYMid meet">

<g transform="translate(0.000000,720.000000) scale(0.100000,-0.100000)"
fill="#000000" stroke="none">
<path d="M161 7189 c-51 -10 -107 -51 -136 -100 -20 -34 -20 -54 -23 -3458 -2
-2744 0 -3422 10 -3418 7 3 81 33 163 66 263 109 941 316 1490 457 467 120
609 159 913 254 429 133 755 246 868 299 420 200 625 542 627 1046 1 225 -35
369 -175 690 -128 293 -140 345 -97 445 32 78 65 123 164 225 146 151 185 222
185 333 -1 186 -189 410 -419 496 -78 30 -253 76 -287 76 -23 0 -22 4 39 128
80 158 148 363 197 587 10 50 33 129 50 177 45 131 39 220 -23 348 -25 52 -65
100 -198 236 -236 242 -299 357 -271 493 15 73 59 136 178 256 55 55 132 135
172 178 72 78 135 173 126 189 -7 11 -3497 8 -3553 -3z m3020 -2166 c6 -16 20
-68 31 -118 19 -83 20 -93 5 -127 -8 -20 -24 -41 -35 -47 -19 -10 -22 -6 -41
52 -12 34 -35 87 -51 116 l-30 55 47 48 c26 26 51 48 55 48 5 0 13 -12 19 -27z"/>
<path d="M4600 7148 c-135 -236 -156 -471 -63 -716 35 -94 60 -139 121 -220
95 -127 210 -206 518 -358 204 -101 263 -148 312 -246 73 -148 68 -389 -9
-510 -31 -48 -61 -74 -161 -141 -101 -67 -162 -159 -174 -260 -13 -113 34
-224 173 -409 48 -64 127 -172 175 -240 72 -103 138 -178 234 -266 8 -7 14
-29 14 -47 0 -50 16 -85 40 -85 25 0 63 -56 90 -135 25 -71 30 -179 10 -247
-11 -40 -17 -47 -44 -52 -17 -4 -87 -24 -156 -46 -69 -21 -167 -44 -217 -50
-202 -23 -394 -155 -481 -329 -33 -68 -37 -83 -37 -155 0 -107 27 -162 140
-285 102 -109 169 -209 186 -275 15 -61 6 -236 -15 -294 -31 -83 -81 -170
-230 -400 -102 -158 -155 -272 -198 -427 -29 -105 -31 -320 -5 -441 41 -194
141 -349 302 -474 l52 -40 939 2 939 3 45 25 c29 17 53 41 70 70 l25 45 3
3434 c1 2370 -1 3445 -8 3472 -13 49 -58 101 -108 125 -35 18 -90 19 -1244 22
l-1207 2 -31 -52z m1283 -3360 l102 -103 -100 -7 c-63 -5 -103 -4 -110 3 -15
15 -20 209 -5 209 7 0 58 -46 113 -102z m120 -452 c45 -11 47 -13 30 -28 -18
-16 -120 -78 -128 -78 -10 0 -4 37 13 77 19 48 18 47 85 29z"/>
</g>
</svg>
