<svg width="100" height="100" viewBox="0 0 100 100" fill="none" xmlns="http://www.w3.org/2000/svg">
<path fill-rule="evenodd" clip-rule="evenodd" d="M3.2698 16.3803C0 22.7976 0 31.1984 0 48V52C0 68.8016 0 77.2024 3.2698 83.6197C6.14601 89.2646 10.7354 93.854 16.3803 96.7302C22.7976 100 31.1984 100 48 100H52C68.8016 100 77.2024 100 83.6197 96.7302C89.2646 93.854 93.854 89.2646 96.7302 83.6197C100 77.2024 100 68.8016 100 52V48C100 31.1984 100 22.7976 96.7302 16.3803C93.854 10.7354 89.2646 6.14601 83.6197 3.2698C77.2024 0 68.8016 0 52 0H48C31.1984 0 22.7976 0 16.3803 3.2698C10.7354 6.14601 6.14601 10.7354 3.2698 16.3803ZM49.4567 37.4965L36.1752 46.3788C35.0021 46.3369 33.7871 46.0855 32.6977 45.5828L19.5 39.2562L48.2417 23L79.9581 37.5803L68.2268 45.1219C66.8023 46.0017 65.1264 46.5045 63.4505 46.5045L49.4567 37.4965ZM24.4439 58.6967L52.9761 72.3553L75.5589 57.8168L80 59.8279L52.7247 77.383L19.5 61.5038L24.4439 58.6967ZM52.9761 64.5204L24.4439 50.9037L19.5 53.669L52.7247 69.5481L80 52.035L75.5589 49.982L52.9761 64.5204ZM63.5762 48.9765C65.713 48.9765 67.8497 48.348 69.6513 47.1749L76.6901 42.6918L80 44.2002L52.7247 61.7133L19.5 45.8761L23.2708 43.7393L31.6922 47.7614C33.2005 48.4737 34.8764 48.8508 36.5104 48.8508L63.5343 48.9765H63.5762Z" fill="white"/>
</svg>
